<?xml version="1.0" encoding="UTF-8" standalone="no"?>
<!DOCTYPE svg PUBLIC "-//W3C//DTD SVG 1.1//EN" "http://www.w3.org/Graphics/SVG/1.1/DTD/svg11.dtd">
<svg width="100%" height="100%" viewBox="0 0 1142 406" version="1.1" xmlns="http://www.w3.org/2000/svg" xmlns:xlink="http://www.w3.org/1999/xlink" xml:space="preserve" xmlns:serif="http://www.serif.com/" style="fill-rule:evenodd;clip-rule:evenodd;stroke-linejoin:round;stroke-miterlimit:2;">
    <g transform="matrix(1,0,0,1,-5011.77,-1833.55)">
        <g transform="matrix(1,0,0,1,-0.754384,-0.491517)">
            <g transform="matrix(0.400872,0,0,0.375914,3180.1,1182.39)">
                <path d="M5587.53,1817.54C5587.53,1814.01 5586.22,1810.63 5583.88,1808.13C5581.54,1805.64 5578.37,1804.24 5575.06,1804.24C5523.5,1804.24 5327.27,1804.24 5275.71,1804.24C5272.4,1804.24 5269.23,1805.64 5266.89,1808.13C5264.55,1810.63 5263.24,1814.01 5263.24,1817.54C5263.24,1895.48 5263.24,2289.51 5263.24,2289.51L5587.53,2289.51L5587.53,1817.54Z" style="fill:rgb(204,206,219);fill-opacity:0.4;"/>
            </g>
            <g transform="matrix(1,0,0,1,0.754384,0.491517)">
                <path d="M5409.25,1962.15C5409.25,1961.62 5409.04,1961.11 5408.67,1960.74C5408.29,1960.36 5407.78,1960.15 5407.25,1960.15L5391.25,1960.15C5390.72,1960.15 5390.21,1960.36 5389.83,1960.74C5389.46,1961.11 5389.25,1961.62 5389.25,1962.15L5389.25,1978.16C5389.25,1978.69 5389.46,1979.19 5389.83,1979.57C5390.21,1979.94 5390.72,1980.16 5391.25,1980.16C5395.08,1980.16 5403.42,1980.16 5407.25,1980.16C5407.78,1980.16 5408.29,1979.94 5408.67,1979.57C5409.04,1979.19 5409.25,1978.69 5409.25,1978.16L5409.25,1962.15ZM5349.24,1962.15C5349.24,1961.62 5349.03,1961.11 5348.66,1960.74C5348.28,1960.36 5347.77,1960.15 5347.24,1960.15L5331.24,1960.15C5330.71,1960.15 5330.2,1960.36 5329.82,1960.74C5329.45,1961.11 5329.24,1961.62 5329.24,1962.15L5329.24,1978.16C5329.24,1978.69 5329.45,1979.19 5329.82,1979.57C5330.2,1979.94 5330.71,1980.16 5331.24,1980.16L5347.24,1980.16C5347.77,1980.16 5348.28,1979.94 5348.66,1979.57C5349.03,1979.19 5349.24,1978.69 5349.24,1978.16L5349.24,1962.15ZM5319.24,1962.15C5319.24,1961.62 5319.03,1961.11 5318.65,1960.74C5318.28,1960.36 5317.77,1960.15 5317.24,1960.15L5301.23,1960.15C5300.7,1960.15 5300.19,1960.36 5299.82,1960.74C5299.44,1961.11 5299.23,1961.62 5299.23,1962.15L5299.23,1978.16C5299.23,1978.69 5299.44,1979.19 5299.82,1979.57C5300.19,1979.94 5300.7,1980.16 5301.23,1980.16L5317.24,1980.16C5317.77,1980.16 5318.28,1979.94 5318.65,1979.57C5319.03,1979.19 5319.24,1978.69 5319.24,1978.16L5319.24,1962.15ZM5379.25,1962.15C5379.25,1961.62 5379.04,1961.11 5378.66,1960.74C5378.29,1960.36 5377.78,1960.15 5377.25,1960.15C5373.41,1960.15 5365.08,1960.15 5361.24,1960.15C5360.71,1960.15 5360.2,1960.36 5359.83,1960.74C5359.45,1961.11 5359.24,1961.62 5359.24,1962.15L5359.24,1978.16C5359.24,1978.69 5359.45,1979.19 5359.83,1979.57C5360.2,1979.94 5360.71,1980.16 5361.24,1980.16C5365.08,1980.16 5373.41,1980.16 5377.25,1980.16C5377.78,1980.16 5378.29,1979.94 5378.66,1979.57C5379.04,1979.19 5379.25,1978.69 5379.25,1978.16C5379.25,1974.32 5379.25,1965.99 5379.25,1962.15ZM5409.25,1932.15C5409.25,1931.62 5409.04,1931.11 5408.67,1930.74C5408.29,1930.36 5407.78,1930.15 5407.25,1930.15C5403.42,1930.15 5395.08,1930.15 5391.25,1930.15C5390.72,1930.15 5390.21,1930.36 5389.83,1930.74C5389.46,1931.11 5389.25,1931.62 5389.25,1932.15L5389.25,1948.15C5389.25,1948.68 5389.46,1949.19 5389.83,1949.57C5390.21,1949.94 5390.72,1950.15 5391.25,1950.15L5407.25,1950.15C5407.78,1950.15 5408.29,1949.94 5408.67,1949.57C5409.04,1949.19 5409.25,1948.68 5409.25,1948.15L5409.25,1932.15ZM5379.25,1932.15C5379.25,1931.62 5379.04,1931.11 5378.66,1930.74C5378.29,1930.36 5377.78,1930.15 5377.25,1930.15L5361.24,1930.15C5360.71,1930.15 5360.2,1930.36 5359.83,1930.74C5359.45,1931.11 5359.24,1931.62 5359.24,1932.15L5359.24,1948.15C5359.24,1948.68 5359.45,1949.19 5359.83,1949.57C5360.2,1949.94 5360.71,1950.15 5361.24,1950.15C5365.08,1950.15 5373.41,1950.15 5377.25,1950.15C5377.78,1950.15 5378.29,1949.94 5378.66,1949.57C5379.04,1949.19 5379.25,1948.68 5379.25,1948.15C5379.25,1944.32 5379.25,1935.98 5379.25,1932.15ZM5349.24,1932.15C5349.24,1931.62 5349.03,1931.11 5348.66,1930.74C5348.28,1930.36 5347.77,1930.15 5347.24,1930.15L5331.24,1930.15C5330.71,1930.15 5330.2,1930.36 5329.82,1930.74C5329.45,1931.11 5329.24,1931.62 5329.24,1932.15L5329.24,1948.15C5329.24,1948.68 5329.45,1949.19 5329.82,1949.57C5330.2,1949.94 5330.71,1950.15 5331.24,1950.15L5347.24,1950.15C5347.77,1950.15 5348.28,1949.94 5348.66,1949.57C5349.03,1949.19 5349.24,1948.68 5349.24,1948.15L5349.24,1932.15ZM5319.24,1932.15C5319.24,1931.62 5319.03,1931.11 5318.65,1930.74C5318.28,1930.36 5317.77,1930.15 5317.24,1930.15L5301.23,1930.15C5300.7,1930.15 5300.19,1930.36 5299.82,1930.74C5299.44,1931.11 5299.23,1931.62 5299.23,1932.15L5299.23,1948.15C5299.23,1948.68 5299.44,1949.19 5299.82,1949.57C5300.19,1949.94 5300.7,1950.15 5301.23,1950.15L5317.24,1950.15C5317.77,1950.15 5318.28,1949.94 5318.65,1949.57C5319.03,1949.19 5319.24,1948.68 5319.24,1948.15L5319.24,1932.15ZM5319.23,1902.14C5319.23,1901.62 5319.02,1901.11 5318.64,1900.73C5318.26,1900.36 5317.76,1900.14 5317.23,1900.14L5301.22,1900.14C5300.69,1900.14 5300.18,1900.36 5299.81,1900.73C5299.43,1901.11 5299.22,1901.62 5299.22,1902.14L5299.22,1918.15C5299.22,1918.68 5299.43,1919.19 5299.81,1919.56C5300.18,1919.94 5300.69,1920.15 5301.22,1920.15L5317.23,1920.15C5317.76,1920.15 5318.26,1919.94 5318.64,1919.56C5319.02,1919.19 5319.23,1918.68 5319.23,1918.15C5319.23,1914.32 5319.23,1905.98 5319.23,1902.14ZM5349.23,1902.14C5349.23,1901.62 5349.02,1901.11 5348.65,1900.73C5348.27,1900.36 5347.76,1900.14 5347.23,1900.14L5331.23,1900.14C5330.7,1900.14 5330.19,1900.36 5329.81,1900.73C5329.44,1901.11 5329.23,1901.62 5329.23,1902.14L5329.23,1918.15C5329.23,1918.68 5329.44,1919.19 5329.81,1919.56C5330.19,1919.94 5330.7,1920.15 5331.23,1920.15L5347.23,1920.15C5347.76,1920.15 5348.27,1919.94 5348.65,1919.56C5349.02,1919.19 5349.23,1918.68 5349.23,1918.15C5349.23,1914.32 5349.23,1905.98 5349.23,1902.14ZM5409.24,1902.14C5409.24,1901.62 5409.03,1901.11 5408.65,1900.73C5408.28,1900.36 5407.77,1900.14 5407.24,1900.14L5391.24,1900.14C5390.71,1900.14 5390.2,1900.36 5389.82,1900.73C5389.45,1901.11 5389.24,1901.62 5389.24,1902.14L5389.24,1918.15C5389.24,1918.68 5389.45,1919.19 5389.82,1919.56C5390.2,1919.94 5390.71,1920.15 5391.24,1920.15L5407.24,1920.15C5407.77,1920.15 5408.28,1919.94 5408.65,1919.56C5409.03,1919.19 5409.24,1918.68 5409.24,1918.15L5409.24,1902.14ZM5379.24,1902.14C5379.24,1901.62 5379.03,1901.11 5378.65,1900.73C5378.28,1900.36 5377.77,1900.14 5377.24,1900.14L5361.23,1900.14C5360.7,1900.14 5360.19,1900.36 5359.82,1900.73C5359.44,1901.11 5359.23,1901.62 5359.23,1902.14L5359.23,1918.15C5359.23,1918.68 5359.44,1919.19 5359.82,1919.56C5360.19,1919.94 5360.7,1920.15 5361.23,1920.15L5377.24,1920.15C5377.77,1920.15 5378.28,1919.94 5378.65,1919.56C5379.03,1919.19 5379.24,1918.68 5379.24,1918.15L5379.24,1902.14ZM5409.25,1872.14C5409.25,1871.61 5409.04,1871.1 5408.67,1870.73C5408.29,1870.35 5407.78,1870.14 5407.25,1870.14C5403.42,1870.14 5395.08,1870.14 5391.25,1870.14C5390.72,1870.14 5390.21,1870.35 5389.83,1870.73C5389.46,1871.1 5389.25,1871.61 5389.25,1872.14L5389.25,1888.14C5389.25,1888.68 5389.46,1889.18 5389.83,1889.56C5390.21,1889.93 5390.72,1890.14 5391.25,1890.14L5407.25,1890.14C5407.78,1890.14 5408.29,1889.93 5408.67,1889.56C5409.04,1889.18 5409.25,1888.68 5409.25,1888.14L5409.25,1872.14ZM5379.25,1872.14C5379.25,1871.61 5379.04,1871.1 5378.66,1870.73C5378.29,1870.35 5377.78,1870.14 5377.25,1870.14L5361.24,1870.14C5360.71,1870.14 5360.2,1870.35 5359.83,1870.73C5359.45,1871.1 5359.24,1871.61 5359.24,1872.14L5359.24,1888.14C5359.24,1888.68 5359.45,1889.18 5359.83,1889.56C5360.2,1889.93 5360.71,1890.14 5361.24,1890.14C5365.08,1890.14 5373.41,1890.14 5377.25,1890.14C5377.78,1890.14 5378.29,1889.93 5378.66,1889.56C5379.04,1889.18 5379.25,1888.68 5379.25,1888.14C5379.25,1884.31 5379.25,1875.98 5379.25,1872.14ZM5319.24,1872.14C5319.24,1871.61 5319.03,1871.1 5318.65,1870.73C5318.28,1870.35 5317.77,1870.14 5317.24,1870.14L5301.23,1870.14C5300.7,1870.14 5300.19,1870.35 5299.82,1870.73C5299.44,1871.1 5299.23,1871.61 5299.23,1872.14L5299.23,1888.14C5299.23,1888.68 5299.44,1889.18 5299.82,1889.56C5300.19,1889.93 5300.7,1890.14 5301.23,1890.14L5317.24,1890.14C5317.77,1890.14 5318.28,1889.93 5318.65,1889.56C5319.03,1889.18 5319.24,1888.68 5319.24,1888.14L5319.24,1872.14ZM5349.24,1872.14C5349.24,1871.61 5349.03,1871.1 5348.66,1870.73C5348.28,1870.35 5347.77,1870.14 5347.24,1870.14L5331.24,1870.14C5330.71,1870.14 5330.2,1870.35 5329.82,1870.73C5329.45,1871.1 5329.24,1871.61 5329.24,1872.14L5329.24,1888.14C5329.24,1888.68 5329.45,1889.18 5329.82,1889.56C5330.2,1889.93 5330.71,1890.14 5331.24,1890.14L5347.24,1890.14C5347.77,1890.14 5348.28,1889.93 5348.66,1889.56C5349.03,1889.18 5349.24,1888.68 5349.24,1888.14L5349.24,1872.14Z" style="fill:rgb(45,54,96);fill-opacity:0.15;"/>
            </g>
            <g transform="matrix(0.400872,0,0,0.41181,3317.42,1091.04)">
                <path d="M5587.53,1816.38C5587.53,1813.16 5586.22,1810.07 5583.88,1807.79C5581.54,1805.52 5578.37,1804.24 5575.06,1804.24C5523.5,1804.24 5327.27,1804.24 5275.71,1804.24C5272.4,1804.24 5269.23,1805.52 5266.89,1807.79C5264.55,1810.07 5263.24,1813.16 5263.24,1816.38C5263.24,1891.48 5263.24,2289.51 5263.24,2289.51L5587.53,2289.51C5587.53,2289.51 5587.53,1891.48 5587.53,1816.38Z" style="fill:rgb(204,206,219);fill-opacity:0.4;"/>
            </g>
            <g transform="matrix(1,0,0,1,0.754384,0.491517)">
                <path d="M5486.56,1965.56C5486.56,1965.03 5486.35,1964.52 5485.97,1964.15C5485.6,1963.77 5485.09,1963.56 5484.56,1963.56L5468.56,1963.56C5468.03,1963.56 5467.52,1963.77 5467.14,1964.15C5466.77,1964.52 5466.56,1965.03 5466.56,1965.56L5466.56,1981.57C5466.56,1982.1 5466.77,1982.61 5467.14,1982.98C5467.52,1983.36 5468.03,1983.57 5468.56,1983.57L5484.56,1983.57C5485.09,1983.57 5485.6,1983.36 5485.97,1982.98C5486.35,1982.61 5486.56,1982.1 5486.56,1981.57L5486.56,1965.56ZM5456.55,1965.56C5456.55,1965.03 5456.34,1964.52 5455.97,1964.15C5455.59,1963.77 5455.08,1963.56 5454.55,1963.56L5438.55,1963.56C5438.02,1963.56 5437.51,1963.77 5437.14,1964.15C5436.76,1964.52 5436.55,1965.03 5436.55,1965.56L5436.55,1981.57C5436.55,1982.1 5436.76,1982.61 5437.14,1982.98C5437.51,1983.36 5438.02,1983.57 5438.55,1983.57L5454.55,1983.57C5455.08,1983.57 5455.59,1983.36 5455.97,1982.98C5456.34,1982.61 5456.55,1982.1 5456.55,1981.57L5456.55,1965.56ZM5516.56,1965.56C5516.56,1965.03 5516.35,1964.52 5515.98,1964.15C5515.6,1963.77 5515.09,1963.56 5514.56,1963.56L5498.56,1963.56C5498.03,1963.56 5497.52,1963.77 5497.15,1964.15C5496.77,1964.52 5496.56,1965.03 5496.56,1965.56C5496.56,1969.39 5496.56,1977.73 5496.56,1981.57C5496.56,1982.1 5496.77,1982.61 5497.15,1982.98C5497.52,1983.36 5498.03,1983.57 5498.56,1983.57L5514.56,1983.57C5515.09,1983.57 5515.6,1983.36 5515.98,1982.98C5516.35,1982.61 5516.56,1982.1 5516.56,1981.57L5516.56,1965.56ZM5546.57,1965.56C5546.57,1965.03 5546.36,1964.52 5545.98,1964.15C5545.61,1963.77 5545.1,1963.56 5544.57,1963.56L5528.57,1963.56C5528.03,1963.56 5527.53,1963.77 5527.15,1964.15C5526.78,1964.52 5526.57,1965.03 5526.57,1965.56L5526.57,1981.57C5526.57,1982.1 5526.78,1982.61 5527.15,1982.98C5527.53,1983.36 5528.03,1983.57 5528.57,1983.57L5544.57,1983.57C5545.1,1983.57 5545.61,1983.36 5545.98,1982.98C5546.36,1982.61 5546.57,1982.1 5546.57,1981.57L5546.57,1965.56ZM5486.56,1935.56C5486.56,1935.03 5486.35,1934.52 5485.97,1934.14C5485.6,1933.77 5485.09,1933.56 5484.56,1933.56L5468.56,1933.56C5468.03,1933.56 5467.52,1933.77 5467.14,1934.14C5466.77,1934.52 5466.56,1935.03 5466.56,1935.56L5466.56,1951.56C5466.56,1952.09 5466.77,1952.6 5467.14,1952.98C5467.52,1953.35 5468.03,1953.56 5468.56,1953.56C5472.39,1953.56 5480.73,1953.56 5484.56,1953.56C5485.09,1953.56 5485.6,1953.35 5485.97,1952.98C5486.35,1952.6 5486.56,1952.09 5486.56,1951.56L5486.56,1935.56ZM5546.57,1935.56C5546.57,1935.03 5546.36,1934.52 5545.98,1934.14C5545.61,1933.77 5545.1,1933.56 5544.57,1933.56C5540.74,1933.56 5532.4,1933.56 5528.57,1933.56C5528.03,1933.56 5527.53,1933.77 5527.15,1934.14C5526.78,1934.52 5526.57,1935.03 5526.57,1935.56L5526.57,1951.56C5526.57,1952.09 5526.78,1952.6 5527.15,1952.98C5527.53,1953.35 5528.03,1953.56 5528.57,1953.56C5532.4,1953.56 5540.74,1953.56 5544.57,1953.56C5545.1,1953.56 5545.61,1953.35 5545.98,1952.98C5546.36,1952.6 5546.57,1952.09 5546.57,1951.56L5546.57,1935.56ZM5456.55,1935.56C5456.55,1935.03 5456.34,1934.52 5455.97,1934.14C5455.59,1933.77 5455.08,1933.56 5454.55,1933.56L5438.55,1933.56C5438.02,1933.56 5437.51,1933.77 5437.14,1934.14C5436.76,1934.52 5436.55,1935.03 5436.55,1935.56L5436.55,1951.56C5436.55,1952.09 5436.76,1952.6 5437.14,1952.98C5437.51,1953.35 5438.02,1953.56 5438.55,1953.56L5454.55,1953.56C5455.08,1953.56 5455.59,1953.35 5455.97,1952.98C5456.34,1952.6 5456.55,1952.09 5456.55,1951.56L5456.55,1935.56ZM5516.56,1935.56C5516.56,1935.03 5516.35,1934.52 5515.98,1934.14C5515.6,1933.77 5515.09,1933.56 5514.56,1933.56L5498.56,1933.56C5498.03,1933.56 5497.52,1933.77 5497.15,1934.14C5496.77,1934.52 5496.56,1935.03 5496.56,1935.56L5496.56,1951.56C5496.56,1952.09 5496.77,1952.6 5497.15,1952.98C5497.52,1953.35 5498.03,1953.56 5498.56,1953.56L5514.56,1953.56C5515.09,1953.56 5515.6,1953.35 5515.98,1952.98C5516.35,1952.6 5516.56,1952.09 5516.56,1951.56L5516.56,1935.56ZM5486.56,1905.56C5486.56,1905.03 5486.35,1904.52 5485.97,1904.14C5485.6,1903.77 5485.09,1903.56 5484.56,1903.56L5468.56,1903.56C5468.03,1903.56 5467.52,1903.77 5467.14,1904.14C5466.77,1904.52 5466.56,1905.03 5466.56,1905.56L5466.56,1921.56C5466.56,1922.09 5466.77,1922.6 5467.14,1922.97C5467.52,1923.35 5468.03,1923.56 5468.56,1923.56L5484.56,1923.56C5485.09,1923.56 5485.6,1923.35 5485.97,1922.97C5486.35,1922.6 5486.56,1922.09 5486.56,1921.56L5486.56,1905.56ZM5546.57,1905.56C5546.57,1905.03 5546.36,1904.52 5545.98,1904.14C5545.61,1903.77 5545.1,1903.56 5544.57,1903.56L5528.57,1903.56C5528.03,1903.56 5527.53,1903.77 5527.15,1904.14C5526.78,1904.52 5526.57,1905.03 5526.57,1905.56L5526.57,1921.56C5526.57,1922.09 5526.78,1922.6 5527.15,1922.97C5527.53,1923.35 5528.03,1923.56 5528.57,1923.56L5544.57,1923.56C5545.1,1923.56 5545.61,1923.35 5545.98,1922.97C5546.36,1922.6 5546.57,1922.09 5546.57,1921.56L5546.57,1905.56ZM5456.55,1905.56C5456.55,1905.03 5456.34,1904.52 5455.97,1904.14C5455.59,1903.77 5455.08,1903.56 5454.55,1903.56L5438.55,1903.56C5438.02,1903.56 5437.51,1903.77 5437.14,1904.14C5436.76,1904.52 5436.55,1905.03 5436.55,1905.56L5436.55,1921.56C5436.55,1922.09 5436.76,1922.6 5437.14,1922.97C5437.51,1923.35 5438.02,1923.56 5438.55,1923.56L5454.55,1923.56C5455.08,1923.56 5455.59,1923.35 5455.97,1922.97C5456.34,1922.6 5456.55,1922.09 5456.55,1921.56L5456.55,1905.56ZM5516.56,1905.56C5516.56,1905.03 5516.35,1904.52 5515.98,1904.14C5515.6,1903.77 5515.09,1903.56 5514.56,1903.56L5498.56,1903.56C5498.03,1903.56 5497.52,1903.77 5497.15,1904.14C5496.77,1904.52 5496.56,1905.03 5496.56,1905.56L5496.56,1921.56C5496.56,1922.09 5496.77,1922.6 5497.15,1922.97C5497.52,1923.35 5498.03,1923.56 5498.56,1923.56L5514.56,1923.56C5515.09,1923.56 5515.6,1923.35 5515.98,1922.97C5516.35,1922.6 5516.56,1922.09 5516.56,1921.56L5516.56,1905.56ZM5456.54,1875.55C5456.54,1875.02 5456.33,1874.51 5455.96,1874.14C5455.58,1873.76 5455.07,1873.55 5454.54,1873.55L5438.54,1873.55C5438.01,1873.55 5437.5,1873.76 5437.12,1874.14C5436.75,1874.51 5436.54,1875.02 5436.54,1875.55L5436.54,1891.56C5436.54,1892.09 5436.75,1892.6 5437.12,1892.97C5437.5,1893.35 5438.01,1893.56 5438.54,1893.56C5442.37,1893.56 5450.71,1893.56 5454.54,1893.56C5455.07,1893.56 5455.58,1893.35 5455.96,1892.97C5456.33,1892.6 5456.54,1892.09 5456.54,1891.56L5456.54,1875.55ZM5516.55,1875.55C5516.55,1875.02 5516.34,1874.51 5515.97,1874.14C5515.59,1873.76 5515.08,1873.55 5514.55,1873.55L5498.55,1873.55C5498.02,1873.55 5497.51,1873.76 5497.14,1874.14C5496.76,1874.51 5496.55,1875.02 5496.55,1875.55L5496.55,1891.56C5496.55,1892.09 5496.76,1892.6 5497.14,1892.97C5497.51,1893.35 5498.02,1893.56 5498.55,1893.56L5514.55,1893.56C5515.08,1893.56 5515.59,1893.35 5515.97,1892.97C5516.34,1892.6 5516.55,1892.09 5516.55,1891.56L5516.55,1875.55ZM5486.55,1875.55C5486.55,1875.02 5486.34,1874.51 5485.96,1874.14C5485.59,1873.76 5485.08,1873.55 5484.55,1873.55L5468.54,1873.55C5468.01,1873.55 5467.51,1873.76 5467.13,1874.14C5466.76,1874.51 5466.54,1875.02 5466.54,1875.55L5466.54,1891.56C5466.54,1892.09 5466.76,1892.6 5467.13,1892.97C5467.51,1893.35 5468.01,1893.56 5468.54,1893.56L5484.55,1893.56C5485.08,1893.56 5485.59,1893.35 5485.96,1892.97C5486.34,1892.6 5486.55,1892.09 5486.55,1891.56C5486.55,1887.72 5486.55,1879.38 5486.55,1875.55ZM5546.56,1875.55C5546.56,1875.02 5546.35,1874.51 5545.97,1874.14C5545.6,1873.76 5545.09,1873.55 5544.56,1873.55L5528.55,1873.55C5528.02,1873.55 5527.52,1873.76 5527.14,1874.14C5526.77,1874.51 5526.55,1875.02 5526.55,1875.55L5526.55,1891.56C5526.55,1892.09 5526.77,1892.6 5527.14,1892.97C5527.52,1893.35 5528.02,1893.56 5528.55,1893.56L5544.56,1893.56C5545.09,1893.56 5545.6,1893.35 5545.97,1892.97C5546.35,1892.6 5546.56,1892.09 5546.56,1891.56L5546.56,1875.55ZM5486.56,1845.55C5486.56,1845.02 5486.35,1844.51 5485.97,1844.13C5485.6,1843.76 5485.09,1843.55 5484.56,1843.55L5468.56,1843.55C5468.03,1843.55 5467.52,1843.76 5467.14,1844.13C5466.77,1844.51 5466.56,1845.02 5466.56,1845.55L5466.56,1861.55C5466.56,1862.08 5466.77,1862.59 5467.14,1862.97C5467.52,1863.34 5468.03,1863.55 5468.56,1863.55L5484.56,1863.55C5485.09,1863.55 5485.6,1863.34 5485.97,1862.97C5486.35,1862.59 5486.56,1862.08 5486.56,1861.55L5486.56,1845.55ZM5546.57,1845.55C5546.57,1845.02 5546.36,1844.51 5545.98,1844.13C5545.61,1843.76 5545.1,1843.55 5544.57,1843.55C5540.74,1843.55 5532.4,1843.55 5528.57,1843.55C5528.03,1843.55 5527.53,1843.76 5527.15,1844.13C5526.78,1844.51 5526.57,1845.02 5526.57,1845.55L5526.57,1861.55C5526.57,1862.08 5526.78,1862.59 5527.15,1862.97C5527.53,1863.34 5528.03,1863.55 5528.57,1863.55L5544.57,1863.55C5545.1,1863.55 5545.61,1863.34 5545.98,1862.97C5546.36,1862.59 5546.57,1862.08 5546.57,1861.55L5546.57,1845.55ZM5456.55,1845.55C5456.55,1845.02 5456.34,1844.51 5455.97,1844.13C5455.59,1843.76 5455.08,1843.55 5454.55,1843.55L5438.55,1843.55C5438.02,1843.55 5437.51,1843.76 5437.14,1844.13C5436.76,1844.51 5436.55,1845.02 5436.55,1845.55L5436.55,1861.55C5436.55,1862.08 5436.76,1862.59 5437.14,1862.97C5437.51,1863.34 5438.02,1863.55 5438.55,1863.55L5454.55,1863.55C5455.08,1863.55 5455.59,1863.34 5455.97,1862.97C5456.34,1862.59 5456.55,1862.08 5456.55,1861.55L5456.55,1845.55ZM5516.56,1845.55C5516.56,1845.02 5516.35,1844.51 5515.98,1844.13C5515.6,1843.76 5515.09,1843.55 5514.56,1843.55L5498.56,1843.55C5498.03,1843.55 5497.52,1843.76 5497.15,1844.13C5496.77,1844.51 5496.56,1845.02 5496.56,1845.55L5496.56,1861.55C5496.56,1862.08 5496.77,1862.59 5497.15,1862.97C5497.52,1863.34 5498.03,1863.55 5498.56,1863.55L5514.56,1863.55C5515.09,1863.55 5515.6,1863.34 5515.98,1862.97C5516.35,1862.59 5516.56,1862.08 5516.56,1861.55L5516.56,1845.55Z" style="fill:rgb(45,54,96);fill-opacity:0.15;"/>
            </g>
            <g transform="matrix(0.400872,0,0,0.290625,3359.65,1393.74)">
                <path d="M5587.53,1821.44C5587.53,1816.88 5586.22,1812.5 5583.88,1809.28C5581.54,1806.05 5578.37,1804.24 5575.06,1804.24C5523.5,1804.24 5327.27,1804.24 5275.71,1804.24C5272.4,1804.24 5269.23,1806.05 5266.89,1809.28C5264.55,1812.5 5263.24,1816.88 5263.24,1821.44C5263.24,1907.76 5263.24,2289.51 5263.24,2289.51L5587.53,2289.51C5587.53,2289.51 5587.53,1907.76 5587.53,1821.44Z" style="fill:rgb(204,206,219);"/>
            </g>
            <g transform="matrix(1,0,0,1,0.754384,0.491517)">
                <path d="M5588.78,1959.6C5588.78,1959.07 5588.57,1958.56 5588.2,1958.19C5587.82,1957.81 5587.31,1957.6 5586.78,1957.6L5570.78,1957.6C5570.25,1957.6 5569.74,1957.81 5569.37,1958.19C5568.99,1958.56 5568.78,1959.07 5568.78,1959.6C5568.78,1963.43 5568.78,1971.77 5568.78,1975.6C5568.78,1976.13 5568.99,1976.64 5569.37,1977.02C5569.74,1977.39 5570.25,1977.6 5570.78,1977.6L5586.78,1977.6C5587.31,1977.6 5587.82,1977.39 5588.2,1977.02C5588.57,1976.64 5588.78,1976.13 5588.78,1975.6L5588.78,1959.6ZM5558.78,1959.6C5558.78,1959.07 5558.57,1958.56 5558.2,1958.19C5557.82,1957.81 5557.31,1957.6 5556.78,1957.6L5540.78,1957.6C5540.25,1957.6 5539.74,1957.81 5539.37,1958.19C5538.99,1958.56 5538.78,1959.07 5538.78,1959.6L5538.78,1975.6C5538.78,1976.13 5538.99,1976.64 5539.37,1977.02C5539.74,1977.39 5540.25,1977.6 5540.78,1977.6C5544.61,1977.6 5552.95,1977.6 5556.78,1977.6C5557.31,1977.6 5557.82,1977.39 5558.2,1977.02C5558.57,1976.64 5558.78,1976.13 5558.78,1975.6L5558.78,1959.6ZM5498.78,1959.6C5498.78,1959.07 5498.57,1958.56 5498.2,1958.19C5497.82,1957.81 5497.31,1957.6 5496.78,1957.6L5480.78,1957.6C5480.25,1957.6 5479.74,1957.81 5479.37,1958.19C5478.99,1958.56 5478.78,1959.07 5478.78,1959.6L5478.78,1975.6C5478.78,1976.13 5478.99,1976.64 5479.37,1977.02C5479.74,1977.39 5480.25,1977.6 5480.78,1977.6C5484.61,1977.6 5492.95,1977.6 5496.78,1977.6C5497.31,1977.6 5497.82,1977.39 5498.2,1977.02C5498.57,1976.64 5498.78,1976.13 5498.78,1975.6L5498.78,1959.6ZM5528.78,1959.6C5528.78,1959.07 5528.57,1958.56 5528.2,1958.19C5527.82,1957.81 5527.31,1957.6 5526.78,1957.6L5510.78,1957.6C5510.25,1957.6 5509.74,1957.81 5509.37,1958.19C5508.99,1958.56 5508.78,1959.07 5508.78,1959.6L5508.78,1975.6C5508.78,1976.13 5508.99,1976.64 5509.37,1977.02C5509.74,1977.39 5510.25,1977.6 5510.78,1977.6C5514.61,1977.6 5522.95,1977.6 5526.78,1977.6C5527.31,1977.6 5527.82,1977.39 5528.2,1977.02C5528.57,1976.64 5528.78,1976.13 5528.78,1975.6L5528.78,1959.6ZM5588.78,1929.6C5588.78,1929.07 5588.57,1928.56 5588.2,1928.19C5587.82,1927.81 5587.31,1927.6 5586.78,1927.6L5570.78,1927.6C5570.25,1927.6 5569.74,1927.81 5569.37,1928.19C5568.99,1928.56 5568.78,1929.07 5568.78,1929.6C5568.78,1933.43 5568.78,1941.77 5568.78,1945.6C5568.78,1946.13 5568.99,1946.64 5569.37,1947.02C5569.74,1947.39 5570.25,1947.6 5570.78,1947.6L5586.78,1947.6C5587.31,1947.6 5587.82,1947.39 5588.2,1947.02C5588.57,1946.64 5588.78,1946.13 5588.78,1945.6C5588.78,1941.77 5588.78,1933.43 5588.78,1929.6ZM5498.78,1929.6C5498.78,1929.07 5498.57,1928.56 5498.2,1928.19C5497.82,1927.81 5497.31,1927.6 5496.78,1927.6C5492.95,1927.6 5484.61,1927.6 5480.78,1927.6C5480.25,1927.6 5479.74,1927.81 5479.37,1928.19C5478.99,1928.56 5478.78,1929.07 5478.78,1929.6L5478.78,1945.6C5478.78,1946.13 5478.99,1946.64 5479.37,1947.02C5479.74,1947.39 5480.25,1947.6 5480.78,1947.6L5496.78,1947.6C5497.31,1947.6 5497.82,1947.39 5498.2,1947.02C5498.57,1946.64 5498.78,1946.13 5498.78,1945.6L5498.78,1929.6ZM5528.78,1929.6C5528.78,1929.07 5528.57,1928.56 5528.2,1928.19C5527.82,1927.81 5527.31,1927.6 5526.78,1927.6C5522.95,1927.6 5514.61,1927.6 5510.78,1927.6C5510.25,1927.6 5509.74,1927.81 5509.37,1928.19C5508.99,1928.56 5508.78,1929.07 5508.78,1929.6L5508.78,1945.6C5508.78,1946.13 5508.99,1946.64 5509.37,1947.02C5509.74,1947.39 5510.25,1947.6 5510.78,1947.6L5526.78,1947.6C5527.31,1947.6 5527.82,1947.39 5528.2,1947.02C5528.57,1946.64 5528.78,1946.13 5528.78,1945.6L5528.78,1929.6ZM5558.78,1929.6C5558.78,1929.07 5558.57,1928.56 5558.2,1928.19C5557.82,1927.81 5557.31,1927.6 5556.78,1927.6L5540.78,1927.6C5540.25,1927.6 5539.74,1927.81 5539.37,1928.19C5538.99,1928.56 5538.78,1929.07 5538.78,1929.6L5538.78,1945.6C5538.78,1946.13 5538.99,1946.64 5539.37,1947.02C5539.74,1947.39 5540.25,1947.6 5540.78,1947.6L5556.78,1947.6C5557.31,1947.6 5557.82,1947.39 5558.2,1947.02C5558.57,1946.64 5558.78,1946.13 5558.78,1945.6L5558.78,1929.6Z" style="fill:rgb(45,54,96);fill-opacity:0.45;"/>
            </g>
            <g transform="matrix(0.215854,0,0,0.259067,4237.67,1412.77)">
                <path d="M5587.53,1823.54C5587.53,1812.88 5577.16,1804.24 5564.37,1804.24C5504.67,1804.24 5346.1,1804.24 5286.4,1804.24C5273.61,1804.24 5263.24,1812.88 5263.24,1823.54C5263.24,1913.75 5263.24,2289.51 5263.24,2289.51L5587.53,2289.51L5587.53,1823.54Z" style="fill:rgb(204,206,219);"/>
            </g>
            <g transform="matrix(1,0,0,1,0.754384,0.491517)">
                <path d="M5403.01,1951.69C5403.01,1951.16 5402.8,1950.65 5402.42,1950.28C5402.05,1949.9 5401.54,1949.69 5401.01,1949.69L5385.01,1949.69C5384.48,1949.69 5383.97,1949.9 5383.6,1950.28C5383.22,1950.65 5383.01,1951.16 5383.01,1951.69L5383.01,1967.69C5383.01,1968.22 5383.22,1968.73 5383.6,1969.11C5383.97,1969.48 5384.48,1969.69 5385.01,1969.69C5388.84,1969.69 5397.18,1969.69 5401.01,1969.69C5401.54,1969.69 5402.05,1969.48 5402.42,1969.11C5402.8,1968.73 5403.01,1968.22 5403.01,1967.69L5403.01,1951.69ZM5433.01,1951.69C5433.01,1951.16 5432.8,1950.65 5432.42,1950.28C5432.05,1949.9 5431.54,1949.69 5431.01,1949.69C5427.18,1949.69 5418.84,1949.69 5415.01,1949.69C5414.48,1949.69 5413.97,1949.9 5413.6,1950.28C5413.22,1950.65 5413.01,1951.16 5413.01,1951.69L5413.01,1967.69C5413.01,1968.22 5413.22,1968.73 5413.6,1969.11C5413.97,1969.48 5414.48,1969.69 5415.01,1969.69C5418.84,1969.69 5427.18,1969.69 5431.01,1969.69C5431.54,1969.69 5432.05,1969.48 5432.42,1969.11C5432.8,1968.73 5433.01,1968.22 5433.01,1967.69L5433.01,1951.69ZM5403.01,1921.69C5403.01,1921.16 5402.8,1920.65 5402.42,1920.28C5402.05,1919.9 5401.54,1919.69 5401.01,1919.69L5385.01,1919.69C5384.48,1919.69 5383.97,1919.9 5383.6,1920.28C5383.22,1920.65 5383.01,1921.16 5383.01,1921.69L5383.01,1937.69C5383.01,1938.22 5383.22,1938.73 5383.6,1939.11C5383.97,1939.48 5384.48,1939.69 5385.01,1939.69C5388.84,1939.69 5397.18,1939.69 5401.01,1939.69C5401.54,1939.69 5402.05,1939.48 5402.42,1939.11C5402.8,1938.73 5403.01,1938.22 5403.01,1937.69L5403.01,1921.69ZM5433.01,1921.69C5433.01,1921.16 5432.8,1920.65 5432.42,1920.28C5432.05,1919.9 5431.54,1919.69 5431.01,1919.69C5427.18,1919.69 5418.84,1919.69 5415.01,1919.69C5414.48,1919.69 5413.97,1919.9 5413.6,1920.28C5413.22,1920.65 5413.01,1921.16 5413.01,1921.69L5413.01,1937.69C5413.01,1938.22 5413.22,1938.73 5413.6,1939.11C5413.97,1939.48 5414.48,1939.69 5415.01,1939.69C5418.84,1939.69 5427.18,1939.69 5431.01,1939.69C5431.54,1939.69 5432.05,1939.48 5432.42,1939.11C5432.8,1938.73 5433.01,1938.22 5433.01,1937.69L5433.01,1921.69ZM5403.01,1891.69C5403.01,1891.16 5402.8,1890.65 5402.42,1890.28C5402.05,1889.9 5401.54,1889.69 5401.01,1889.69L5385.01,1889.69C5384.48,1889.69 5383.97,1889.9 5383.6,1890.28C5383.22,1890.65 5383.01,1891.16 5383.01,1891.69L5383.01,1907.69C5383.01,1908.22 5383.22,1908.73 5383.6,1909.11C5383.97,1909.48 5384.48,1909.69 5385.01,1909.69L5401.01,1909.69C5401.54,1909.69 5402.05,1909.48 5402.42,1909.11C5402.8,1908.73 5403.01,1908.22 5403.01,1907.69L5403.01,1891.69ZM5433.01,1891.69C5433.01,1891.16 5432.8,1890.65 5432.42,1890.28C5432.05,1889.9 5431.54,1889.69 5431.01,1889.69C5427.18,1889.69 5418.84,1889.69 5415.01,1889.69C5414.48,1889.69 5413.97,1889.9 5413.6,1890.28C5413.22,1890.65 5413.01,1891.16 5413.01,1891.69L5413.01,1907.69C5413.01,1908.22 5413.22,1908.73 5413.6,1909.11C5413.97,1909.48 5414.48,1909.69 5415.01,1909.69L5431.01,1909.69C5431.54,1909.69 5432.05,1909.48 5432.42,1909.11C5432.8,1908.73 5433.01,1908.22 5433.01,1907.69L5433.01,1891.69Z" style="fill:rgb(45,54,96);fill-opacity:0.45;"/>
            </g>
            <g transform="matrix(0.400872,0,0,0.406455,3095.1,1100.7)">
                <path d="M5587.53,1816.54C5587.53,1813.28 5586.22,1810.15 5583.88,1807.84C5581.54,1805.53 5578.37,1804.24 5575.06,1804.24C5523.5,1804.24 5327.27,1804.24 5275.71,1804.24C5272.4,1804.24 5269.23,1805.53 5266.89,1807.84C5264.55,1810.15 5263.24,1813.28 5263.24,1816.54C5263.24,1892.04 5263.24,2289.51 5263.24,2289.51L5587.53,2289.51L5587.53,1816.54Z" style="fill:rgb(204,206,219);"/>
            </g>
            <g transform="matrix(1,0,0,1,0.754384,0.491517)">
                <path d="M5264.24,1935.56C5264.24,1935.03 5264.03,1934.52 5263.66,1934.14C5263.28,1933.77 5262.77,1933.56 5262.24,1933.56C5258.41,1933.56 5250.07,1933.56 5246.24,1933.56C5245.71,1933.56 5245.2,1933.77 5244.83,1934.14C5244.45,1934.52 5244.24,1935.03 5244.24,1935.56C5244.24,1939.39 5244.24,1947.73 5244.24,1951.56C5244.24,1952.09 5244.45,1952.6 5244.83,1952.98C5245.2,1953.35 5245.71,1953.56 5246.24,1953.56C5250.07,1953.56 5258.41,1953.56 5262.24,1953.56C5262.77,1953.56 5263.28,1953.35 5263.66,1952.98C5264.03,1952.6 5264.24,1952.09 5264.24,1951.56L5264.24,1935.56ZM5294.25,1935.56C5294.25,1935.03 5294.04,1934.52 5293.66,1934.14C5293.29,1933.77 5292.78,1933.56 5292.25,1933.56L5276.24,1933.56C5275.72,1933.56 5275.21,1933.77 5274.83,1934.14C5274.46,1934.52 5274.24,1935.03 5274.24,1935.56L5274.24,1951.56C5274.24,1952.09 5274.46,1952.6 5274.83,1952.98C5275.21,1953.35 5275.72,1953.56 5276.24,1953.56C5280.08,1953.56 5288.42,1953.56 5292.25,1953.56C5292.78,1953.56 5293.29,1953.35 5293.66,1952.98C5294.04,1952.6 5294.25,1952.09 5294.25,1951.56L5294.25,1935.56ZM5234.24,1935.56C5234.24,1935.03 5234.03,1934.52 5233.65,1934.14C5233.28,1933.77 5232.77,1933.56 5232.24,1933.56L5216.23,1933.56C5215.7,1933.56 5215.2,1933.77 5214.82,1934.14C5214.45,1934.52 5214.23,1935.03 5214.23,1935.56L5214.23,1951.56C5214.23,1952.09 5214.45,1952.6 5214.82,1952.98C5215.2,1953.35 5215.7,1953.56 5216.23,1953.56L5232.24,1953.56C5232.77,1953.56 5233.28,1953.35 5233.65,1952.98C5234.03,1952.6 5234.24,1952.09 5234.24,1951.56L5234.24,1935.56ZM5324.25,1935.56C5324.25,1935.03 5324.04,1934.52 5323.67,1934.14C5323.29,1933.77 5322.78,1933.56 5322.25,1933.56L5306.25,1933.56C5305.72,1933.56 5305.21,1933.77 5304.84,1934.14C5304.46,1934.52 5304.25,1935.03 5304.25,1935.56L5304.25,1951.56C5304.25,1952.09 5304.46,1952.6 5304.84,1952.98C5305.21,1953.35 5305.72,1953.56 5306.25,1953.56L5322.25,1953.56C5322.78,1953.56 5323.29,1953.35 5323.67,1952.98C5324.04,1952.6 5324.25,1952.09 5324.25,1951.56L5324.25,1935.56ZM5264.24,1905.56C5264.24,1905.03 5264.03,1904.52 5263.66,1904.14C5263.28,1903.77 5262.77,1903.56 5262.24,1903.56L5246.24,1903.56C5245.71,1903.56 5245.2,1903.77 5244.83,1904.14C5244.45,1904.52 5244.24,1905.03 5244.24,1905.56C5244.24,1909.39 5244.24,1917.73 5244.24,1921.56C5244.24,1922.09 5244.45,1922.6 5244.83,1922.97C5245.2,1923.35 5245.71,1923.56 5246.24,1923.56L5262.24,1923.56C5262.77,1923.56 5263.28,1923.35 5263.66,1922.97C5264.03,1922.6 5264.24,1922.09 5264.24,1921.56L5264.24,1905.56ZM5294.25,1905.56C5294.25,1905.03 5294.04,1904.52 5293.66,1904.14C5293.29,1903.77 5292.78,1903.56 5292.25,1903.56L5276.24,1903.56C5275.72,1903.56 5275.21,1903.77 5274.83,1904.14C5274.46,1904.52 5274.24,1905.03 5274.24,1905.56L5274.24,1921.56C5274.24,1922.09 5274.46,1922.6 5274.83,1922.97C5275.21,1923.35 5275.72,1923.56 5276.24,1923.56L5292.25,1923.56C5292.78,1923.56 5293.29,1923.35 5293.66,1922.97C5294.04,1922.6 5294.25,1922.09 5294.25,1921.56L5294.25,1905.56ZM5234.24,1905.56C5234.24,1905.03 5234.03,1904.52 5233.65,1904.14C5233.28,1903.77 5232.77,1903.56 5232.24,1903.56L5216.23,1903.56C5215.7,1903.56 5215.2,1903.77 5214.82,1904.14C5214.45,1904.52 5214.23,1905.03 5214.23,1905.56L5214.23,1921.56C5214.23,1922.09 5214.45,1922.6 5214.82,1922.97C5215.2,1923.35 5215.7,1923.56 5216.23,1923.56L5232.24,1923.56C5232.77,1923.56 5233.28,1923.35 5233.65,1922.97C5234.03,1922.6 5234.24,1922.09 5234.24,1921.56L5234.24,1905.56ZM5324.25,1905.56C5324.25,1905.03 5324.04,1904.52 5323.67,1904.14C5323.29,1903.77 5322.78,1903.56 5322.25,1903.56C5318.42,1903.56 5310.08,1903.56 5306.25,1903.56C5305.72,1903.56 5305.21,1903.77 5304.84,1904.14C5304.46,1904.52 5304.25,1905.03 5304.25,1905.56L5304.25,1921.56C5304.25,1922.09 5304.46,1922.6 5304.84,1922.97C5305.21,1923.35 5305.72,1923.56 5306.25,1923.56L5322.25,1923.56C5322.78,1923.56 5323.29,1923.35 5323.67,1922.97C5324.04,1922.6 5324.25,1922.09 5324.25,1921.56L5324.25,1905.56ZM5324.24,1875.55C5324.24,1875.02 5324.03,1874.51 5323.66,1874.14C5323.28,1873.76 5322.77,1873.55 5322.24,1873.55L5306.24,1873.55C5305.71,1873.55 5305.2,1873.76 5304.82,1874.14C5304.45,1874.51 5304.24,1875.02 5304.24,1875.55L5304.24,1891.56C5304.24,1892.09 5304.45,1892.6 5304.82,1892.97C5305.2,1893.35 5305.71,1893.56 5306.24,1893.56L5322.24,1893.56C5322.77,1893.56 5323.28,1893.35 5323.66,1892.97C5324.03,1892.6 5324.24,1892.09 5324.24,1891.56L5324.24,1875.55ZM5234.23,1875.55C5234.23,1875.02 5234.02,1874.51 5233.64,1874.14C5233.27,1873.76 5232.76,1873.55 5232.23,1873.55L5216.22,1873.55C5215.69,1873.55 5215.18,1873.76 5214.81,1874.14C5214.43,1874.51 5214.22,1875.02 5214.22,1875.55L5214.22,1891.56C5214.22,1892.09 5214.43,1892.6 5214.81,1892.97C5215.18,1893.35 5215.69,1893.56 5216.22,1893.56L5232.23,1893.56C5232.76,1893.56 5233.27,1893.35 5233.64,1892.97C5234.02,1892.6 5234.23,1892.09 5234.23,1891.56L5234.23,1875.55ZM5264.23,1875.55C5264.23,1875.02 5264.02,1874.51 5263.65,1874.14C5263.27,1873.76 5262.76,1873.55 5262.23,1873.55L5246.23,1873.55C5245.7,1873.55 5245.19,1873.76 5244.82,1874.14C5244.44,1874.51 5244.23,1875.02 5244.23,1875.55C5244.23,1879.38 5244.23,1887.72 5244.23,1891.56C5244.23,1892.09 5244.44,1892.6 5244.82,1892.97C5245.19,1893.35 5245.7,1893.56 5246.23,1893.56L5262.23,1893.56C5262.76,1893.56 5263.27,1893.35 5263.65,1892.97C5264.02,1892.6 5264.23,1892.09 5264.23,1891.56L5264.23,1875.55ZM5294.24,1875.55C5294.24,1875.02 5294.03,1874.51 5293.65,1874.14C5293.28,1873.76 5292.77,1873.55 5292.24,1873.55L5276.23,1873.55C5275.7,1873.55 5275.19,1873.76 5274.82,1874.14C5274.44,1874.51 5274.23,1875.02 5274.23,1875.55L5274.23,1891.56C5274.23,1892.09 5274.44,1892.6 5274.82,1892.97C5275.19,1893.35 5275.7,1893.56 5276.23,1893.56L5292.24,1893.56C5292.77,1893.56 5293.28,1893.35 5293.65,1892.97C5294.03,1892.6 5294.24,1892.09 5294.24,1891.56C5294.24,1887.72 5294.24,1879.38 5294.24,1875.55ZM5264.24,1845.55C5264.24,1845.02 5264.03,1844.51 5263.66,1844.13C5263.28,1843.76 5262.77,1843.55 5262.24,1843.55L5246.24,1843.55C5245.71,1843.55 5245.2,1843.76 5244.83,1844.13C5244.45,1844.51 5244.24,1845.02 5244.24,1845.55C5244.24,1849.38 5244.24,1857.72 5244.24,1861.55C5244.24,1862.08 5244.45,1862.59 5244.83,1862.97C5245.2,1863.34 5245.71,1863.55 5246.24,1863.55L5262.24,1863.55C5262.77,1863.55 5263.28,1863.34 5263.66,1862.97C5264.03,1862.59 5264.24,1862.08 5264.24,1861.55L5264.24,1845.55ZM5294.25,1845.55C5294.25,1845.02 5294.04,1844.51 5293.66,1844.13C5293.29,1843.76 5292.78,1843.55 5292.25,1843.55L5276.24,1843.55C5275.72,1843.55 5275.21,1843.76 5274.83,1844.13C5274.46,1844.51 5274.24,1845.02 5274.24,1845.55L5274.24,1861.55C5274.24,1862.08 5274.46,1862.59 5274.83,1862.97C5275.21,1863.34 5275.72,1863.55 5276.24,1863.55C5280.08,1863.55 5288.42,1863.55 5292.25,1863.55C5292.78,1863.55 5293.29,1863.34 5293.66,1862.97C5294.04,1862.59 5294.25,1862.08 5294.25,1861.55L5294.25,1845.55ZM5234.24,1845.55C5234.24,1845.02 5234.03,1844.51 5233.65,1844.13C5233.28,1843.76 5232.77,1843.55 5232.24,1843.55L5216.23,1843.55C5215.7,1843.55 5215.2,1843.76 5214.82,1844.13C5214.45,1844.51 5214.23,1845.02 5214.23,1845.55L5214.23,1861.55C5214.23,1862.08 5214.45,1862.59 5214.82,1862.97C5215.2,1863.34 5215.7,1863.55 5216.23,1863.55L5232.24,1863.55C5232.77,1863.55 5233.28,1863.34 5233.65,1862.97C5234.03,1862.59 5234.24,1862.08 5234.24,1861.55L5234.24,1845.55ZM5324.25,1845.55C5324.25,1845.02 5324.04,1844.51 5323.67,1844.13C5323.29,1843.76 5322.78,1843.55 5322.25,1843.55C5318.42,1843.55 5310.08,1843.55 5306.25,1843.55C5305.72,1843.55 5305.21,1843.76 5304.84,1844.13C5304.46,1844.51 5304.25,1845.02 5304.25,1845.55L5304.25,1861.55C5304.25,1862.08 5304.46,1862.59 5304.84,1862.97C5305.21,1863.34 5305.72,1863.55 5306.25,1863.55L5322.25,1863.55C5322.78,1863.55 5323.29,1863.34 5323.67,1862.97C5324.04,1862.59 5324.25,1862.08 5324.25,1861.55L5324.25,1845.55Z" style="fill:rgb(45,54,96);fill-opacity:0.45;"/>
            </g>
            <g transform="matrix(1,0,0,1,0.754384,120.505)">
                <path d="M5264.24,1935.56C5264.24,1935.03 5264.03,1934.52 5263.66,1934.14C5263.28,1933.77 5262.77,1933.56 5262.24,1933.56C5258.41,1933.56 5250.07,1933.56 5246.24,1933.56C5245.71,1933.56 5245.2,1933.77 5244.83,1934.14C5244.45,1934.52 5244.24,1935.03 5244.24,1935.56C5244.24,1939.39 5244.24,1947.73 5244.24,1951.56C5244.24,1952.09 5244.45,1952.6 5244.83,1952.98C5245.2,1953.35 5245.71,1953.56 5246.24,1953.56C5250.07,1953.56 5258.41,1953.56 5262.24,1953.56C5262.77,1953.56 5263.28,1953.35 5263.66,1952.98C5264.03,1952.6 5264.24,1952.09 5264.24,1951.56L5264.24,1935.56ZM5294.25,1935.56C5294.25,1935.03 5294.04,1934.52 5293.66,1934.14C5293.29,1933.77 5292.78,1933.56 5292.25,1933.56L5276.24,1933.56C5275.72,1933.56 5275.21,1933.77 5274.83,1934.14C5274.46,1934.52 5274.24,1935.03 5274.24,1935.56L5274.24,1951.56C5274.24,1952.09 5274.46,1952.6 5274.83,1952.98C5275.21,1953.35 5275.72,1953.56 5276.24,1953.56C5280.08,1953.56 5288.42,1953.56 5292.25,1953.56C5292.78,1953.56 5293.29,1953.35 5293.66,1952.98C5294.04,1952.6 5294.25,1952.09 5294.25,1951.56L5294.25,1935.56ZM5234.24,1935.56C5234.24,1935.03 5234.03,1934.52 5233.65,1934.14C5233.28,1933.77 5232.77,1933.56 5232.24,1933.56L5216.23,1933.56C5215.7,1933.56 5215.2,1933.77 5214.82,1934.14C5214.45,1934.52 5214.23,1935.03 5214.23,1935.56L5214.23,1951.56C5214.23,1952.09 5214.45,1952.6 5214.82,1952.98C5215.2,1953.35 5215.7,1953.56 5216.23,1953.56L5232.24,1953.56C5232.77,1953.56 5233.28,1953.35 5233.65,1952.98C5234.03,1952.6 5234.24,1952.09 5234.24,1951.56L5234.24,1935.56ZM5324.25,1935.56C5324.25,1935.03 5324.04,1934.52 5323.67,1934.14C5323.29,1933.77 5322.78,1933.56 5322.25,1933.56L5306.25,1933.56C5305.72,1933.56 5305.21,1933.77 5304.84,1934.14C5304.46,1934.52 5304.25,1935.03 5304.25,1935.56L5304.25,1951.56C5304.25,1952.09 5304.46,1952.6 5304.84,1952.98C5305.21,1953.35 5305.72,1953.56 5306.25,1953.56L5322.25,1953.56C5322.78,1953.56 5323.29,1953.35 5323.67,1952.98C5324.04,1952.6 5324.25,1952.09 5324.25,1951.56L5324.25,1935.56ZM5264.24,1905.56C5264.24,1905.03 5264.03,1904.52 5263.66,1904.14C5263.28,1903.77 5262.77,1903.56 5262.24,1903.56L5246.24,1903.56C5245.71,1903.56 5245.2,1903.77 5244.83,1904.14C5244.45,1904.52 5244.24,1905.03 5244.24,1905.56C5244.24,1909.39 5244.24,1917.73 5244.24,1921.56C5244.24,1922.09 5244.45,1922.6 5244.83,1922.97C5245.2,1923.35 5245.71,1923.56 5246.24,1923.56L5262.24,1923.56C5262.77,1923.56 5263.28,1923.35 5263.66,1922.97C5264.03,1922.6 5264.24,1922.09 5264.24,1921.56L5264.24,1905.56ZM5294.25,1905.56C5294.25,1905.03 5294.04,1904.52 5293.66,1904.14C5293.29,1903.77 5292.78,1903.56 5292.25,1903.56L5276.24,1903.56C5275.72,1903.56 5275.21,1903.77 5274.83,1904.14C5274.46,1904.52 5274.24,1905.03 5274.24,1905.56L5274.24,1921.56C5274.24,1922.09 5274.46,1922.6 5274.83,1922.97C5275.21,1923.35 5275.72,1923.56 5276.24,1923.56L5292.25,1923.56C5292.78,1923.56 5293.29,1923.35 5293.66,1922.97C5294.04,1922.6 5294.25,1922.09 5294.25,1921.56L5294.25,1905.56ZM5234.24,1905.56C5234.24,1905.03 5234.03,1904.52 5233.65,1904.14C5233.28,1903.77 5232.77,1903.56 5232.24,1903.56L5216.23,1903.56C5215.7,1903.56 5215.2,1903.77 5214.82,1904.14C5214.45,1904.52 5214.23,1905.03 5214.23,1905.56L5214.23,1921.56C5214.23,1922.09 5214.45,1922.6 5214.82,1922.97C5215.2,1923.35 5215.7,1923.56 5216.23,1923.56L5232.24,1923.56C5232.77,1923.56 5233.28,1923.35 5233.65,1922.97C5234.03,1922.6 5234.24,1922.09 5234.24,1921.56L5234.24,1905.56ZM5324.25,1905.56C5324.25,1905.03 5324.04,1904.52 5323.67,1904.14C5323.29,1903.77 5322.78,1903.56 5322.25,1903.56C5318.42,1903.56 5310.08,1903.56 5306.25,1903.56C5305.72,1903.56 5305.21,1903.77 5304.84,1904.14C5304.46,1904.52 5304.25,1905.03 5304.25,1905.56L5304.25,1921.56C5304.25,1922.09 5304.46,1922.6 5304.84,1922.97C5305.21,1923.35 5305.72,1923.56 5306.25,1923.56L5322.25,1923.56C5322.78,1923.56 5323.29,1923.35 5323.67,1922.97C5324.04,1922.6 5324.25,1922.09 5324.25,1921.56L5324.25,1905.56ZM5324.24,1875.55C5324.24,1875.02 5324.03,1874.51 5323.66,1874.14C5323.28,1873.76 5322.77,1873.55 5322.24,1873.55L5306.24,1873.55C5305.71,1873.55 5305.2,1873.76 5304.82,1874.14C5304.45,1874.51 5304.24,1875.02 5304.24,1875.55L5304.24,1891.56C5304.24,1892.09 5304.45,1892.6 5304.82,1892.97C5305.2,1893.35 5305.71,1893.56 5306.24,1893.56L5322.24,1893.56C5322.77,1893.56 5323.28,1893.35 5323.66,1892.97C5324.03,1892.6 5324.24,1892.09 5324.24,1891.56L5324.24,1875.55ZM5234.23,1875.55C5234.23,1875.02 5234.02,1874.51 5233.64,1874.14C5233.27,1873.76 5232.76,1873.55 5232.23,1873.55L5216.22,1873.55C5215.69,1873.55 5215.18,1873.76 5214.81,1874.14C5214.43,1874.51 5214.22,1875.02 5214.22,1875.55L5214.22,1891.56C5214.22,1892.09 5214.43,1892.6 5214.81,1892.97C5215.18,1893.35 5215.69,1893.56 5216.22,1893.56L5232.23,1893.56C5232.76,1893.56 5233.27,1893.35 5233.64,1892.97C5234.02,1892.6 5234.23,1892.09 5234.23,1891.56L5234.23,1875.55ZM5264.23,1875.55C5264.23,1875.02 5264.02,1874.51 5263.65,1874.14C5263.27,1873.76 5262.76,1873.55 5262.23,1873.55L5246.23,1873.55C5245.7,1873.55 5245.19,1873.76 5244.82,1874.14C5244.44,1874.51 5244.23,1875.02 5244.23,1875.55C5244.23,1879.38 5244.23,1887.72 5244.23,1891.56C5244.23,1892.09 5244.44,1892.6 5244.82,1892.97C5245.19,1893.35 5245.7,1893.56 5246.23,1893.56L5262.23,1893.56C5262.76,1893.56 5263.27,1893.35 5263.65,1892.97C5264.02,1892.6 5264.23,1892.09 5264.23,1891.56L5264.23,1875.55ZM5294.24,1875.55C5294.24,1875.02 5294.03,1874.51 5293.65,1874.14C5293.28,1873.76 5292.77,1873.55 5292.24,1873.55L5276.23,1873.55C5275.7,1873.55 5275.19,1873.76 5274.82,1874.14C5274.44,1874.51 5274.23,1875.02 5274.23,1875.55L5274.23,1891.56C5274.23,1892.09 5274.44,1892.6 5274.82,1892.97C5275.19,1893.35 5275.7,1893.56 5276.23,1893.56L5292.24,1893.56C5292.77,1893.56 5293.28,1893.35 5293.65,1892.97C5294.03,1892.6 5294.24,1892.09 5294.24,1891.56C5294.24,1887.72 5294.24,1879.38 5294.24,1875.55ZM5264.24,1845.55C5264.24,1845.02 5264.03,1844.51 5263.66,1844.13C5263.28,1843.76 5262.77,1843.55 5262.24,1843.55L5246.24,1843.55C5245.71,1843.55 5245.2,1843.76 5244.83,1844.13C5244.45,1844.51 5244.24,1845.02 5244.24,1845.55C5244.24,1849.38 5244.24,1857.72 5244.24,1861.55C5244.24,1862.08 5244.45,1862.59 5244.83,1862.97C5245.2,1863.34 5245.71,1863.55 5246.24,1863.55L5262.24,1863.55C5262.77,1863.55 5263.28,1863.34 5263.66,1862.97C5264.03,1862.59 5264.24,1862.08 5264.24,1861.55L5264.24,1845.55ZM5294.25,1845.55C5294.25,1845.02 5294.04,1844.51 5293.66,1844.13C5293.29,1843.76 5292.78,1843.55 5292.25,1843.55L5276.24,1843.55C5275.72,1843.55 5275.21,1843.76 5274.83,1844.13C5274.46,1844.51 5274.24,1845.02 5274.24,1845.55L5274.24,1861.55C5274.24,1862.08 5274.46,1862.59 5274.83,1862.97C5275.21,1863.34 5275.72,1863.55 5276.24,1863.55C5280.08,1863.55 5288.42,1863.55 5292.25,1863.55C5292.78,1863.55 5293.29,1863.34 5293.66,1862.97C5294.04,1862.59 5294.25,1862.08 5294.25,1861.55L5294.25,1845.55ZM5234.24,1845.55C5234.24,1845.02 5234.03,1844.51 5233.65,1844.13C5233.28,1843.76 5232.77,1843.55 5232.24,1843.55L5216.23,1843.55C5215.7,1843.55 5215.2,1843.76 5214.82,1844.13C5214.45,1844.51 5214.23,1845.02 5214.23,1845.55L5214.23,1861.55C5214.23,1862.08 5214.45,1862.59 5214.82,1862.97C5215.2,1863.34 5215.7,1863.55 5216.23,1863.55L5232.24,1863.55C5232.77,1863.55 5233.28,1863.34 5233.65,1862.97C5234.03,1862.59 5234.24,1862.08 5234.24,1861.55L5234.24,1845.55ZM5324.25,1845.55C5324.25,1845.02 5324.04,1844.51 5323.67,1844.13C5323.29,1843.76 5322.78,1843.55 5322.25,1843.55C5318.42,1843.55 5310.08,1843.55 5306.25,1843.55C5305.72,1843.55 5305.21,1843.76 5304.84,1844.13C5304.46,1844.51 5304.25,1845.02 5304.25,1845.55L5304.25,1861.55C5304.25,1862.08 5304.46,1862.59 5304.84,1862.97C5305.21,1863.34 5305.72,1863.55 5306.25,1863.55L5322.25,1863.55C5322.78,1863.55 5323.29,1863.34 5323.67,1862.97C5324.04,1862.59 5324.25,1862.08 5324.25,1861.55L5324.25,1845.55Z" style="fill:rgb(45,54,96);fill-opacity:0.45;"/>
            </g>
            <g transform="matrix(0.785098,0,0,1.02928,1036.74,-194.315)">
                <rect x="5309.49" y="2110.12" width="1208.31" height="208.351" style="fill:rgb(244,243,244);"/>
            </g>
            <g transform="matrix(1,0,0,1,11.2993,-2.27374e-13)">
                <g transform="matrix(1,0,0,1,-12.9934,-0.520128)">
                    <g transform="matrix(0.209415,0,0,0.499971,4256.16,1028.91)">
                        <path d="M6517.8,2120.12C6517.8,2117.47 6515.28,2114.92 6510.8,2113.05C6506.33,2111.17 6500.25,2110.12 6493.92,2110.12C6339.85,2110.12 5487.44,2110.12 5333.36,2110.12C5327.03,2110.12 5320.96,2111.17 5316.48,2113.05C5312.01,2114.92 5309.49,2117.47 5309.49,2120.12C5309.49,2155.32 5309.49,2273.27 5309.49,2308.47C5309.49,2311.12 5312.01,2313.67 5316.48,2315.54C5320.96,2317.42 5327.03,2318.47 5333.36,2318.47C5487.44,2318.47 6339.85,2318.47 6493.92,2318.47C6500.25,2318.47 6506.33,2317.42 6510.8,2315.54C6515.28,2313.67 6517.8,2311.12 6517.8,2308.47C6517.8,2273.27 6517.8,2155.32 6517.8,2120.12Z" style="fill:rgb(45,54,96);"/>
                    </g>
                    <g transform="matrix(0.705433,0,0,0.705433,1747.34,779.551)">
                        <text x="5132.58px" y="1983.61px" style="font-family:'OpenSans-Bold', 'Open Sans', sans-serif;font-weight:700;font-size:170.108px;fill:rgb(244,243,244);">NY<tspan x="5373.62px " y="1983.61px ">C</tspan></text>
                    </g>
                </g>
                <g transform="matrix(0.705433,0,0,0.705433,1723.58,673.944)">
                    <text x="5132.58px" y="1983.61px" style="font-family:'OpenSans-Bold', 'Open Sans', sans-serif;font-weight:700;font-size:170.108px;fill:rgb(45,54,96);">Housecall</text>
                </g>
                <g transform="matrix(0.705433,0,0,0.705433,2307.15,673.944)">
                    <text x="5132.58px" y="1983.61px" style="font-family:'OpenSans-Bold', 'Open Sans', sans-serif;font-weight:700;font-size:170.108px;fill:rgb(45,54,96);">V<tspan x="5239.73px 5340.23px " y="1983.61px 1983.61px ">et</tspan></text>
                </g>
            </g>
            <g transform="matrix(0.417284,0,0,0.417284,4970.8,1862.71)">
                <g transform="matrix(2.6731,0.94053,-1.1778,3.34746,-6481.19,-3176.13)">
                    <path d="M2715.46,316.456C2709.47,312.244 2706.32,309.087 2702.8,304.82C2697.65,298.601 2696.2,295.039 2693.01,289.96C2679.98,269.158 2657.74,249.998 2643.49,261.37C2634.85,268.273 2629.41,294.909 2626.64,313.283C2625.19,322.869 2625.78,333.782 2629.53,347.355C2631.87,355.82 2634.66,367.361 2645.83,381.192C2651.78,388.567 2660.67,395.013 2671.1,402.366C2677.97,407.213 2689.41,412.848 2696.39,416.049C2704.02,419.549 2717.79,423.438 2727.61,424.839C2739.78,426.574 2754.36,427.664 2766.26,427.288C2770.81,427.144 2786,425.837 2797.76,422.404C2807.81,419.47 2838.3,408.3 2836.76,405.098C2834.76,400.929 2811.59,351.076 2806.76,339.449C2803.45,331.489 2789.13,324.273 2779.69,322.369C2772.14,320.847 2760.37,322.768 2754.51,324.255C2748.92,325.673 2739.76,324.965 2736.89,324.778C2730.28,324.347 2723.04,321.79 2715.46,316.456Z" style="fill:rgb(45,54,96);"/>
                </g>
                <g transform="matrix(-2.6731,-0.94053,1.1778,-3.34746,7477.03,4174.5)">
                    <path d="M2715.46,316.456C2709.47,312.244 2706.32,309.087 2702.8,304.82C2697.65,298.601 2696.2,295.039 2693.01,289.96C2679.98,269.158 2657.74,249.998 2643.49,261.37C2634.85,268.273 2629.41,294.909 2626.64,313.283C2625.19,322.869 2625.78,333.782 2629.53,347.355C2631.87,355.82 2634.66,367.361 2645.83,381.192C2651.78,388.567 2660.67,395.013 2671.1,402.366C2677.97,407.213 2689.41,412.848 2696.39,416.049C2704.02,419.549 2717.79,423.438 2727.61,424.839C2739.78,426.574 2754.36,427.664 2766.26,427.288C2770.81,427.144 2786,425.837 2797.76,422.404C2807.81,419.47 2838.3,408.3 2836.76,405.098C2834.76,400.929 2811.59,351.076 2806.76,339.449C2803.45,331.489 2789.13,324.273 2779.69,322.369C2772.14,320.847 2763.38,321.614 2754.4,324.008C2745.75,326.315 2739.76,324.965 2736.89,324.778C2730.28,324.347 2723.04,321.79 2715.46,316.456Z" style="fill:rgb(244,243,244);"/>
                </g>
                <g transform="matrix(0.929443,0,0,0.929443,-3321.75,35.208)">
                    <path d="M4464.98,500.207C4464.73,511.544 4464.01,523.473 4462.29,538.379C4460.35,555.19 4458.73,569.07 4456.74,577.673C4449.59,608.601 4434.3,643.58 4409.73,685.789C4402.01,699.055 4388.65,718.894 4378.62,730.755C4333.73,783.882 4312.9,795.279 4229.08,830.771C4170.53,855.565 4101.56,868.199 4111.86,887.404C4127.48,916.497 4268.12,864.413 4305.32,844.738C4343.59,824.493 4382.56,785.792 4412.82,752.415C4440.22,722.202 4472.55,667.264 4486.42,629.297C4510.83,562.475 4510.92,520.997 4510.6,511.53C4510.52,509.281 4516.31,492.237 4510.95,479.94C4507.97,473.094 4502.76,464.29 4499.19,453.338C4495.21,441.092 4486.2,419.932 4477.15,410.494C4467.02,399.926 4453.43,390.854 4434.09,384.959C4410.03,377.626 4380.19,381.722 4361.13,388.75C4330.95,399.871 4316.1,421.953 4309.5,436.427C4300.61,455.944 4336.04,459.876 4341.61,450.148C4346.61,441.43 4352.39,435.081 4360.94,428.833C4372.02,420.741 4388.08,414.165 4407.58,415.983C4426.6,417.755 4442.56,427.235 4451.29,437.714C4460.57,448.832 4461.86,460.177 4463.78,470.355C4465.17,477.675 4465.19,490.251 4464.98,500.207Z" style="fill:rgb(45,54,96);"/>
                </g>
                <g transform="matrix(-0.929443,-1.13824e-16,1.13824e-16,-0.929443,4319.83,964.978)">
                    <path d="M4464.98,500.207C4464.73,511.544 4464.01,523.473 4462.29,538.379C4460.35,555.19 4458.73,569.07 4456.74,577.673C4449.59,608.601 4434.3,643.58 4409.73,685.789C4402.01,699.055 4388.65,718.894 4378.62,730.755C4333.73,783.882 4312.9,795.279 4229.08,830.771C4170.53,855.565 4101.56,868.199 4111.86,887.404C4127.48,916.497 4268.12,864.413 4305.32,844.738C4343.59,824.493 4382.56,785.792 4412.82,752.415C4440.22,722.202 4472.55,667.264 4486.42,629.297C4510.83,562.475 4510.92,520.997 4510.6,511.53C4510.52,509.281 4516.31,492.237 4510.95,479.94C4507.97,473.094 4502.76,464.29 4499.19,453.338C4495.21,441.092 4486.2,419.932 4477.15,410.494C4467.02,399.926 4453.43,390.854 4434.09,384.959C4410.03,377.626 4380.19,381.722 4361.13,388.75C4330.95,399.871 4316.1,421.953 4309.5,436.427C4300.61,455.944 4336.04,459.876 4341.61,450.148C4346.61,441.43 4352.39,435.081 4360.94,428.833C4372.02,420.741 4388.08,414.165 4407.58,415.983C4426.6,417.755 4442.56,427.235 4451.29,437.714C4460.57,448.832 4461.86,460.177 4463.78,470.355C4465.17,477.675 4465.19,490.251 4464.98,500.207Z" style="fill:rgb(244,243,244);"/>
                </g>
                <g transform="matrix(6.92033e-17,1.13018,-1.13018,6.92033e-17,1157.86,-230.176)">
                    <path d="M646.073,228.157C841.411,228.157 1000,386.746 1000,582.084C1000,777.422 841.411,936.011 646.073,936.011C450.735,936.011 292.146,777.422 292.146,582.084C292.146,386.746 450.735,228.157 646.073,228.157ZM646.073,263.55C821.877,263.55 964.607,406.28 964.607,582.084C964.607,757.888 821.877,900.618 646.073,900.618C470.269,900.618 327.538,757.888 327.538,582.084C327.538,406.28 470.269,263.55 646.073,263.55Z" style="fill:rgb(167,170,187);"/>
                </g>
                <g transform="matrix(-0.667667,-0.163046,0.163046,-0.667667,823.159,1018.16)">
                    <g transform="matrix(2.6731,0.94053,-0.94053,2.6731,-3829.73,-1900.13)">
                        <path d="M1767.41,225.249C1766.7,217.483 1732.54,221.525 1723.48,221.682C1719.17,221.757 1717.99,215.651 1715.63,211.406C1710.74,202.62 1707.55,196.869 1688.41,190.772C1671,185.225 1666.39,187.572 1656.57,187.045C1652.48,186.826 1652.29,182.131 1647.35,174.669C1641.61,166.001 1639.86,164.539 1635.42,164.775C1629.49,165.089 1623.88,198.397 1623.88,198.397C1623.88,198.397 1608.89,237.987 1617,264.023C1623.97,286.444 1632.97,305.04 1632.97,305.04L1662.87,306.207C1662.87,306.207 1683.36,277.866 1694.16,271.545C1703.86,265.872 1712.07,268.437 1727.72,268.281C1748.07,268.078 1768.12,233.015 1767.41,225.249Z" style="fill:rgb(244,243,244);"/>
                    </g>
                    <g transform="matrix(0.715954,-1.35994,9.56894,5.03767,-3887.98,2681.47)">
                        <path d="M2718.04,254.472C2720.6,254.33 2727.62,254.624 2728.86,256.827C2729.76,258.438 2715.17,258.886 2713.53,257.685C2709.93,255.038 2716.2,254.576 2718.04,254.472Z" style="fill:rgb(45,54,96);"/>
                    </g>
                    <g transform="matrix(0.514317,-1.23938,8.29948,3.4441,-3125.99,2683.01)">
                        <path d="M2743.98,248.254C2747.5,248.351 2790.6,249.132 2791.03,250.18C2791.26,250.731 2791.19,251.438 2777.8,252.913C2762.96,254.549 2750.54,255.391 2749.62,255.53C2747.23,255.89 2734.91,253.478 2733.57,251.241C2732.63,249.66 2741.69,248.191 2743.98,248.254Z" style="fill:rgb(226,228,235);"/>
                    </g>
                    <g transform="matrix(1.34055,0.0592926,-0.39705,8.97694,-2964.66,-2050.84)">
                        <path d="M2772.99,248.814C2786.11,249.553 2789.6,249.933 2790.13,250.414C2790.69,250.914 2789.15,251.251 2780.29,252.627C2777.74,253.023 2768.51,252.523 2766.23,251.315C2763.8,250.028 2770.05,248.648 2772.99,248.814Z" style="fill:rgb(45,54,96);"/>
                    </g>
                    <g transform="matrix(0.514317,-1.23938,8.29948,3.4441,-3043.71,2711.96)">
                        <path d="M2745.35,256.592C2745.03,256.608 2747.12,254.082 2747.72,251.645C2748.28,249.355 2747.33,247.142 2748.1,247.273C2749.13,247.449 2750.16,247.639 2752.83,247.874C2756.91,248.234 2764.43,248.325 2769.95,248.409C2781.57,248.586 2799.43,249.35 2795.91,250.631C2792.39,251.913 2765.84,255.527 2745.35,256.592Z" style="fill:rgb(226,228,235);"/>
                    </g>
                </g>
                <g transform="matrix(0.667667,0.163046,-0.163046,0.667667,172.813,-18.3998)">
                    <g transform="matrix(2.6731,0.94053,-0.94053,2.6731,-3829.73,-1900.13)">
                        <path d="M1738.75,247.717C1738.11,241.864 1727.85,237.265 1724.1,233.119C1721.21,229.922 1718.61,227.087 1716.25,222.843C1711.36,214.056 1707.55,196.869 1688.41,190.772C1671,185.225 1666.39,187.572 1656.57,187.045C1647.91,186.58 1637.05,164.458 1635.42,164.775C1633.65,165.117 1623.88,198.397 1623.88,198.397C1623.88,198.397 1608.89,237.987 1617,264.023C1623.97,286.444 1632.97,305.04 1632.97,305.04L1662.87,306.207C1662.87,306.207 1683.31,277.873 1694.16,271.545C1703.95,265.839 1720.55,272.206 1727.98,268.234C1734.79,264.594 1739.4,253.569 1738.75,247.717Z" style="fill:rgb(45,54,96);"/>
                    </g>
                    <g transform="matrix(0.993848,0.110751,-0.110751,0.993848,42.3839,-61.6941)">
                        <g transform="matrix(0.361466,-0.857341,1.24611,0.525377,-642.593,2464.77)">
                            <path d="M2540.23,122.705C2540.23,122.705 2542.73,198.126 2542.73,201.87C2542.73,205.614 2543.7,208.654 2539.95,208.654C2536.21,208.654 2537.17,205.614 2537.17,201.87C2537.17,198.126 2540.23,122.705 2540.23,122.705Z" style="fill:rgb(244,243,244);"/>
                        </g>
                        <g transform="matrix(0.505486,-0.781137,1.13535,0.734704,-980.311,2217.79)">
                            <path d="M2540.23,122.705C2540.23,122.705 2542.73,198.126 2542.73,201.87C2542.73,205.614 2543.7,208.654 2539.95,208.654C2536.21,208.654 2537.17,205.614 2537.17,201.87C2537.17,198.126 2540.23,122.705 2540.23,122.705Z" style="fill:rgb(244,243,244);"/>
                        </g>
                        <g transform="matrix(0.207475,-0.906998,1.31829,0.301556,-269.612,2648.14)">
                            <path d="M2540.23,122.705C2540.23,122.705 2542.73,198.126 2542.73,201.87C2542.73,205.614 2543.7,208.654 2539.95,208.654C2536.21,208.654 2537.17,205.614 2537.17,201.87C2537.17,198.126 2540.23,122.705 2540.23,122.705Z" style="fill:rgb(244,243,244);"/>
                        </g>
                    </g>
                    <g transform="matrix(1.05735,-2.00841,10.2321,5.38681,-4994.53,4380.34)">
                        <path d="M2718.27,254.665C2718.27,254.665 2724.36,256.553 2723.83,257.038C2723.3,257.523 2715.11,257.573 2715.11,257.573L2718.27,254.665Z" style="fill:rgb(244,243,244);"/>
                    </g>
                    <g transform="matrix(0.514317,-1.23938,8.29948,3.4441,-3125.99,2683.01)">
                        <path d="M2743.98,248.254C2747.5,248.351 2790.87,250.022 2790.97,250.139C2791.04,250.222 2768.41,252.387 2758.91,253.947C2753.69,254.804 2750.63,255.541 2749.71,255.68C2747.32,256.04 2734.91,253.478 2733.57,251.241C2732.63,249.66 2741.69,248.191 2743.98,248.254Z" style="fill:rgb(62,67,74);"/>
                    </g>
                    <g transform="matrix(0.514317,-1.23938,8.29948,3.4441,-3043.8,2711.62)">
                        <path d="M2746,256.169C2743.95,256.683 2746.51,247.002 2748.1,247.273C2749.13,247.449 2750.11,247.63 2752.75,247.921C2756.55,248.342 2759.87,248.491 2766.75,248.919C2775.81,249.483 2788.06,250.009 2797.23,250.399C2780.41,251.56 2752.17,254.625 2746,256.169Z" style="fill:rgb(62,67,74);"/>
                    </g>
                </g>
            </g>
        </g>
    </g>
</svg>
