<?xml version="1.0" encoding="UTF-8" standalone="no"?>
<!DOCTYPE svg PUBLIC "-//W3C//DTD SVG 1.1//EN" "http://www.w3.org/Graphics/SVG/1.1/DTD/svg11.dtd">
<svg width="100%" height="100%" viewBox="0 0 1434 348" version="1.1" xmlns="http://www.w3.org/2000/svg" xmlns:xlink="http://www.w3.org/1999/xlink" xml:space="preserve" xmlns:serif="http://www.serif.com/" style="fill-rule:evenodd;clip-rule:evenodd;stroke-linejoin:round;stroke-miterlimit:2;">
    <g transform="matrix(1,0,0,1,-5122.23,-6401.82)">
        <g transform="matrix(1,0,0,4.24379,-0.754384,-4222.26)">
            <g transform="matrix(1,0,0,0.235638,97.2583,2067.92)">
                <g transform="matrix(1,0,0,1,530.332,57.2508)">
                    <g transform="matrix(-0.0175432,0,0,0.203228,5624.83,1431.32)">
                        <path d="M5587.53,1818.23C5587.53,1810.5 5514.95,1804.24 5425.42,1804.24C5425.4,1804.24 5425.37,1804.24 5425.35,1804.24C5335.82,1804.24 5263.24,1810.5 5263.24,1818.23C5263.24,1897.78 5263.24,2289.51 5263.24,2289.51L5587.53,2289.51C5587.53,2289.51 5587.53,1897.78 5587.53,1818.23Z" style="fill:rgb(204,206,219);"/>
                    </g>
                    <g transform="matrix(0.243409,0,0,0.41181,4209.73,1135.55)">
                        <path d="M5587.53,1808.01C5587.53,1805.55 5586.27,1803.15 5583.91,1801.13C5559.75,1780.38 5422.81,1662.78 5422.81,1662.78C5422.81,1662.78 5289.94,1780.57 5266.69,1801.18C5264.44,1803.17 5263.24,1805.52 5263.24,1807.91C5263.24,1852.59 5263.24,2289.51 5263.24,2289.51L5587.53,2289.51L5587.53,1808.01Z" style="fill:rgb(220,222,236);"/>
                    </g>
                    <g transform="matrix(0.400872,0,0,0.30467,3355.44,1327.65)">
                        <path d="M5587.53,1820.65C5587.53,1816.3 5586.22,1812.12 5583.88,1809.04C5581.54,1805.97 5578.37,1804.24 5575.06,1804.24C5523.5,1804.24 5327.27,1804.24 5275.71,1804.24C5272.4,1804.24 5269.23,1805.97 5266.89,1809.04C5264.55,1812.12 5263.24,1816.3 5263.24,1820.65C5263.24,1905.39 5263.24,2289.51 5263.24,2289.51L5587.53,2289.51L5587.53,1820.65Z" style="fill:rgb(204,206,219);"/>
                    </g>
                    <g transform="matrix(1,0,0,1,-3.46078,-21.9503)">
                        <path d="M5588.78,1959.6C5588.78,1959.07 5588.57,1958.56 5588.2,1958.19C5587.82,1957.81 5587.31,1957.6 5586.78,1957.6L5570.78,1957.6C5570.25,1957.6 5569.74,1957.81 5569.37,1958.19C5568.99,1958.56 5568.78,1959.07 5568.78,1959.6C5568.78,1963.43 5568.78,1971.77 5568.78,1975.6C5568.78,1976.13 5568.99,1976.64 5569.37,1977.02C5569.74,1977.39 5570.25,1977.6 5570.78,1977.6L5586.78,1977.6C5587.31,1977.6 5587.82,1977.39 5588.2,1977.02C5588.57,1976.64 5588.78,1976.13 5588.78,1975.6L5588.78,1959.6ZM5558.78,1959.6C5558.78,1959.07 5558.57,1958.56 5558.2,1958.19C5557.82,1957.81 5557.31,1957.6 5556.78,1957.6L5540.78,1957.6C5540.25,1957.6 5539.74,1957.81 5539.37,1958.19C5538.99,1958.56 5538.78,1959.07 5538.78,1959.6L5538.78,1975.6C5538.78,1976.13 5538.99,1976.64 5539.37,1977.02C5539.74,1977.39 5540.25,1977.6 5540.78,1977.6C5544.61,1977.6 5552.95,1977.6 5556.78,1977.6C5557.31,1977.6 5557.82,1977.39 5558.2,1977.02C5558.57,1976.64 5558.78,1976.13 5558.78,1975.6L5558.78,1959.6ZM5498.78,1959.6C5498.78,1959.07 5498.57,1958.56 5498.2,1958.19C5497.82,1957.81 5497.31,1957.6 5496.78,1957.6L5480.78,1957.6C5480.25,1957.6 5479.74,1957.81 5479.37,1958.19C5478.99,1958.56 5478.78,1959.07 5478.78,1959.6L5478.78,1975.6C5478.78,1976.13 5478.99,1976.64 5479.37,1977.02C5479.74,1977.39 5480.25,1977.6 5480.78,1977.6C5484.61,1977.6 5492.95,1977.6 5496.78,1977.6C5497.31,1977.6 5497.82,1977.39 5498.2,1977.02C5498.57,1976.64 5498.78,1976.13 5498.78,1975.6L5498.78,1959.6ZM5528.78,1959.6C5528.78,1959.07 5528.57,1958.56 5528.2,1958.19C5527.82,1957.81 5527.31,1957.6 5526.78,1957.6L5510.78,1957.6C5510.25,1957.6 5509.74,1957.81 5509.37,1958.19C5508.99,1958.56 5508.78,1959.07 5508.78,1959.6L5508.78,1975.6C5508.78,1976.13 5508.99,1976.64 5509.37,1977.02C5509.74,1977.39 5510.25,1977.6 5510.78,1977.6C5514.61,1977.6 5522.95,1977.6 5526.78,1977.6C5527.31,1977.6 5527.82,1977.39 5528.2,1977.02C5528.57,1976.64 5528.78,1976.13 5528.78,1975.6L5528.78,1959.6ZM5588.78,1929.6C5588.78,1929.07 5588.57,1928.56 5588.2,1928.19C5587.82,1927.81 5587.31,1927.6 5586.78,1927.6L5570.78,1927.6C5570.25,1927.6 5569.74,1927.81 5569.37,1928.19C5568.99,1928.56 5568.78,1929.07 5568.78,1929.6C5568.78,1933.43 5568.78,1941.77 5568.78,1945.6C5568.78,1946.13 5568.99,1946.64 5569.37,1947.02C5569.74,1947.39 5570.25,1947.6 5570.78,1947.6L5586.78,1947.6C5587.31,1947.6 5587.82,1947.39 5588.2,1947.02C5588.57,1946.64 5588.78,1946.13 5588.78,1945.6C5588.78,1941.77 5588.78,1933.43 5588.78,1929.6ZM5498.78,1929.6C5498.78,1929.07 5498.57,1928.56 5498.2,1928.19C5497.82,1927.81 5497.31,1927.6 5496.78,1927.6C5492.95,1927.6 5484.61,1927.6 5480.78,1927.6C5480.25,1927.6 5479.74,1927.81 5479.37,1928.19C5478.99,1928.56 5478.78,1929.07 5478.78,1929.6L5478.78,1945.6C5478.78,1946.13 5478.99,1946.64 5479.37,1947.02C5479.74,1947.39 5480.25,1947.6 5480.78,1947.6L5496.78,1947.6C5497.31,1947.6 5497.82,1947.39 5498.2,1947.02C5498.57,1946.64 5498.78,1946.13 5498.78,1945.6L5498.78,1929.6ZM5528.78,1929.6C5528.78,1929.07 5528.57,1928.56 5528.2,1928.19C5527.82,1927.81 5527.31,1927.6 5526.78,1927.6C5522.95,1927.6 5514.61,1927.6 5510.78,1927.6C5510.25,1927.6 5509.74,1927.81 5509.37,1928.19C5508.99,1928.56 5508.78,1929.07 5508.78,1929.6L5508.78,1945.6C5508.78,1946.13 5508.99,1946.64 5509.37,1947.02C5509.74,1947.39 5510.25,1947.6 5510.78,1947.6L5526.78,1947.6C5527.31,1947.6 5527.82,1947.39 5528.2,1947.02C5528.57,1946.64 5528.78,1946.13 5528.78,1945.6L5528.78,1929.6ZM5558.78,1929.6C5558.78,1929.07 5558.57,1928.56 5558.2,1928.19C5557.82,1927.81 5557.31,1927.6 5556.78,1927.6L5540.78,1927.6C5540.25,1927.6 5539.74,1927.81 5539.37,1928.19C5538.99,1928.56 5538.78,1929.07 5538.78,1929.6L5538.78,1945.6C5538.78,1946.13 5538.99,1946.64 5539.37,1947.02C5539.74,1947.39 5540.25,1947.6 5540.78,1947.6L5556.78,1947.6C5557.31,1947.6 5557.82,1947.39 5558.2,1947.02C5558.57,1946.64 5558.78,1946.13 5558.78,1945.6L5558.78,1929.6Z" style="fill:rgb(139,24,88);fill-opacity:0.45;"/>
                    </g>
                    <g transform="matrix(0.215854,0,0,0.259067,4237.67,1412.77)">
                        <path d="M5587.53,2289.51C5584.03,2160.88 5586.11,1887.87 5586.11,1887.87C5586.11,1887.87 5486.04,1684.08 5425.39,1584.21C5368.54,1677.64 5266.52,1886.12 5266.52,1886.12C5266.52,1886.12 5269.31,2154.97 5263.24,2289.51L5587.53,2289.51Z" style="fill:rgb(204,206,219);"/>
                    </g>
                    <g transform="matrix(1,0,0,1,0.754384,-13.6499)">
                        <path d="M5403.01,1951.69C5403.01,1951.16 5402.8,1950.65 5402.42,1950.28C5402.05,1949.9 5401.54,1949.69 5401.01,1949.69L5385.01,1949.69C5384.48,1949.69 5383.97,1949.9 5383.6,1950.28C5383.22,1950.65 5383.01,1951.16 5383.01,1951.69L5383.01,1967.69C5383.01,1968.22 5383.22,1968.73 5383.6,1969.11C5383.97,1969.48 5384.48,1969.69 5385.01,1969.69C5388.84,1969.69 5397.18,1969.69 5401.01,1969.69C5401.54,1969.69 5402.05,1969.48 5402.42,1969.11C5402.8,1968.73 5403.01,1968.22 5403.01,1967.69L5403.01,1951.69ZM5433.01,1951.69C5433.01,1951.16 5432.8,1950.65 5432.42,1950.28C5432.05,1949.9 5431.54,1949.69 5431.01,1949.69C5427.18,1949.69 5418.84,1949.69 5415.01,1949.69C5414.48,1949.69 5413.97,1949.9 5413.6,1950.28C5413.22,1950.65 5413.01,1951.16 5413.01,1951.69L5413.01,1967.69C5413.01,1968.22 5413.22,1968.73 5413.6,1969.11C5413.97,1969.48 5414.48,1969.69 5415.01,1969.69C5418.84,1969.69 5427.18,1969.69 5431.01,1969.69C5431.54,1969.69 5432.05,1969.48 5432.42,1969.11C5432.8,1968.73 5433.01,1968.22 5433.01,1967.69L5433.01,1951.69ZM5403.01,1921.69C5403.01,1921.16 5402.8,1920.65 5402.42,1920.28C5402.05,1919.9 5401.54,1919.69 5401.01,1919.69L5385.01,1919.69C5384.48,1919.69 5383.97,1919.9 5383.6,1920.28C5383.22,1920.65 5383.01,1921.16 5383.01,1921.69L5383.01,1937.69C5383.01,1938.22 5383.22,1938.73 5383.6,1939.11C5383.97,1939.48 5384.48,1939.69 5385.01,1939.69C5388.84,1939.69 5397.18,1939.69 5401.01,1939.69C5401.54,1939.69 5402.05,1939.48 5402.42,1939.11C5402.8,1938.73 5403.01,1938.22 5403.01,1937.69L5403.01,1921.69ZM5433.01,1921.69C5433.01,1921.16 5432.8,1920.65 5432.42,1920.28C5432.05,1919.9 5431.54,1919.69 5431.01,1919.69C5427.18,1919.69 5418.84,1919.69 5415.01,1919.69C5414.48,1919.69 5413.97,1919.9 5413.6,1920.28C5413.22,1920.65 5413.01,1921.16 5413.01,1921.69L5413.01,1937.69C5413.01,1938.22 5413.22,1938.73 5413.6,1939.11C5413.97,1939.48 5414.48,1939.69 5415.01,1939.69C5418.84,1939.69 5427.18,1939.69 5431.01,1939.69C5431.54,1939.69 5432.05,1939.48 5432.42,1939.11C5432.8,1938.73 5433.01,1938.22 5433.01,1937.69L5433.01,1921.69Z" style="fill:rgb(139,24,88);fill-opacity:0.45;"/>
                    </g>
                    <g transform="matrix(0.400872,0,0,0.406455,3107.8,1117.28)">
                        <path d="M5587.53,1758.25C5587.53,1753.86 5585.17,1749.81 5581.32,1747.61C5577.48,1745.41 5572.74,1745.39 5568.88,1747.56C5506.58,1782.62 5307.5,1894.66 5269.53,1916.03C5265.64,1918.22 5263.24,1922.3 5263.24,1926.72C5263.24,1978.12 5263.24,2289.51 5263.24,2289.51L5587.53,2289.51L5587.53,1758.25Z" style="fill:rgb(204,206,219);"/>
                    </g>
                    <g transform="matrix(4.44362,0,0,0.444718,-18311.3,1097.13)">
                        <path d="M5324.25,1845.55C5324.25,1845.02 5324.04,1844.51 5323.67,1844.13C5323.29,1843.76 5322.78,1843.55 5322.25,1843.55C5318.42,1843.55 5310.08,1843.55 5306.25,1843.55C5305.72,1843.55 5305.21,1843.76 5304.84,1844.13C5304.46,1844.51 5304.25,1845.02 5304.25,1845.55L5304.25,1861.55C5304.25,1862.08 5304.46,1862.59 5304.84,1862.97C5305.21,1863.34 5305.72,1863.55 5306.25,1863.55L5322.25,1863.55C5322.78,1863.55 5323.29,1863.34 5323.67,1862.97C5324.04,1862.59 5324.25,1862.08 5324.25,1861.55L5324.25,1845.55Z" style="fill:rgb(139,24,88);fill-opacity:0.45;"/>
                    </g>
                    <g transform="matrix(4.45696,0,0,0.444718,-18382.1,1082.13)">
                        <path d="M5324.25,1845.55C5324.25,1845.02 5324.04,1844.51 5323.67,1844.13C5323.29,1843.76 5322.78,1843.55 5322.25,1843.55C5318.42,1843.55 5310.08,1843.55 5306.25,1843.55C5305.72,1843.55 5305.21,1843.76 5304.84,1844.13C5304.46,1844.51 5304.25,1845.02 5304.25,1845.55L5304.25,1861.55C5304.25,1862.08 5304.46,1862.59 5304.84,1862.97C5305.21,1863.34 5305.72,1863.55 5306.25,1863.55L5322.25,1863.55C5322.78,1863.55 5323.29,1863.34 5323.67,1862.97C5324.04,1862.59 5324.25,1862.08 5324.25,1861.55L5324.25,1845.55Z" style="fill:rgb(139,24,88);fill-opacity:0.45;"/>
                    </g>
                    <g transform="matrix(1,0,0,1,0.754384,120.505)">
                        <path d="M5264.24,1935.56C5264.24,1935.03 5264.03,1934.52 5263.66,1934.14C5263.28,1933.77 5262.77,1933.56 5262.24,1933.56C5258.41,1933.56 5250.07,1933.56 5246.24,1933.56C5245.71,1933.56 5245.2,1933.77 5244.83,1934.14C5244.45,1934.52 5244.24,1935.03 5244.24,1935.56C5244.24,1939.39 5244.24,1947.73 5244.24,1951.56C5244.24,1952.09 5244.45,1952.6 5244.83,1952.98C5245.2,1953.35 5245.71,1953.56 5246.24,1953.56C5250.07,1953.56 5258.41,1953.56 5262.24,1953.56C5262.77,1953.56 5263.28,1953.35 5263.66,1952.98C5264.03,1952.6 5264.24,1952.09 5264.24,1951.56L5264.24,1935.56ZM5294.25,1935.56C5294.25,1935.03 5294.04,1934.52 5293.66,1934.14C5293.29,1933.77 5292.78,1933.56 5292.25,1933.56L5276.24,1933.56C5275.72,1933.56 5275.21,1933.77 5274.83,1934.14C5274.46,1934.52 5274.24,1935.03 5274.24,1935.56L5274.24,1951.56C5274.24,1952.09 5274.46,1952.6 5274.83,1952.98C5275.21,1953.35 5275.72,1953.56 5276.24,1953.56C5280.08,1953.56 5288.42,1953.56 5292.25,1953.56C5292.78,1953.56 5293.29,1953.35 5293.66,1952.98C5294.04,1952.6 5294.25,1952.09 5294.25,1951.56L5294.25,1935.56ZM5234.24,1935.56C5234.24,1935.03 5234.03,1934.52 5233.65,1934.14C5233.28,1933.77 5232.77,1933.56 5232.24,1933.56L5216.23,1933.56C5215.7,1933.56 5215.2,1933.77 5214.82,1934.14C5214.45,1934.52 5214.23,1935.03 5214.23,1935.56L5214.23,1951.56C5214.23,1952.09 5214.45,1952.6 5214.82,1952.98C5215.2,1953.35 5215.7,1953.56 5216.23,1953.56L5232.24,1953.56C5232.77,1953.56 5233.28,1953.35 5233.65,1952.98C5234.03,1952.6 5234.24,1952.09 5234.24,1951.56L5234.24,1935.56ZM5324.25,1935.56C5324.25,1935.03 5324.04,1934.52 5323.67,1934.14C5323.29,1933.77 5322.78,1933.56 5322.25,1933.56L5306.25,1933.56C5305.72,1933.56 5305.21,1933.77 5304.84,1934.14C5304.46,1934.52 5304.25,1935.03 5304.25,1935.56L5304.25,1951.56C5304.25,1952.09 5304.46,1952.6 5304.84,1952.98C5305.21,1953.35 5305.72,1953.56 5306.25,1953.56L5322.25,1953.56C5322.78,1953.56 5323.29,1953.35 5323.67,1952.98C5324.04,1952.6 5324.25,1952.09 5324.25,1951.56L5324.25,1935.56ZM5264.24,1905.56C5264.24,1905.03 5264.03,1904.52 5263.66,1904.14C5263.28,1903.77 5262.77,1903.56 5262.24,1903.56L5246.24,1903.56C5245.71,1903.56 5245.2,1903.77 5244.83,1904.14C5244.45,1904.52 5244.24,1905.03 5244.24,1905.56C5244.24,1909.39 5244.24,1917.73 5244.24,1921.56C5244.24,1922.09 5244.45,1922.6 5244.83,1922.97C5245.2,1923.35 5245.71,1923.56 5246.24,1923.56L5262.24,1923.56C5262.77,1923.56 5263.28,1923.35 5263.66,1922.97C5264.03,1922.6 5264.24,1922.09 5264.24,1921.56L5264.24,1905.56ZM5294.25,1905.56C5294.25,1905.03 5294.04,1904.52 5293.66,1904.14C5293.29,1903.77 5292.78,1903.56 5292.25,1903.56L5276.24,1903.56C5275.72,1903.56 5275.21,1903.77 5274.83,1904.14C5274.46,1904.52 5274.24,1905.03 5274.24,1905.56L5274.24,1921.56C5274.24,1922.09 5274.46,1922.6 5274.83,1922.97C5275.21,1923.35 5275.72,1923.56 5276.24,1923.56L5292.25,1923.56C5292.78,1923.56 5293.29,1923.35 5293.66,1922.97C5294.04,1922.6 5294.25,1922.09 5294.25,1921.56L5294.25,1905.56ZM5234.24,1905.56C5234.24,1905.03 5234.03,1904.52 5233.65,1904.14C5233.28,1903.77 5232.77,1903.56 5232.24,1903.56L5216.23,1903.56C5215.7,1903.56 5215.2,1903.77 5214.82,1904.14C5214.45,1904.52 5214.23,1905.03 5214.23,1905.56L5214.23,1921.56C5214.23,1922.09 5214.45,1922.6 5214.82,1922.97C5215.2,1923.35 5215.7,1923.56 5216.23,1923.56L5232.24,1923.56C5232.77,1923.56 5233.28,1923.35 5233.65,1922.97C5234.03,1922.6 5234.24,1922.09 5234.24,1921.56L5234.24,1905.56ZM5324.25,1905.56C5324.25,1905.03 5324.04,1904.52 5323.67,1904.14C5323.29,1903.77 5322.78,1903.56 5322.25,1903.56C5318.42,1903.56 5310.08,1903.56 5306.25,1903.56C5305.72,1903.56 5305.21,1903.77 5304.84,1904.14C5304.46,1904.52 5304.25,1905.03 5304.25,1905.56L5304.25,1921.56C5304.25,1922.09 5304.46,1922.6 5304.84,1922.97C5305.21,1923.35 5305.72,1923.56 5306.25,1923.56L5322.25,1923.56C5322.78,1923.56 5323.29,1923.35 5323.67,1922.97C5324.04,1922.6 5324.25,1922.09 5324.25,1921.56L5324.25,1905.56ZM5324.24,1875.55C5324.24,1875.02 5324.03,1874.51 5323.66,1874.14C5323.28,1873.76 5322.77,1873.55 5322.24,1873.55L5306.24,1873.55C5305.71,1873.55 5305.2,1873.76 5304.82,1874.14C5304.45,1874.51 5304.24,1875.02 5304.24,1875.55L5304.24,1891.56C5304.24,1892.09 5304.45,1892.6 5304.82,1892.97C5305.2,1893.35 5305.71,1893.56 5306.24,1893.56L5322.24,1893.56C5322.77,1893.56 5323.28,1893.35 5323.66,1892.97C5324.03,1892.6 5324.24,1892.09 5324.24,1891.56L5324.24,1875.55ZM5234.23,1875.55C5234.23,1875.02 5234.02,1874.51 5233.64,1874.14C5233.27,1873.76 5232.76,1873.55 5232.23,1873.55L5216.22,1873.55C5215.69,1873.55 5215.18,1873.76 5214.81,1874.14C5214.43,1874.51 5214.22,1875.02 5214.22,1875.55L5214.22,1891.56C5214.22,1892.09 5214.43,1892.6 5214.81,1892.97C5215.18,1893.35 5215.69,1893.56 5216.22,1893.56L5232.23,1893.56C5232.76,1893.56 5233.27,1893.35 5233.64,1892.97C5234.02,1892.6 5234.23,1892.09 5234.23,1891.56L5234.23,1875.55ZM5264.23,1875.55C5264.23,1875.02 5264.02,1874.51 5263.65,1874.14C5263.27,1873.76 5262.76,1873.55 5262.23,1873.55L5246.23,1873.55C5245.7,1873.55 5245.19,1873.76 5244.82,1874.14C5244.44,1874.51 5244.23,1875.02 5244.23,1875.55C5244.23,1879.38 5244.23,1887.72 5244.23,1891.56C5244.23,1892.09 5244.44,1892.6 5244.82,1892.97C5245.19,1893.35 5245.7,1893.56 5246.23,1893.56L5262.23,1893.56C5262.76,1893.56 5263.27,1893.35 5263.65,1892.97C5264.02,1892.6 5264.23,1892.09 5264.23,1891.56L5264.23,1875.55ZM5294.24,1875.55C5294.24,1875.02 5294.03,1874.51 5293.65,1874.14C5293.28,1873.76 5292.77,1873.55 5292.24,1873.55L5276.23,1873.55C5275.7,1873.55 5275.19,1873.76 5274.82,1874.14C5274.44,1874.51 5274.23,1875.02 5274.23,1875.55L5274.23,1891.56C5274.23,1892.09 5274.44,1892.6 5274.82,1892.97C5275.19,1893.35 5275.7,1893.56 5276.23,1893.56L5292.24,1893.56C5292.77,1893.56 5293.28,1893.35 5293.65,1892.97C5294.03,1892.6 5294.24,1892.09 5294.24,1891.56C5294.24,1887.72 5294.24,1879.38 5294.24,1875.55ZM5264.24,1845.55C5264.24,1845.02 5264.03,1844.51 5263.66,1844.13C5263.28,1843.76 5262.77,1843.55 5262.24,1843.55L5246.24,1843.55C5245.71,1843.55 5245.2,1843.76 5244.83,1844.13C5244.45,1844.51 5244.24,1845.02 5244.24,1845.55C5244.24,1849.38 5244.24,1857.72 5244.24,1861.55C5244.24,1862.08 5244.45,1862.59 5244.83,1862.97C5245.2,1863.34 5245.71,1863.55 5246.24,1863.55L5262.24,1863.55C5262.77,1863.55 5263.28,1863.34 5263.66,1862.97C5264.03,1862.59 5264.24,1862.08 5264.24,1861.55L5264.24,1845.55ZM5294.25,1845.55C5294.25,1845.02 5294.04,1844.51 5293.66,1844.13C5293.29,1843.76 5292.78,1843.55 5292.25,1843.55L5276.24,1843.55C5275.72,1843.55 5275.21,1843.76 5274.83,1844.13C5274.46,1844.51 5274.24,1845.02 5274.24,1845.55L5274.24,1861.55C5274.24,1862.08 5274.46,1862.59 5274.83,1862.97C5275.21,1863.34 5275.72,1863.55 5276.24,1863.55C5280.08,1863.55 5288.42,1863.55 5292.25,1863.55C5292.78,1863.55 5293.29,1863.34 5293.66,1862.97C5294.04,1862.59 5294.25,1862.08 5294.25,1861.55L5294.25,1845.55ZM5234.24,1845.55C5234.24,1845.02 5234.03,1844.51 5233.65,1844.13C5233.28,1843.76 5232.77,1843.55 5232.24,1843.55L5216.23,1843.55C5215.7,1843.55 5215.2,1843.76 5214.82,1844.13C5214.45,1844.51 5214.23,1845.02 5214.23,1845.55L5214.23,1861.55C5214.23,1862.08 5214.45,1862.59 5214.82,1862.97C5215.2,1863.34 5215.7,1863.55 5216.23,1863.55L5232.24,1863.55C5232.77,1863.55 5233.28,1863.34 5233.65,1862.97C5234.03,1862.59 5234.24,1862.08 5234.24,1861.55L5234.24,1845.55ZM5324.25,1845.55C5324.25,1845.02 5324.04,1844.51 5323.67,1844.13C5323.29,1843.76 5322.78,1843.55 5322.25,1843.55C5318.42,1843.55 5310.08,1843.55 5306.25,1843.55C5305.72,1843.55 5305.21,1843.76 5304.84,1844.13C5304.46,1844.51 5304.25,1845.02 5304.25,1845.55L5304.25,1861.55C5304.25,1862.08 5304.46,1862.59 5304.84,1862.97C5305.21,1863.34 5305.72,1863.55 5306.25,1863.55L5322.25,1863.55C5322.78,1863.55 5323.29,1863.34 5323.67,1862.97C5324.04,1862.59 5324.25,1862.08 5324.25,1861.55L5324.25,1845.55Z" style="fill:rgb(45,54,96);fill-opacity:0.45;"/>
                    </g>
                </g>
                <g transform="matrix(-1,0,0,1,10927.7,67.3418)">
                    <g transform="matrix(0.218145,0,0,0.133467,4173.4,1594.6)">
                        <path d="M5587.53,1822.9C5587.53,1811.03 5584.09,1799.85 5578.25,1792.79C5523.59,1732.04 5426.42,1701.7 5426.42,1701.7C5426.42,1701.7 5331.47,1734.91 5273.6,1793.07C5267.18,1799.97 5263.32,1811.69 5263.32,1824.25C5263.24,1907.51 5263.24,2222.07 5263.24,2222.07L5587.53,2222.07C5587.53,2222.07 5587.53,1904.04 5587.53,1822.9Z" style="fill:rgb(204,206,219);fill-opacity:0.4;"/>
                        <clipPath id="_clip1">
                            <path d="M5587.53,1822.9C5587.53,1811.03 5584.09,1799.85 5578.25,1792.79C5523.59,1732.04 5426.42,1701.7 5426.42,1701.7C5426.42,1701.7 5331.47,1734.91 5273.6,1793.07C5267.18,1799.97 5263.32,1811.69 5263.32,1824.25C5263.24,1907.51 5263.24,2222.07 5263.24,2222.07L5587.53,2222.07C5587.53,2222.07 5587.53,1904.04 5587.53,1822.9Z"/>
                        </clipPath>
                        <g clip-path="url(#_clip1)">
                            <g transform="matrix(-9.60048,0,0,4.67322,58323.6,-14152.8)">
                                <rect x="5490.2" y="3423.57" width="38.93" height="5.676" style="fill:rgb(139,24,88);fill-opacity:0.4;"/>
                            </g>
                            <g transform="matrix(-9.60048,0,0,4.67322,58320.8,-13996.9)">
                                <rect x="5490.2" y="3423.57" width="38.93" height="5.676" style="fill:rgb(139,24,88);fill-opacity:0.4;"/>
                            </g>
                            <g transform="matrix(-9.60048,0,0,4.67322,58323.6,-13840.9)">
                                <rect x="5490.2" y="3423.57" width="38.93" height="5.676" style="fill:rgb(139,24,88);fill-opacity:0.4;"/>
                            </g>
                        </g>
                    </g>
                    <g transform="matrix(-1.91055,1.10306,0.5,0.866025,14163.3,-7205.57)">
                        <rect x="5503.96" y="3484.13" width="36.378" height="4.961" style="fill:rgb(204,206,219);fill-opacity:0.4;"/>
                    </g>
                    <g transform="matrix(-1.91055,-1.10306,-0.5,0.866025,17649.9,4976.92)">
                        <rect x="5503.96" y="3484.13" width="36.378" height="4.961" style="fill:rgb(204,206,219);fill-opacity:0.4;"/>
                    </g>
                    <g transform="matrix(0.400872,0,0,0.41181,3325.32,1139.7)">
                        <path d="M5587.53,1816.38C5587.53,1813.16 5586.22,1810.07 5583.88,1807.79C5581.54,1805.52 5578.37,1804.24 5575.06,1804.24C5523.5,1804.24 5327.27,1804.24 5275.71,1804.24C5272.4,1804.24 5269.23,1805.52 5266.89,1807.79C5264.55,1810.07 5263.24,1813.16 5263.24,1816.38C5263.24,1891.48 5263.24,2289.51 5263.24,2289.51L5587.53,2289.51C5587.53,2289.51 5587.53,1891.48 5587.53,1816.38Z" style="fill:rgb(204,206,219);fill-opacity:0.4;"/>
                    </g>
                    <g transform="matrix(1,0,0,1,8.66117,49.158)">
                        <path d="M5486.56,1965.56C5486.56,1965.03 5486.35,1964.52 5485.97,1964.15C5485.6,1963.77 5485.09,1963.56 5484.56,1963.56L5468.56,1963.56C5468.03,1963.56 5467.52,1963.77 5467.14,1964.15C5466.77,1964.52 5466.56,1965.03 5466.56,1965.56L5466.56,1981.57C5466.56,1982.1 5466.77,1982.61 5467.14,1982.98C5467.52,1983.36 5468.03,1983.57 5468.56,1983.57L5484.56,1983.57C5485.09,1983.57 5485.6,1983.36 5485.97,1982.98C5486.35,1982.61 5486.56,1982.1 5486.56,1981.57L5486.56,1965.56ZM5456.55,1965.56C5456.55,1965.03 5456.34,1964.52 5455.97,1964.15C5455.59,1963.77 5455.08,1963.56 5454.55,1963.56L5438.55,1963.56C5438.02,1963.56 5437.51,1963.77 5437.14,1964.15C5436.76,1964.52 5436.55,1965.03 5436.55,1965.56L5436.55,1981.57C5436.55,1982.1 5436.76,1982.61 5437.14,1982.98C5437.51,1983.36 5438.02,1983.57 5438.55,1983.57L5454.55,1983.57C5455.08,1983.57 5455.59,1983.36 5455.97,1982.98C5456.34,1982.61 5456.55,1982.1 5456.55,1981.57L5456.55,1965.56ZM5516.56,1965.56C5516.56,1965.03 5516.35,1964.52 5515.98,1964.15C5515.6,1963.77 5515.09,1963.56 5514.56,1963.56L5498.56,1963.56C5498.03,1963.56 5497.52,1963.77 5497.15,1964.15C5496.77,1964.52 5496.56,1965.03 5496.56,1965.56C5496.56,1969.39 5496.56,1977.73 5496.56,1981.57C5496.56,1982.1 5496.77,1982.61 5497.15,1982.98C5497.52,1983.36 5498.03,1983.57 5498.56,1983.57L5514.56,1983.57C5515.09,1983.57 5515.6,1983.36 5515.98,1982.98C5516.35,1982.61 5516.56,1982.1 5516.56,1981.57L5516.56,1965.56ZM5546.57,1965.56C5546.57,1965.03 5546.36,1964.52 5545.98,1964.15C5545.61,1963.77 5545.1,1963.56 5544.57,1963.56L5528.57,1963.56C5528.03,1963.56 5527.53,1963.77 5527.15,1964.15C5526.78,1964.52 5526.57,1965.03 5526.57,1965.56L5526.57,1981.57C5526.57,1982.1 5526.78,1982.61 5527.15,1982.98C5527.53,1983.36 5528.03,1983.57 5528.57,1983.57L5544.57,1983.57C5545.1,1983.57 5545.61,1983.36 5545.98,1982.98C5546.36,1982.61 5546.57,1982.1 5546.57,1981.57L5546.57,1965.56ZM5486.56,1935.56C5486.56,1935.03 5486.35,1934.52 5485.97,1934.14C5485.6,1933.77 5485.09,1933.56 5484.56,1933.56L5468.56,1933.56C5468.03,1933.56 5467.52,1933.77 5467.14,1934.14C5466.77,1934.52 5466.56,1935.03 5466.56,1935.56L5466.56,1951.56C5466.56,1952.09 5466.77,1952.6 5467.14,1952.98C5467.52,1953.35 5468.03,1953.56 5468.56,1953.56C5472.39,1953.56 5480.73,1953.56 5484.56,1953.56C5485.09,1953.56 5485.6,1953.35 5485.97,1952.98C5486.35,1952.6 5486.56,1952.09 5486.56,1951.56L5486.56,1935.56ZM5546.57,1935.56C5546.57,1935.03 5546.36,1934.52 5545.98,1934.14C5545.61,1933.77 5545.1,1933.56 5544.57,1933.56C5540.74,1933.56 5532.4,1933.56 5528.57,1933.56C5528.03,1933.56 5527.53,1933.77 5527.15,1934.14C5526.78,1934.52 5526.57,1935.03 5526.57,1935.56L5526.57,1951.56C5526.57,1952.09 5526.78,1952.6 5527.15,1952.98C5527.53,1953.35 5528.03,1953.56 5528.57,1953.56C5532.4,1953.56 5540.74,1953.56 5544.57,1953.56C5545.1,1953.56 5545.61,1953.35 5545.98,1952.98C5546.36,1952.6 5546.57,1952.09 5546.57,1951.56L5546.57,1935.56ZM5456.55,1935.56C5456.55,1935.03 5456.34,1934.52 5455.97,1934.14C5455.59,1933.77 5455.08,1933.56 5454.55,1933.56L5438.55,1933.56C5438.02,1933.56 5437.51,1933.77 5437.14,1934.14C5436.76,1934.52 5436.55,1935.03 5436.55,1935.56L5436.55,1951.56C5436.55,1952.09 5436.76,1952.6 5437.14,1952.98C5437.51,1953.35 5438.02,1953.56 5438.55,1953.56L5454.55,1953.56C5455.08,1953.56 5455.59,1953.35 5455.97,1952.98C5456.34,1952.6 5456.55,1952.09 5456.55,1951.56L5456.55,1935.56ZM5516.56,1935.56C5516.56,1935.03 5516.35,1934.52 5515.98,1934.14C5515.6,1933.77 5515.09,1933.56 5514.56,1933.56L5498.56,1933.56C5498.03,1933.56 5497.52,1933.77 5497.15,1934.14C5496.77,1934.52 5496.56,1935.03 5496.56,1935.56L5496.56,1951.56C5496.56,1952.09 5496.77,1952.6 5497.15,1952.98C5497.52,1953.35 5498.03,1953.56 5498.56,1953.56L5514.56,1953.56C5515.09,1953.56 5515.6,1953.35 5515.98,1952.98C5516.35,1952.6 5516.56,1952.09 5516.56,1951.56L5516.56,1935.56ZM5486.56,1905.56C5486.56,1905.03 5486.35,1904.52 5485.97,1904.14C5485.6,1903.77 5485.09,1903.56 5484.56,1903.56L5468.56,1903.56C5468.03,1903.56 5467.52,1903.77 5467.14,1904.14C5466.77,1904.52 5466.56,1905.03 5466.56,1905.56L5466.56,1921.56C5466.56,1922.09 5466.77,1922.6 5467.14,1922.97C5467.52,1923.35 5468.03,1923.56 5468.56,1923.56L5484.56,1923.56C5485.09,1923.56 5485.6,1923.35 5485.97,1922.97C5486.35,1922.6 5486.56,1922.09 5486.56,1921.56L5486.56,1905.56ZM5546.57,1905.56C5546.57,1905.03 5546.36,1904.52 5545.98,1904.14C5545.61,1903.77 5545.1,1903.56 5544.57,1903.56L5528.57,1903.56C5528.03,1903.56 5527.53,1903.77 5527.15,1904.14C5526.78,1904.52 5526.57,1905.03 5526.57,1905.56L5526.57,1921.56C5526.57,1922.09 5526.78,1922.6 5527.15,1922.97C5527.53,1923.35 5528.03,1923.56 5528.57,1923.56L5544.57,1923.56C5545.1,1923.56 5545.61,1923.35 5545.98,1922.97C5546.36,1922.6 5546.57,1922.09 5546.57,1921.56L5546.57,1905.56ZM5456.55,1905.56C5456.55,1905.03 5456.34,1904.52 5455.97,1904.14C5455.59,1903.77 5455.08,1903.56 5454.55,1903.56L5438.55,1903.56C5438.02,1903.56 5437.51,1903.77 5437.14,1904.14C5436.76,1904.52 5436.55,1905.03 5436.55,1905.56L5436.55,1921.56C5436.55,1922.09 5436.76,1922.6 5437.14,1922.97C5437.51,1923.35 5438.02,1923.56 5438.55,1923.56L5454.55,1923.56C5455.08,1923.56 5455.59,1923.35 5455.97,1922.97C5456.34,1922.6 5456.55,1922.09 5456.55,1921.56L5456.55,1905.56ZM5516.56,1905.56C5516.56,1905.03 5516.35,1904.52 5515.98,1904.14C5515.6,1903.77 5515.09,1903.56 5514.56,1903.56L5498.56,1903.56C5498.03,1903.56 5497.52,1903.77 5497.15,1904.14C5496.77,1904.52 5496.56,1905.03 5496.56,1905.56L5496.56,1921.56C5496.56,1922.09 5496.77,1922.6 5497.15,1922.97C5497.52,1923.35 5498.03,1923.56 5498.56,1923.56L5514.56,1923.56C5515.09,1923.56 5515.6,1923.35 5515.98,1922.97C5516.35,1922.6 5516.56,1922.09 5516.56,1921.56L5516.56,1905.56ZM5456.54,1875.55C5456.54,1875.02 5456.33,1874.51 5455.96,1874.14C5455.58,1873.76 5455.07,1873.55 5454.54,1873.55L5438.54,1873.55C5438.01,1873.55 5437.5,1873.76 5437.12,1874.14C5436.75,1874.51 5436.54,1875.02 5436.54,1875.55L5436.54,1891.56C5436.54,1892.09 5436.75,1892.6 5437.12,1892.97C5437.5,1893.35 5438.01,1893.56 5438.54,1893.56C5442.37,1893.56 5450.71,1893.56 5454.54,1893.56C5455.07,1893.56 5455.58,1893.35 5455.96,1892.97C5456.33,1892.6 5456.54,1892.09 5456.54,1891.56L5456.54,1875.55ZM5516.55,1875.55C5516.55,1875.02 5516.34,1874.51 5515.97,1874.14C5515.59,1873.76 5515.08,1873.55 5514.55,1873.55L5498.55,1873.55C5498.02,1873.55 5497.51,1873.76 5497.14,1874.14C5496.76,1874.51 5496.55,1875.02 5496.55,1875.55L5496.55,1891.56C5496.55,1892.09 5496.76,1892.6 5497.14,1892.97C5497.51,1893.35 5498.02,1893.56 5498.55,1893.56L5514.55,1893.56C5515.08,1893.56 5515.59,1893.35 5515.97,1892.97C5516.34,1892.6 5516.55,1892.09 5516.55,1891.56L5516.55,1875.55ZM5486.55,1875.55C5486.55,1875.02 5486.34,1874.51 5485.96,1874.14C5485.59,1873.76 5485.08,1873.55 5484.55,1873.55L5468.54,1873.55C5468.01,1873.55 5467.51,1873.76 5467.13,1874.14C5466.76,1874.51 5466.54,1875.02 5466.54,1875.55L5466.54,1891.56C5466.54,1892.09 5466.76,1892.6 5467.13,1892.97C5467.51,1893.35 5468.01,1893.56 5468.54,1893.56L5484.55,1893.56C5485.08,1893.56 5485.59,1893.35 5485.96,1892.97C5486.34,1892.6 5486.55,1892.09 5486.55,1891.56C5486.55,1887.72 5486.55,1879.38 5486.55,1875.55ZM5546.56,1875.55C5546.56,1875.02 5546.35,1874.51 5545.97,1874.14C5545.6,1873.76 5545.09,1873.55 5544.56,1873.55L5528.55,1873.55C5528.02,1873.55 5527.52,1873.76 5527.14,1874.14C5526.77,1874.51 5526.55,1875.02 5526.55,1875.55L5526.55,1891.56C5526.55,1892.09 5526.77,1892.6 5527.14,1892.97C5527.52,1893.35 5528.02,1893.56 5528.55,1893.56L5544.56,1893.56C5545.09,1893.56 5545.6,1893.35 5545.97,1892.97C5546.35,1892.6 5546.56,1892.09 5546.56,1891.56L5546.56,1875.55ZM5486.56,1845.55C5486.56,1845.02 5486.35,1844.51 5485.97,1844.13C5485.6,1843.76 5485.09,1843.55 5484.56,1843.55L5468.56,1843.55C5468.03,1843.55 5467.52,1843.76 5467.14,1844.13C5466.77,1844.51 5466.56,1845.02 5466.56,1845.55L5466.56,1861.55C5466.56,1862.08 5466.77,1862.59 5467.14,1862.97C5467.52,1863.34 5468.03,1863.55 5468.56,1863.55L5484.56,1863.55C5485.09,1863.55 5485.6,1863.34 5485.97,1862.97C5486.35,1862.59 5486.56,1862.08 5486.56,1861.55L5486.56,1845.55ZM5546.57,1845.55C5546.57,1845.02 5546.36,1844.51 5545.98,1844.13C5545.61,1843.76 5545.1,1843.55 5544.57,1843.55C5540.74,1843.55 5532.4,1843.55 5528.57,1843.55C5528.03,1843.55 5527.53,1843.76 5527.15,1844.13C5526.78,1844.51 5526.57,1845.02 5526.57,1845.55L5526.57,1861.55C5526.57,1862.08 5526.78,1862.59 5527.15,1862.97C5527.53,1863.34 5528.03,1863.55 5528.57,1863.55L5544.57,1863.55C5545.1,1863.55 5545.61,1863.34 5545.98,1862.97C5546.36,1862.59 5546.57,1862.08 5546.57,1861.55L5546.57,1845.55ZM5456.55,1845.55C5456.55,1845.02 5456.34,1844.51 5455.97,1844.13C5455.59,1843.76 5455.08,1843.55 5454.55,1843.55L5438.55,1843.55C5438.02,1843.55 5437.51,1843.76 5437.14,1844.13C5436.76,1844.51 5436.55,1845.02 5436.55,1845.55L5436.55,1861.55C5436.55,1862.08 5436.76,1862.59 5437.14,1862.97C5437.51,1863.34 5438.02,1863.55 5438.55,1863.55L5454.55,1863.55C5455.08,1863.55 5455.59,1863.34 5455.97,1862.97C5456.34,1862.59 5456.55,1862.08 5456.55,1861.55L5456.55,1845.55ZM5516.56,1845.55C5516.56,1845.02 5516.35,1844.51 5515.98,1844.13C5515.6,1843.76 5515.09,1843.55 5514.56,1843.55L5498.56,1843.55C5498.03,1843.55 5497.52,1843.76 5497.15,1844.13C5496.77,1844.51 5496.56,1845.02 5496.56,1845.55L5496.56,1861.55C5496.56,1862.08 5496.77,1862.59 5497.15,1862.97C5497.52,1863.34 5498.03,1863.55 5498.56,1863.55L5514.56,1863.55C5515.09,1863.55 5515.6,1863.34 5515.98,1862.97C5516.35,1862.59 5516.56,1862.08 5516.56,1861.55L5516.56,1845.55Z" style="fill:rgb(139,24,88);fill-opacity:0.15;"/>
                    </g>
                    <g transform="matrix(0.400872,0,0,0.290625,3359.65,1400.74)">
                        <path d="M5587.53,1821.44C5587.53,1816.88 5586.22,1812.5 5583.88,1809.28C5581.54,1806.05 5578.37,1804.24 5575.06,1804.24C5523.5,1804.24 5327.27,1804.24 5275.71,1804.24C5272.4,1804.24 5269.23,1806.05 5266.89,1809.28C5264.55,1812.5 5263.24,1816.88 5263.24,1821.44C5263.24,1907.76 5263.24,2289.51 5263.24,2289.51L5587.53,2289.51L5587.53,1821.44Z" style="fill:rgb(204,206,219);"/>
                    </g>
                    <g transform="matrix(1,0,0,1,0.754384,0.491517)">
                        <path d="M5588.78,1959.6C5588.78,1959.07 5588.57,1958.56 5588.2,1958.19C5587.82,1957.81 5587.31,1957.6 5586.78,1957.6L5570.78,1957.6C5570.25,1957.6 5569.74,1957.81 5569.37,1958.19C5568.99,1958.56 5568.78,1959.07 5568.78,1959.6C5568.78,1963.43 5568.78,1971.77 5568.78,1975.6C5568.78,1976.13 5568.99,1976.64 5569.37,1977.02C5569.74,1977.39 5570.25,1977.6 5570.78,1977.6L5586.78,1977.6C5587.31,1977.6 5587.82,1977.39 5588.2,1977.02C5588.57,1976.64 5588.78,1976.13 5588.78,1975.6L5588.78,1959.6ZM5558.78,1959.6C5558.78,1959.07 5558.57,1958.56 5558.2,1958.19C5557.82,1957.81 5557.31,1957.6 5556.78,1957.6L5540.78,1957.6C5540.25,1957.6 5539.74,1957.81 5539.37,1958.19C5538.99,1958.56 5538.78,1959.07 5538.78,1959.6L5538.78,1975.6C5538.78,1976.13 5538.99,1976.64 5539.37,1977.02C5539.74,1977.39 5540.25,1977.6 5540.78,1977.6C5544.61,1977.6 5552.95,1977.6 5556.78,1977.6C5557.31,1977.6 5557.82,1977.39 5558.2,1977.02C5558.57,1976.64 5558.78,1976.13 5558.78,1975.6L5558.78,1959.6ZM5498.78,1959.6C5498.78,1959.07 5498.57,1958.56 5498.2,1958.19C5497.82,1957.81 5497.31,1957.6 5496.78,1957.6L5480.78,1957.6C5480.25,1957.6 5479.74,1957.81 5479.37,1958.19C5478.99,1958.56 5478.78,1959.07 5478.78,1959.6L5478.78,1975.6C5478.78,1976.13 5478.99,1976.64 5479.37,1977.02C5479.74,1977.39 5480.25,1977.6 5480.78,1977.6C5484.61,1977.6 5492.95,1977.6 5496.78,1977.6C5497.31,1977.6 5497.82,1977.39 5498.2,1977.02C5498.57,1976.64 5498.78,1976.13 5498.78,1975.6L5498.78,1959.6ZM5528.78,1959.6C5528.78,1959.07 5528.57,1958.56 5528.2,1958.19C5527.82,1957.81 5527.31,1957.6 5526.78,1957.6L5510.78,1957.6C5510.25,1957.6 5509.74,1957.81 5509.37,1958.19C5508.99,1958.56 5508.78,1959.07 5508.78,1959.6L5508.78,1975.6C5508.78,1976.13 5508.99,1976.64 5509.37,1977.02C5509.74,1977.39 5510.25,1977.6 5510.78,1977.6C5514.61,1977.6 5522.95,1977.6 5526.78,1977.6C5527.31,1977.6 5527.82,1977.39 5528.2,1977.02C5528.57,1976.64 5528.78,1976.13 5528.78,1975.6L5528.78,1959.6ZM5588.78,1929.6C5588.78,1929.07 5588.57,1928.56 5588.2,1928.19C5587.82,1927.81 5587.31,1927.6 5586.78,1927.6L5570.78,1927.6C5570.25,1927.6 5569.74,1927.81 5569.37,1928.19C5568.99,1928.56 5568.78,1929.07 5568.78,1929.6C5568.78,1933.43 5568.78,1941.77 5568.78,1945.6C5568.78,1946.13 5568.99,1946.64 5569.37,1947.02C5569.74,1947.39 5570.25,1947.6 5570.78,1947.6L5586.78,1947.6C5587.31,1947.6 5587.82,1947.39 5588.2,1947.02C5588.57,1946.64 5588.78,1946.13 5588.78,1945.6C5588.78,1941.77 5588.78,1933.43 5588.78,1929.6ZM5498.78,1929.6C5498.78,1929.07 5498.57,1928.56 5498.2,1928.19C5497.82,1927.81 5497.31,1927.6 5496.78,1927.6C5492.95,1927.6 5484.61,1927.6 5480.78,1927.6C5480.25,1927.6 5479.74,1927.81 5479.37,1928.19C5478.99,1928.56 5478.78,1929.07 5478.78,1929.6L5478.78,1945.6C5478.78,1946.13 5478.99,1946.64 5479.37,1947.02C5479.74,1947.39 5480.25,1947.6 5480.78,1947.6L5496.78,1947.6C5497.31,1947.6 5497.82,1947.39 5498.2,1947.02C5498.57,1946.64 5498.78,1946.13 5498.78,1945.6L5498.78,1929.6ZM5528.78,1929.6C5528.78,1929.07 5528.57,1928.56 5528.2,1928.19C5527.82,1927.81 5527.31,1927.6 5526.78,1927.6C5522.95,1927.6 5514.61,1927.6 5510.78,1927.6C5510.25,1927.6 5509.74,1927.81 5509.37,1928.19C5508.99,1928.56 5508.78,1929.07 5508.78,1929.6L5508.78,1945.6C5508.78,1946.13 5508.99,1946.64 5509.37,1947.02C5509.74,1947.39 5510.25,1947.6 5510.78,1947.6L5526.78,1947.6C5527.31,1947.6 5527.82,1947.39 5528.2,1947.02C5528.57,1946.64 5528.78,1946.13 5528.78,1945.6L5528.78,1929.6ZM5558.78,1929.6C5558.78,1929.07 5558.57,1928.56 5558.2,1928.19C5557.82,1927.81 5557.31,1927.6 5556.78,1927.6L5540.78,1927.6C5540.25,1927.6 5539.74,1927.81 5539.37,1928.19C5538.99,1928.56 5538.78,1929.07 5538.78,1929.6L5538.78,1945.6C5538.78,1946.13 5538.99,1946.64 5539.37,1947.02C5539.74,1947.39 5540.25,1947.6 5540.78,1947.6L5556.78,1947.6C5557.31,1947.6 5557.82,1947.39 5558.2,1947.02C5558.57,1946.64 5558.78,1946.13 5558.78,1945.6L5558.78,1929.6Z" style="fill:rgb(45,54,96);fill-opacity:0.45;"/>
                    </g>
                    <g transform="matrix(0.215854,0,0,0.259067,4242.67,1414.77)">
                        <path d="M5587.53,1812.83C5587.53,1807.36 5584.75,1802.15 5579.87,1798.49C5547.9,1774.5 5426.82,1683.67 5426.82,1683.67C5426.82,1683.67 5303.62,1774.47 5271.06,1798.48C5266.08,1802.14 5263.24,1807.4 5263.24,1812.93C5263.24,1878.25 5263.24,2289.51 5263.24,2289.51L5587.53,2289.51L5587.53,1812.83Z" style="fill:rgb(204,206,219);"/>
                    </g>
                    <g transform="matrix(1,0,0,1,5.75438,2.49152)">
                        <path d="M5403.01,1951.69C5403.01,1951.16 5402.8,1950.65 5402.42,1950.28C5402.05,1949.9 5401.54,1949.69 5401.01,1949.69L5385.01,1949.69C5384.48,1949.69 5383.97,1949.9 5383.6,1950.28C5383.22,1950.65 5383.01,1951.16 5383.01,1951.69L5383.01,1967.69C5383.01,1968.22 5383.22,1968.73 5383.6,1969.11C5383.97,1969.48 5384.48,1969.69 5385.01,1969.69C5388.84,1969.69 5397.18,1969.69 5401.01,1969.69C5401.54,1969.69 5402.05,1969.48 5402.42,1969.11C5402.8,1968.73 5403.01,1968.22 5403.01,1967.69L5403.01,1951.69ZM5433.01,1951.69C5433.01,1951.16 5432.8,1950.65 5432.42,1950.28C5432.05,1949.9 5431.54,1949.69 5431.01,1949.69C5427.18,1949.69 5418.84,1949.69 5415.01,1949.69C5414.48,1949.69 5413.97,1949.9 5413.6,1950.28C5413.22,1950.65 5413.01,1951.16 5413.01,1951.69L5413.01,1967.69C5413.01,1968.22 5413.22,1968.73 5413.6,1969.11C5413.97,1969.48 5414.48,1969.69 5415.01,1969.69C5418.84,1969.69 5427.18,1969.69 5431.01,1969.69C5431.54,1969.69 5432.05,1969.48 5432.42,1969.11C5432.8,1968.73 5433.01,1968.22 5433.01,1967.69L5433.01,1951.69ZM5403.01,1921.69C5403.01,1921.16 5402.8,1920.65 5402.42,1920.28C5402.05,1919.9 5401.54,1919.69 5401.01,1919.69L5385.01,1919.69C5384.48,1919.69 5383.97,1919.9 5383.6,1920.28C5383.22,1920.65 5383.01,1921.16 5383.01,1921.69L5383.01,1937.69C5383.01,1938.22 5383.22,1938.73 5383.6,1939.11C5383.97,1939.48 5384.48,1939.69 5385.01,1939.69C5388.84,1939.69 5397.18,1939.69 5401.01,1939.69C5401.54,1939.69 5402.05,1939.48 5402.42,1939.11C5402.8,1938.73 5403.01,1938.22 5403.01,1937.69L5403.01,1921.69ZM5433.01,1921.69C5433.01,1921.16 5432.8,1920.65 5432.42,1920.28C5432.05,1919.9 5431.54,1919.69 5431.01,1919.69C5427.18,1919.69 5418.84,1919.69 5415.01,1919.69C5414.48,1919.69 5413.97,1919.9 5413.6,1920.28C5413.22,1920.65 5413.01,1921.16 5413.01,1921.69L5413.01,1937.69C5413.01,1938.22 5413.22,1938.73 5413.6,1939.11C5413.97,1939.48 5414.48,1939.69 5415.01,1939.69C5418.84,1939.69 5427.18,1939.69 5431.01,1939.69C5431.54,1939.69 5432.05,1939.48 5432.42,1939.11C5432.8,1938.73 5433.01,1938.22 5433.01,1937.69L5433.01,1921.69ZM5403.01,1891.69C5403.01,1891.16 5402.8,1890.65 5402.42,1890.28C5402.05,1889.9 5401.54,1889.69 5401.01,1889.69L5385.01,1889.69C5384.48,1889.69 5383.97,1889.9 5383.6,1890.28C5383.22,1890.65 5383.01,1891.16 5383.01,1891.69L5383.01,1907.69C5383.01,1908.22 5383.22,1908.73 5383.6,1909.11C5383.97,1909.48 5384.48,1909.69 5385.01,1909.69L5401.01,1909.69C5401.54,1909.69 5402.05,1909.48 5402.42,1909.11C5402.8,1908.73 5403.01,1908.22 5403.01,1907.69L5403.01,1891.69ZM5433.01,1891.69C5433.01,1891.16 5432.8,1890.65 5432.42,1890.28C5432.05,1889.9 5431.54,1889.69 5431.01,1889.69C5427.18,1889.69 5418.84,1889.69 5415.01,1889.69C5414.48,1889.69 5413.97,1889.9 5413.6,1890.28C5413.22,1890.65 5413.01,1891.16 5413.01,1891.69L5413.01,1907.69C5413.01,1908.22 5413.22,1908.73 5413.6,1909.11C5413.97,1909.48 5414.48,1909.69 5415.01,1909.69L5431.01,1909.69C5431.54,1909.69 5432.05,1909.48 5432.42,1909.11C5432.8,1908.73 5433.01,1908.22 5433.01,1907.69L5433.01,1891.69Z" style="fill:rgb(139,24,88);fill-opacity:0.45;"/>
                    </g>
                    <g transform="matrix(0.0154819,0,0,0.203228,5188.56,1437.9)">
                        <path d="M5587.53,1816.59C5587.53,1809.77 5514.95,1804.24 5425.41,1804.24C5425.39,1804.24 5425.38,1804.24 5425.36,1804.24C5335.82,1804.24 5263.24,1809.77 5263.24,1816.59C5263.24,1892.21 5263.24,2289.51 5263.24,2289.51L5587.53,2289.51C5587.53,2289.51 5587.53,1892.21 5587.53,1816.59Z" style="fill:rgb(204,206,219);"/>
                    </g>
                    <g transform="matrix(0.0946789,0,0,0.203228,4758.89,1458.55)">
                        <path d="M5587.53,1828.84C5587.53,1822.31 5581.97,1816.06 5572.06,1811.44C5562.16,1806.83 5548.73,1804.24 5534.72,1804.24C5474.42,1804.24 5376.35,1804.24 5316.05,1804.24C5302.04,1804.24 5288.61,1806.83 5278.71,1811.44C5268.8,1816.06 5263.24,1822.31 5263.24,1828.84C5263.24,1927.54 5263.24,2289.51 5263.24,2289.51L5587.53,2289.51C5587.53,2289.51 5587.53,1927.54 5587.53,1828.84Z" style="fill:rgb(204,206,219);"/>
                    </g>
                    <g transform="matrix(0.215854,0,0,0.203228,4101.46,1481.51)">
                        <path d="M5587.53,1828.84C5587.53,1822.31 5585.09,1816.06 5580.75,1811.44C5576.4,1806.83 5570.51,1804.24 5564.37,1804.24C5504.67,1804.24 5346.1,1804.24 5286.4,1804.24C5280.26,1804.24 5274.37,1806.83 5270.02,1811.44C5265.68,1816.06 5263.24,1822.31 5263.24,1828.84C5263.24,1927.54 5263.24,2289.51 5263.24,2289.51L5587.53,2289.51C5587.53,2289.51 5587.53,1927.54 5587.53,1828.84Z" style="fill:rgb(220,222,236);"/>
                    </g>
                    <g transform="matrix(0.400872,0,0,0.406455,3097.39,1135.75)">
                        <path d="M5587.53,1816.54C5587.53,1813.28 5586.22,1810.15 5583.88,1807.84C5581.54,1805.53 5578.37,1804.24 5575.06,1804.24C5523.5,1804.24 5327.27,1804.24 5275.71,1804.24C5272.4,1804.24 5269.23,1805.53 5266.89,1807.84C5264.55,1810.15 5263.24,1813.28 5263.24,1816.54C5263.24,1892.04 5263.24,2289.51 5263.24,2289.51L5587.53,2289.51C5587.53,2289.51 5587.53,1892.04 5587.53,1816.54Z" style="fill:rgb(204,206,219);"/>
                    </g>
                    <g transform="matrix(1,0,0,1,3.03858,35.546)">
                        <path d="M5264.24,1935.56C5264.24,1935.03 5264.03,1934.52 5263.66,1934.14C5263.28,1933.77 5262.77,1933.56 5262.24,1933.56C5258.41,1933.56 5250.07,1933.56 5246.24,1933.56C5245.71,1933.56 5245.2,1933.77 5244.83,1934.14C5244.45,1934.52 5244.24,1935.03 5244.24,1935.56C5244.24,1939.39 5244.24,1947.73 5244.24,1951.56C5244.24,1952.09 5244.45,1952.6 5244.83,1952.98C5245.2,1953.35 5245.71,1953.56 5246.24,1953.56C5250.07,1953.56 5258.41,1953.56 5262.24,1953.56C5262.77,1953.56 5263.28,1953.35 5263.66,1952.98C5264.03,1952.6 5264.24,1952.09 5264.24,1951.56L5264.24,1935.56ZM5294.25,1935.56C5294.25,1935.03 5294.04,1934.52 5293.66,1934.14C5293.29,1933.77 5292.78,1933.56 5292.25,1933.56L5276.24,1933.56C5275.72,1933.56 5275.21,1933.77 5274.83,1934.14C5274.46,1934.52 5274.24,1935.03 5274.24,1935.56L5274.24,1951.56C5274.24,1952.09 5274.46,1952.6 5274.83,1952.98C5275.21,1953.35 5275.72,1953.56 5276.24,1953.56C5280.08,1953.56 5288.42,1953.56 5292.25,1953.56C5292.78,1953.56 5293.29,1953.35 5293.66,1952.98C5294.04,1952.6 5294.25,1952.09 5294.25,1951.56L5294.25,1935.56ZM5234.24,1935.56C5234.24,1935.03 5234.03,1934.52 5233.65,1934.14C5233.28,1933.77 5232.77,1933.56 5232.24,1933.56L5216.23,1933.56C5215.7,1933.56 5215.2,1933.77 5214.82,1934.14C5214.45,1934.52 5214.23,1935.03 5214.23,1935.56L5214.23,1951.56C5214.23,1952.09 5214.45,1952.6 5214.82,1952.98C5215.2,1953.35 5215.7,1953.56 5216.23,1953.56L5232.24,1953.56C5232.77,1953.56 5233.28,1953.35 5233.65,1952.98C5234.03,1952.6 5234.24,1952.09 5234.24,1951.56L5234.24,1935.56ZM5324.25,1935.56C5324.25,1935.03 5324.04,1934.52 5323.67,1934.14C5323.29,1933.77 5322.78,1933.56 5322.25,1933.56L5306.25,1933.56C5305.72,1933.56 5305.21,1933.77 5304.84,1934.14C5304.46,1934.52 5304.25,1935.03 5304.25,1935.56L5304.25,1951.56C5304.25,1952.09 5304.46,1952.6 5304.84,1952.98C5305.21,1953.35 5305.72,1953.56 5306.25,1953.56L5322.25,1953.56C5322.78,1953.56 5323.29,1953.35 5323.67,1952.98C5324.04,1952.6 5324.25,1952.09 5324.25,1951.56L5324.25,1935.56ZM5264.24,1905.56C5264.24,1905.03 5264.03,1904.52 5263.66,1904.14C5263.28,1903.77 5262.77,1903.56 5262.24,1903.56L5246.24,1903.56C5245.71,1903.56 5245.2,1903.77 5244.83,1904.14C5244.45,1904.52 5244.24,1905.03 5244.24,1905.56C5244.24,1909.39 5244.24,1917.73 5244.24,1921.56C5244.24,1922.09 5244.45,1922.6 5244.83,1922.97C5245.2,1923.35 5245.71,1923.56 5246.24,1923.56L5262.24,1923.56C5262.77,1923.56 5263.28,1923.35 5263.66,1922.97C5264.03,1922.6 5264.24,1922.09 5264.24,1921.56L5264.24,1905.56ZM5294.25,1905.56C5294.25,1905.03 5294.04,1904.52 5293.66,1904.14C5293.29,1903.77 5292.78,1903.56 5292.25,1903.56L5276.24,1903.56C5275.72,1903.56 5275.21,1903.77 5274.83,1904.14C5274.46,1904.52 5274.24,1905.03 5274.24,1905.56L5274.24,1921.56C5274.24,1922.09 5274.46,1922.6 5274.83,1922.97C5275.21,1923.35 5275.72,1923.56 5276.24,1923.56L5292.25,1923.56C5292.78,1923.56 5293.29,1923.35 5293.66,1922.97C5294.04,1922.6 5294.25,1922.09 5294.25,1921.56L5294.25,1905.56ZM5234.24,1905.56C5234.24,1905.03 5234.03,1904.52 5233.65,1904.14C5233.28,1903.77 5232.77,1903.56 5232.24,1903.56L5216.23,1903.56C5215.7,1903.56 5215.2,1903.77 5214.82,1904.14C5214.45,1904.52 5214.23,1905.03 5214.23,1905.56L5214.23,1921.56C5214.23,1922.09 5214.45,1922.6 5214.82,1922.97C5215.2,1923.35 5215.7,1923.56 5216.23,1923.56L5232.24,1923.56C5232.77,1923.56 5233.28,1923.35 5233.65,1922.97C5234.03,1922.6 5234.24,1922.09 5234.24,1921.56L5234.24,1905.56ZM5324.25,1905.56C5324.25,1905.03 5324.04,1904.52 5323.67,1904.14C5323.29,1903.77 5322.78,1903.56 5322.25,1903.56C5318.42,1903.56 5310.08,1903.56 5306.25,1903.56C5305.72,1903.56 5305.21,1903.77 5304.84,1904.14C5304.46,1904.52 5304.25,1905.03 5304.25,1905.56L5304.25,1921.56C5304.25,1922.09 5304.46,1922.6 5304.84,1922.97C5305.21,1923.35 5305.72,1923.56 5306.25,1923.56L5322.25,1923.56C5322.78,1923.56 5323.29,1923.35 5323.67,1922.97C5324.04,1922.6 5324.25,1922.09 5324.25,1921.56L5324.25,1905.56ZM5324.24,1875.55C5324.24,1875.02 5324.03,1874.51 5323.66,1874.14C5323.28,1873.76 5322.77,1873.55 5322.24,1873.55L5306.24,1873.55C5305.71,1873.55 5305.2,1873.76 5304.82,1874.14C5304.45,1874.51 5304.24,1875.02 5304.24,1875.55L5304.24,1891.56C5304.24,1892.09 5304.45,1892.6 5304.82,1892.97C5305.2,1893.35 5305.71,1893.56 5306.24,1893.56L5322.24,1893.56C5322.77,1893.56 5323.28,1893.35 5323.66,1892.97C5324.03,1892.6 5324.24,1892.09 5324.24,1891.56L5324.24,1875.55ZM5234.23,1875.55C5234.23,1875.02 5234.02,1874.51 5233.64,1874.14C5233.27,1873.76 5232.76,1873.55 5232.23,1873.55L5216.22,1873.55C5215.69,1873.55 5215.18,1873.76 5214.81,1874.14C5214.43,1874.51 5214.22,1875.02 5214.22,1875.55L5214.22,1891.56C5214.22,1892.09 5214.43,1892.6 5214.81,1892.97C5215.18,1893.35 5215.69,1893.56 5216.22,1893.56L5232.23,1893.56C5232.76,1893.56 5233.27,1893.35 5233.64,1892.97C5234.02,1892.6 5234.23,1892.09 5234.23,1891.56L5234.23,1875.55ZM5264.23,1875.55C5264.23,1875.02 5264.02,1874.51 5263.65,1874.14C5263.27,1873.76 5262.76,1873.55 5262.23,1873.55L5246.23,1873.55C5245.7,1873.55 5245.19,1873.76 5244.82,1874.14C5244.44,1874.51 5244.23,1875.02 5244.23,1875.55C5244.23,1879.38 5244.23,1887.72 5244.23,1891.56C5244.23,1892.09 5244.44,1892.6 5244.82,1892.97C5245.19,1893.35 5245.7,1893.56 5246.23,1893.56L5262.23,1893.56C5262.76,1893.56 5263.27,1893.35 5263.65,1892.97C5264.02,1892.6 5264.23,1892.09 5264.23,1891.56L5264.23,1875.55ZM5294.24,1875.55C5294.24,1875.02 5294.03,1874.51 5293.65,1874.14C5293.28,1873.76 5292.77,1873.55 5292.24,1873.55L5276.23,1873.55C5275.7,1873.55 5275.19,1873.76 5274.82,1874.14C5274.44,1874.51 5274.23,1875.02 5274.23,1875.55L5274.23,1891.56C5274.23,1892.09 5274.44,1892.6 5274.82,1892.97C5275.19,1893.35 5275.7,1893.56 5276.23,1893.56L5292.24,1893.56C5292.77,1893.56 5293.28,1893.35 5293.65,1892.97C5294.03,1892.6 5294.24,1892.09 5294.24,1891.56C5294.24,1887.72 5294.24,1879.38 5294.24,1875.55ZM5264.24,1845.55C5264.24,1845.02 5264.03,1844.51 5263.66,1844.13C5263.28,1843.76 5262.77,1843.55 5262.24,1843.55L5246.24,1843.55C5245.71,1843.55 5245.2,1843.76 5244.83,1844.13C5244.45,1844.51 5244.24,1845.02 5244.24,1845.55C5244.24,1849.38 5244.24,1857.72 5244.24,1861.55C5244.24,1862.08 5244.45,1862.59 5244.83,1862.97C5245.2,1863.34 5245.71,1863.55 5246.24,1863.55L5262.24,1863.55C5262.77,1863.55 5263.28,1863.34 5263.66,1862.97C5264.03,1862.59 5264.24,1862.08 5264.24,1861.55L5264.24,1845.55ZM5294.25,1845.55C5294.25,1845.02 5294.04,1844.51 5293.66,1844.13C5293.29,1843.76 5292.78,1843.55 5292.25,1843.55L5276.24,1843.55C5275.72,1843.55 5275.21,1843.76 5274.83,1844.13C5274.46,1844.51 5274.24,1845.02 5274.24,1845.55L5274.24,1861.55C5274.24,1862.08 5274.46,1862.59 5274.83,1862.97C5275.21,1863.34 5275.72,1863.55 5276.24,1863.55C5280.08,1863.55 5288.42,1863.55 5292.25,1863.55C5292.78,1863.55 5293.29,1863.34 5293.66,1862.97C5294.04,1862.59 5294.25,1862.08 5294.25,1861.55L5294.25,1845.55ZM5234.24,1845.55C5234.24,1845.02 5234.03,1844.51 5233.65,1844.13C5233.28,1843.76 5232.77,1843.55 5232.24,1843.55L5216.23,1843.55C5215.7,1843.55 5215.2,1843.76 5214.82,1844.13C5214.45,1844.51 5214.23,1845.02 5214.23,1845.55L5214.23,1861.55C5214.23,1862.08 5214.45,1862.59 5214.82,1862.97C5215.2,1863.34 5215.7,1863.55 5216.23,1863.55L5232.24,1863.55C5232.77,1863.55 5233.28,1863.34 5233.65,1862.97C5234.03,1862.59 5234.24,1862.08 5234.24,1861.55L5234.24,1845.55ZM5324.25,1845.55C5324.25,1845.02 5324.04,1844.51 5323.67,1844.13C5323.29,1843.76 5322.78,1843.55 5322.25,1843.55C5318.42,1843.55 5310.08,1843.55 5306.25,1843.55C5305.72,1843.55 5305.21,1843.76 5304.84,1844.13C5304.46,1844.51 5304.25,1845.02 5304.25,1845.55L5304.25,1861.55C5304.25,1862.08 5304.46,1862.59 5304.84,1862.97C5305.21,1863.34 5305.72,1863.55 5306.25,1863.55L5322.25,1863.55C5322.78,1863.55 5323.29,1863.34 5323.67,1862.97C5324.04,1862.59 5324.25,1862.08 5324.25,1861.55L5324.25,1845.55Z" style="fill:rgb(139,24,88);fill-opacity:0.45;"/>
                    </g>
                    <g transform="matrix(1,0,0,1,0.754384,120.505)">
                        <path d="M5264.24,1935.56C5264.24,1935.03 5264.03,1934.52 5263.66,1934.14C5263.28,1933.77 5262.77,1933.56 5262.24,1933.56C5258.41,1933.56 5250.07,1933.56 5246.24,1933.56C5245.71,1933.56 5245.2,1933.77 5244.83,1934.14C5244.45,1934.52 5244.24,1935.03 5244.24,1935.56C5244.24,1939.39 5244.24,1947.73 5244.24,1951.56C5244.24,1952.09 5244.45,1952.6 5244.83,1952.98C5245.2,1953.35 5245.71,1953.56 5246.24,1953.56C5250.07,1953.56 5258.41,1953.56 5262.24,1953.56C5262.77,1953.56 5263.28,1953.35 5263.66,1952.98C5264.03,1952.6 5264.24,1952.09 5264.24,1951.56L5264.24,1935.56ZM5294.25,1935.56C5294.25,1935.03 5294.04,1934.52 5293.66,1934.14C5293.29,1933.77 5292.78,1933.56 5292.25,1933.56L5276.24,1933.56C5275.72,1933.56 5275.21,1933.77 5274.83,1934.14C5274.46,1934.52 5274.24,1935.03 5274.24,1935.56L5274.24,1951.56C5274.24,1952.09 5274.46,1952.6 5274.83,1952.98C5275.21,1953.35 5275.72,1953.56 5276.24,1953.56C5280.08,1953.56 5288.42,1953.56 5292.25,1953.56C5292.78,1953.56 5293.29,1953.35 5293.66,1952.98C5294.04,1952.6 5294.25,1952.09 5294.25,1951.56L5294.25,1935.56ZM5234.24,1935.56C5234.24,1935.03 5234.03,1934.52 5233.65,1934.14C5233.28,1933.77 5232.77,1933.56 5232.24,1933.56L5216.23,1933.56C5215.7,1933.56 5215.2,1933.77 5214.82,1934.14C5214.45,1934.52 5214.23,1935.03 5214.23,1935.56L5214.23,1951.56C5214.23,1952.09 5214.45,1952.6 5214.82,1952.98C5215.2,1953.35 5215.7,1953.56 5216.23,1953.56L5232.24,1953.56C5232.77,1953.56 5233.28,1953.35 5233.65,1952.98C5234.03,1952.6 5234.24,1952.09 5234.24,1951.56L5234.24,1935.56ZM5324.25,1935.56C5324.25,1935.03 5324.04,1934.52 5323.67,1934.14C5323.29,1933.77 5322.78,1933.56 5322.25,1933.56L5306.25,1933.56C5305.72,1933.56 5305.21,1933.77 5304.84,1934.14C5304.46,1934.52 5304.25,1935.03 5304.25,1935.56L5304.25,1951.56C5304.25,1952.09 5304.46,1952.6 5304.84,1952.98C5305.21,1953.35 5305.72,1953.56 5306.25,1953.56L5322.25,1953.56C5322.78,1953.56 5323.29,1953.35 5323.67,1952.98C5324.04,1952.6 5324.25,1952.09 5324.25,1951.56L5324.25,1935.56ZM5264.24,1905.56C5264.24,1905.03 5264.03,1904.52 5263.66,1904.14C5263.28,1903.77 5262.77,1903.56 5262.24,1903.56L5246.24,1903.56C5245.71,1903.56 5245.2,1903.77 5244.83,1904.14C5244.45,1904.52 5244.24,1905.03 5244.24,1905.56C5244.24,1909.39 5244.24,1917.73 5244.24,1921.56C5244.24,1922.09 5244.45,1922.6 5244.83,1922.97C5245.2,1923.35 5245.71,1923.56 5246.24,1923.56L5262.24,1923.56C5262.77,1923.56 5263.28,1923.35 5263.66,1922.97C5264.03,1922.6 5264.24,1922.09 5264.24,1921.56L5264.24,1905.56ZM5294.25,1905.56C5294.25,1905.03 5294.04,1904.52 5293.66,1904.14C5293.29,1903.77 5292.78,1903.56 5292.25,1903.56L5276.24,1903.56C5275.72,1903.56 5275.21,1903.77 5274.83,1904.14C5274.46,1904.52 5274.24,1905.03 5274.24,1905.56L5274.24,1921.56C5274.24,1922.09 5274.46,1922.6 5274.83,1922.97C5275.21,1923.35 5275.72,1923.56 5276.24,1923.56L5292.25,1923.56C5292.78,1923.56 5293.29,1923.35 5293.66,1922.97C5294.04,1922.6 5294.25,1922.09 5294.25,1921.56L5294.25,1905.56ZM5234.24,1905.56C5234.24,1905.03 5234.03,1904.52 5233.65,1904.14C5233.28,1903.77 5232.77,1903.56 5232.24,1903.56L5216.23,1903.56C5215.7,1903.56 5215.2,1903.77 5214.82,1904.14C5214.45,1904.52 5214.23,1905.03 5214.23,1905.56L5214.23,1921.56C5214.23,1922.09 5214.45,1922.6 5214.82,1922.97C5215.2,1923.35 5215.7,1923.56 5216.23,1923.56L5232.24,1923.56C5232.77,1923.56 5233.28,1923.35 5233.65,1922.97C5234.03,1922.6 5234.24,1922.09 5234.24,1921.56L5234.24,1905.56ZM5324.25,1905.56C5324.25,1905.03 5324.04,1904.52 5323.67,1904.14C5323.29,1903.77 5322.78,1903.56 5322.25,1903.56C5318.42,1903.56 5310.08,1903.56 5306.25,1903.56C5305.72,1903.56 5305.21,1903.77 5304.84,1904.14C5304.46,1904.52 5304.25,1905.03 5304.25,1905.56L5304.25,1921.56C5304.25,1922.09 5304.46,1922.6 5304.84,1922.97C5305.21,1923.35 5305.72,1923.56 5306.25,1923.56L5322.25,1923.56C5322.78,1923.56 5323.29,1923.35 5323.67,1922.97C5324.04,1922.6 5324.25,1922.09 5324.25,1921.56L5324.25,1905.56ZM5324.24,1875.55C5324.24,1875.02 5324.03,1874.51 5323.66,1874.14C5323.28,1873.76 5322.77,1873.55 5322.24,1873.55L5306.24,1873.55C5305.71,1873.55 5305.2,1873.76 5304.82,1874.14C5304.45,1874.51 5304.24,1875.02 5304.24,1875.55L5304.24,1891.56C5304.24,1892.09 5304.45,1892.6 5304.82,1892.97C5305.2,1893.35 5305.71,1893.56 5306.24,1893.56L5322.24,1893.56C5322.77,1893.56 5323.28,1893.35 5323.66,1892.97C5324.03,1892.6 5324.24,1892.09 5324.24,1891.56L5324.24,1875.55ZM5234.23,1875.55C5234.23,1875.02 5234.02,1874.51 5233.64,1874.14C5233.27,1873.76 5232.76,1873.55 5232.23,1873.55L5216.22,1873.55C5215.69,1873.55 5215.18,1873.76 5214.81,1874.14C5214.43,1874.51 5214.22,1875.02 5214.22,1875.55L5214.22,1891.56C5214.22,1892.09 5214.43,1892.6 5214.81,1892.97C5215.18,1893.35 5215.69,1893.56 5216.22,1893.56L5232.23,1893.56C5232.76,1893.56 5233.27,1893.35 5233.64,1892.97C5234.02,1892.6 5234.23,1892.09 5234.23,1891.56L5234.23,1875.55ZM5264.23,1875.55C5264.23,1875.02 5264.02,1874.51 5263.65,1874.14C5263.27,1873.76 5262.76,1873.55 5262.23,1873.55L5246.23,1873.55C5245.7,1873.55 5245.19,1873.76 5244.82,1874.14C5244.44,1874.51 5244.23,1875.02 5244.23,1875.55C5244.23,1879.38 5244.23,1887.72 5244.23,1891.56C5244.23,1892.09 5244.44,1892.6 5244.82,1892.97C5245.19,1893.35 5245.7,1893.56 5246.23,1893.56L5262.23,1893.56C5262.76,1893.56 5263.27,1893.35 5263.65,1892.97C5264.02,1892.6 5264.23,1892.09 5264.23,1891.56L5264.23,1875.55ZM5294.24,1875.55C5294.24,1875.02 5294.03,1874.51 5293.65,1874.14C5293.28,1873.76 5292.77,1873.55 5292.24,1873.55L5276.23,1873.55C5275.7,1873.55 5275.19,1873.76 5274.82,1874.14C5274.44,1874.51 5274.23,1875.02 5274.23,1875.55L5274.23,1891.56C5274.23,1892.09 5274.44,1892.6 5274.82,1892.97C5275.19,1893.35 5275.7,1893.56 5276.23,1893.56L5292.24,1893.56C5292.77,1893.56 5293.28,1893.35 5293.65,1892.97C5294.03,1892.6 5294.24,1892.09 5294.24,1891.56C5294.24,1887.72 5294.24,1879.38 5294.24,1875.55ZM5264.24,1845.55C5264.24,1845.02 5264.03,1844.51 5263.66,1844.13C5263.28,1843.76 5262.77,1843.55 5262.24,1843.55L5246.24,1843.55C5245.71,1843.55 5245.2,1843.76 5244.83,1844.13C5244.45,1844.51 5244.24,1845.02 5244.24,1845.55C5244.24,1849.38 5244.24,1857.72 5244.24,1861.55C5244.24,1862.08 5244.45,1862.59 5244.83,1862.97C5245.2,1863.34 5245.71,1863.55 5246.24,1863.55L5262.24,1863.55C5262.77,1863.55 5263.28,1863.34 5263.66,1862.97C5264.03,1862.59 5264.24,1862.08 5264.24,1861.55L5264.24,1845.55ZM5294.25,1845.55C5294.25,1845.02 5294.04,1844.51 5293.66,1844.13C5293.29,1843.76 5292.78,1843.55 5292.25,1843.55L5276.24,1843.55C5275.72,1843.55 5275.21,1843.76 5274.83,1844.13C5274.46,1844.51 5274.24,1845.02 5274.24,1845.55L5274.24,1861.55C5274.24,1862.08 5274.46,1862.59 5274.83,1862.97C5275.21,1863.34 5275.72,1863.55 5276.24,1863.55C5280.08,1863.55 5288.42,1863.55 5292.25,1863.55C5292.78,1863.55 5293.29,1863.34 5293.66,1862.97C5294.04,1862.59 5294.25,1862.08 5294.25,1861.55L5294.25,1845.55ZM5234.24,1845.55C5234.24,1845.02 5234.03,1844.51 5233.65,1844.13C5233.28,1843.76 5232.77,1843.55 5232.24,1843.55L5216.23,1843.55C5215.7,1843.55 5215.2,1843.76 5214.82,1844.13C5214.45,1844.51 5214.23,1845.02 5214.23,1845.55L5214.23,1861.55C5214.23,1862.08 5214.45,1862.59 5214.82,1862.97C5215.2,1863.34 5215.7,1863.55 5216.23,1863.55L5232.24,1863.55C5232.77,1863.55 5233.28,1863.34 5233.65,1862.97C5234.03,1862.59 5234.24,1862.08 5234.24,1861.55L5234.24,1845.55ZM5324.25,1845.55C5324.25,1845.02 5324.04,1844.51 5323.67,1844.13C5323.29,1843.76 5322.78,1843.55 5322.25,1843.55C5318.42,1843.55 5310.08,1843.55 5306.25,1843.55C5305.72,1843.55 5305.21,1843.76 5304.84,1844.13C5304.46,1844.51 5304.25,1845.02 5304.25,1845.55L5304.25,1861.55C5304.25,1862.08 5304.46,1862.59 5304.84,1862.97C5305.21,1863.34 5305.72,1863.55 5306.25,1863.55L5322.25,1863.55C5322.78,1863.55 5323.29,1863.34 5323.67,1862.97C5324.04,1862.59 5324.25,1862.08 5324.25,1861.55L5324.25,1845.55Z" style="fill:rgb(45,54,96);fill-opacity:0.45;"/>
                    </g>
                </g>
                <g transform="matrix(1.00509,0,0,0.81637,-131.306,265.287)">
                    <rect x="5309.49" y="2110.12" width="1208.31" height="208.351" style="fill:rgb(244,243,244);"/>
                </g>
                <g>
                    <g transform="matrix(1,0,0,1,563.759,161.499)">
                        <g transform="matrix(0.400872,0,0,0.41181,3502.65,1051.67)">
                            <path d="M5587.53,1816.38C5587.53,1813.16 5586.22,1810.07 5583.88,1807.79C5581.54,1805.52 5578.37,1804.24 5575.06,1804.24C5523.5,1804.24 5327.27,1804.24 5275.71,1804.24C5272.4,1804.24 5269.23,1805.52 5266.89,1807.79C5264.55,1810.07 5263.24,1813.16 5263.24,1816.38C5263.24,1891.48 5263.24,2289.51 5263.24,2289.51L5587.53,2289.51L5587.53,1816.38Z" style="fill:rgb(204,206,219);fill-opacity:0.4;"/>
                        </g>
                        <g transform="matrix(1,0,0,1,185.988,-38.8776)">
                            <path d="M5486.56,1965.56C5486.56,1965.03 5486.35,1964.52 5485.97,1964.15C5485.6,1963.77 5485.09,1963.56 5484.56,1963.56L5468.56,1963.56C5468.03,1963.56 5467.52,1963.77 5467.14,1964.15C5466.77,1964.52 5466.56,1965.03 5466.56,1965.56L5466.56,1981.57C5466.56,1982.1 5466.77,1982.61 5467.14,1982.98C5467.52,1983.36 5468.03,1983.57 5468.56,1983.57L5484.56,1983.57C5485.09,1983.57 5485.6,1983.36 5485.97,1982.98C5486.35,1982.61 5486.56,1982.1 5486.56,1981.57L5486.56,1965.56ZM5456.55,1965.56C5456.55,1965.03 5456.34,1964.52 5455.97,1964.15C5455.59,1963.77 5455.08,1963.56 5454.55,1963.56L5438.55,1963.56C5438.02,1963.56 5437.51,1963.77 5437.14,1964.15C5436.76,1964.52 5436.55,1965.03 5436.55,1965.56L5436.55,1981.57C5436.55,1982.1 5436.76,1982.61 5437.14,1982.98C5437.51,1983.36 5438.02,1983.57 5438.55,1983.57L5454.55,1983.57C5455.08,1983.57 5455.59,1983.36 5455.97,1982.98C5456.34,1982.61 5456.55,1982.1 5456.55,1981.57L5456.55,1965.56ZM5516.56,1965.56C5516.56,1965.03 5516.35,1964.52 5515.98,1964.15C5515.6,1963.77 5515.09,1963.56 5514.56,1963.56L5498.56,1963.56C5498.03,1963.56 5497.52,1963.77 5497.15,1964.15C5496.77,1964.52 5496.56,1965.03 5496.56,1965.56C5496.56,1969.39 5496.56,1977.73 5496.56,1981.57C5496.56,1982.1 5496.77,1982.61 5497.15,1982.98C5497.52,1983.36 5498.03,1983.57 5498.56,1983.57L5514.56,1983.57C5515.09,1983.57 5515.6,1983.36 5515.98,1982.98C5516.35,1982.61 5516.56,1982.1 5516.56,1981.57L5516.56,1965.56ZM5546.57,1965.56C5546.57,1965.03 5546.36,1964.52 5545.98,1964.15C5545.61,1963.77 5545.1,1963.56 5544.57,1963.56L5528.57,1963.56C5528.03,1963.56 5527.53,1963.77 5527.15,1964.15C5526.78,1964.52 5526.57,1965.03 5526.57,1965.56L5526.57,1981.57C5526.57,1982.1 5526.78,1982.61 5527.15,1982.98C5527.53,1983.36 5528.03,1983.57 5528.57,1983.57L5544.57,1983.57C5545.1,1983.57 5545.61,1983.36 5545.98,1982.98C5546.36,1982.61 5546.57,1982.1 5546.57,1981.57L5546.57,1965.56ZM5486.56,1935.56C5486.56,1935.03 5486.35,1934.52 5485.97,1934.14C5485.6,1933.77 5485.09,1933.56 5484.56,1933.56L5468.56,1933.56C5468.03,1933.56 5467.52,1933.77 5467.14,1934.14C5466.77,1934.52 5466.56,1935.03 5466.56,1935.56L5466.56,1951.56C5466.56,1952.09 5466.77,1952.6 5467.14,1952.98C5467.52,1953.35 5468.03,1953.56 5468.56,1953.56C5472.39,1953.56 5480.73,1953.56 5484.56,1953.56C5485.09,1953.56 5485.6,1953.35 5485.97,1952.98C5486.35,1952.6 5486.56,1952.09 5486.56,1951.56L5486.56,1935.56ZM5546.57,1935.56C5546.57,1935.03 5546.36,1934.52 5545.98,1934.14C5545.61,1933.77 5545.1,1933.56 5544.57,1933.56C5540.74,1933.56 5532.4,1933.56 5528.57,1933.56C5528.03,1933.56 5527.53,1933.77 5527.15,1934.14C5526.78,1934.52 5526.57,1935.03 5526.57,1935.56L5526.57,1951.56C5526.57,1952.09 5526.78,1952.6 5527.15,1952.98C5527.53,1953.35 5528.03,1953.56 5528.57,1953.56C5532.4,1953.56 5540.74,1953.56 5544.57,1953.56C5545.1,1953.56 5545.61,1953.35 5545.98,1952.98C5546.36,1952.6 5546.57,1952.09 5546.57,1951.56L5546.57,1935.56ZM5456.55,1935.56C5456.55,1935.03 5456.34,1934.52 5455.97,1934.14C5455.59,1933.77 5455.08,1933.56 5454.55,1933.56L5438.55,1933.56C5438.02,1933.56 5437.51,1933.77 5437.14,1934.14C5436.76,1934.52 5436.55,1935.03 5436.55,1935.56L5436.55,1951.56C5436.55,1952.09 5436.76,1952.6 5437.14,1952.98C5437.51,1953.35 5438.02,1953.56 5438.55,1953.56L5454.55,1953.56C5455.08,1953.56 5455.59,1953.35 5455.97,1952.98C5456.34,1952.6 5456.55,1952.09 5456.55,1951.56L5456.55,1935.56ZM5516.56,1935.56C5516.56,1935.03 5516.35,1934.52 5515.98,1934.14C5515.6,1933.77 5515.09,1933.56 5514.56,1933.56L5498.56,1933.56C5498.03,1933.56 5497.52,1933.77 5497.15,1934.14C5496.77,1934.52 5496.56,1935.03 5496.56,1935.56L5496.56,1951.56C5496.56,1952.09 5496.77,1952.6 5497.15,1952.98C5497.52,1953.35 5498.03,1953.56 5498.56,1953.56L5514.56,1953.56C5515.09,1953.56 5515.6,1953.35 5515.98,1952.98C5516.35,1952.6 5516.56,1952.09 5516.56,1951.56L5516.56,1935.56ZM5486.56,1905.56C5486.56,1905.03 5486.35,1904.52 5485.97,1904.14C5485.6,1903.77 5485.09,1903.56 5484.56,1903.56L5468.56,1903.56C5468.03,1903.56 5467.52,1903.77 5467.14,1904.14C5466.77,1904.52 5466.56,1905.03 5466.56,1905.56L5466.56,1921.56C5466.56,1922.09 5466.77,1922.6 5467.14,1922.97C5467.52,1923.35 5468.03,1923.56 5468.56,1923.56L5484.56,1923.56C5485.09,1923.56 5485.6,1923.35 5485.97,1922.97C5486.35,1922.6 5486.56,1922.09 5486.56,1921.56L5486.56,1905.56ZM5546.57,1905.56C5546.57,1905.03 5546.36,1904.52 5545.98,1904.14C5545.61,1903.77 5545.1,1903.56 5544.57,1903.56L5528.57,1903.56C5528.03,1903.56 5527.53,1903.77 5527.15,1904.14C5526.78,1904.52 5526.57,1905.03 5526.57,1905.56L5526.57,1921.56C5526.57,1922.09 5526.78,1922.6 5527.15,1922.97C5527.53,1923.35 5528.03,1923.56 5528.57,1923.56L5544.57,1923.56C5545.1,1923.56 5545.61,1923.35 5545.98,1922.97C5546.36,1922.6 5546.57,1922.09 5546.57,1921.56L5546.57,1905.56ZM5456.55,1905.56C5456.55,1905.03 5456.34,1904.52 5455.97,1904.14C5455.59,1903.77 5455.08,1903.56 5454.55,1903.56L5438.55,1903.56C5438.02,1903.56 5437.51,1903.77 5437.14,1904.14C5436.76,1904.52 5436.55,1905.03 5436.55,1905.56L5436.55,1921.56C5436.55,1922.09 5436.76,1922.6 5437.14,1922.97C5437.51,1923.35 5438.02,1923.56 5438.55,1923.56L5454.55,1923.56C5455.08,1923.56 5455.59,1923.35 5455.97,1922.97C5456.34,1922.6 5456.55,1922.09 5456.55,1921.56L5456.55,1905.56ZM5516.56,1905.56C5516.56,1905.03 5516.35,1904.52 5515.98,1904.14C5515.6,1903.77 5515.09,1903.56 5514.56,1903.56L5498.56,1903.56C5498.03,1903.56 5497.52,1903.77 5497.15,1904.14C5496.77,1904.52 5496.56,1905.03 5496.56,1905.56L5496.56,1921.56C5496.56,1922.09 5496.77,1922.6 5497.15,1922.97C5497.52,1923.35 5498.03,1923.56 5498.56,1923.56L5514.56,1923.56C5515.09,1923.56 5515.6,1923.35 5515.98,1922.97C5516.35,1922.6 5516.56,1922.09 5516.56,1921.56L5516.56,1905.56ZM5456.54,1875.55C5456.54,1875.02 5456.33,1874.51 5455.96,1874.14C5455.58,1873.76 5455.07,1873.55 5454.54,1873.55L5438.54,1873.55C5438.01,1873.55 5437.5,1873.76 5437.12,1874.14C5436.75,1874.51 5436.54,1875.02 5436.54,1875.55L5436.54,1891.56C5436.54,1892.09 5436.75,1892.6 5437.12,1892.97C5437.5,1893.35 5438.01,1893.56 5438.54,1893.56C5442.37,1893.56 5450.71,1893.56 5454.54,1893.56C5455.07,1893.56 5455.58,1893.35 5455.96,1892.97C5456.33,1892.6 5456.54,1892.09 5456.54,1891.56L5456.54,1875.55ZM5516.55,1875.55C5516.55,1875.02 5516.34,1874.51 5515.97,1874.14C5515.59,1873.76 5515.08,1873.55 5514.55,1873.55L5498.55,1873.55C5498.02,1873.55 5497.51,1873.76 5497.14,1874.14C5496.76,1874.51 5496.55,1875.02 5496.55,1875.55L5496.55,1891.56C5496.55,1892.09 5496.76,1892.6 5497.14,1892.97C5497.51,1893.35 5498.02,1893.56 5498.55,1893.56L5514.55,1893.56C5515.08,1893.56 5515.59,1893.35 5515.97,1892.97C5516.34,1892.6 5516.55,1892.09 5516.55,1891.56L5516.55,1875.55ZM5486.55,1875.55C5486.55,1875.02 5486.34,1874.51 5485.96,1874.14C5485.59,1873.76 5485.08,1873.55 5484.55,1873.55L5468.54,1873.55C5468.01,1873.55 5467.51,1873.76 5467.13,1874.14C5466.76,1874.51 5466.54,1875.02 5466.54,1875.55L5466.54,1891.56C5466.54,1892.09 5466.76,1892.6 5467.13,1892.97C5467.51,1893.35 5468.01,1893.56 5468.54,1893.56L5484.55,1893.56C5485.08,1893.56 5485.59,1893.35 5485.96,1892.97C5486.34,1892.6 5486.55,1892.09 5486.55,1891.56C5486.55,1887.72 5486.55,1879.38 5486.55,1875.55ZM5546.56,1875.55C5546.56,1875.02 5546.35,1874.51 5545.97,1874.14C5545.6,1873.76 5545.09,1873.55 5544.56,1873.55L5528.55,1873.55C5528.02,1873.55 5527.52,1873.76 5527.14,1874.14C5526.77,1874.51 5526.55,1875.02 5526.55,1875.55L5526.55,1891.56C5526.55,1892.09 5526.77,1892.6 5527.14,1892.97C5527.52,1893.35 5528.02,1893.56 5528.55,1893.56L5544.56,1893.56C5545.09,1893.56 5545.6,1893.35 5545.97,1892.97C5546.35,1892.6 5546.56,1892.09 5546.56,1891.56L5546.56,1875.55ZM5486.56,1845.55C5486.56,1845.02 5486.35,1844.51 5485.97,1844.13C5485.6,1843.76 5485.09,1843.55 5484.56,1843.55L5468.56,1843.55C5468.03,1843.55 5467.52,1843.76 5467.14,1844.13C5466.77,1844.51 5466.56,1845.02 5466.56,1845.55L5466.56,1861.55C5466.56,1862.08 5466.77,1862.59 5467.14,1862.97C5467.52,1863.34 5468.03,1863.55 5468.56,1863.55L5484.56,1863.55C5485.09,1863.55 5485.6,1863.34 5485.97,1862.97C5486.35,1862.59 5486.56,1862.08 5486.56,1861.55L5486.56,1845.55ZM5546.57,1845.55C5546.57,1845.02 5546.36,1844.51 5545.98,1844.13C5545.61,1843.76 5545.1,1843.55 5544.57,1843.55C5540.74,1843.55 5532.4,1843.55 5528.57,1843.55C5528.03,1843.55 5527.53,1843.76 5527.15,1844.13C5526.78,1844.51 5526.57,1845.02 5526.57,1845.55L5526.57,1861.55C5526.57,1862.08 5526.78,1862.59 5527.15,1862.97C5527.53,1863.34 5528.03,1863.55 5528.57,1863.55L5544.57,1863.55C5545.1,1863.55 5545.61,1863.34 5545.98,1862.97C5546.36,1862.59 5546.57,1862.08 5546.57,1861.55L5546.57,1845.55ZM5456.55,1845.55C5456.55,1845.02 5456.34,1844.51 5455.97,1844.13C5455.59,1843.76 5455.08,1843.55 5454.55,1843.55L5438.55,1843.55C5438.02,1843.55 5437.51,1843.76 5437.14,1844.13C5436.76,1844.51 5436.55,1845.02 5436.55,1845.55L5436.55,1861.55C5436.55,1862.08 5436.76,1862.59 5437.14,1862.97C5437.51,1863.34 5438.02,1863.55 5438.55,1863.55L5454.55,1863.55C5455.08,1863.55 5455.59,1863.34 5455.97,1862.97C5456.34,1862.59 5456.55,1862.08 5456.55,1861.55L5456.55,1845.55ZM5516.56,1845.55C5516.56,1845.02 5516.35,1844.51 5515.98,1844.13C5515.6,1843.76 5515.09,1843.55 5514.56,1843.55L5498.56,1843.55C5498.03,1843.55 5497.52,1843.76 5497.15,1844.13C5496.77,1844.51 5496.56,1845.02 5496.56,1845.55L5496.56,1861.55C5496.56,1862.08 5496.77,1862.59 5497.15,1862.97C5497.52,1863.34 5498.03,1863.55 5498.56,1863.55L5514.56,1863.55C5515.09,1863.55 5515.6,1863.34 5515.98,1862.97C5516.35,1862.59 5516.56,1862.08 5516.56,1861.55L5516.56,1845.55Z" style="fill:rgb(139,24,88);fill-opacity:0.15;"/>
                        </g>
                    </g>
                    <g transform="matrix(1,0,0,1.01823,43.3757,-37.9086)">
                        <g transform="matrix(0.0537245,8.78285e-21,2.37556e-20,0.379763,6004.04,1173.28)">
                            <path d="M5587.53,1808.48C5587.54,1805.45 5579.86,1802.51 5565.84,1800.18C5473.06,1784.68 5379.56,1783.82 5284.71,1800.23C5271.21,1802.52 5263.84,1805.39 5263.84,1808.36C5263.24,1855.41 5263.24,2289.51 5263.24,2289.51L5587.53,2289.51C5587.53,2289.51 5587.53,1856.16 5587.53,1808.48Z" style="fill:rgb(204,206,219);"/>
                        </g>
                        <g transform="matrix(0.201053,0,0,0.290625,5204.73,1395.84)">
                            <path d="M5587.53,1817.15C5587.53,1809.45 5579.88,1802.73 5568.91,1800.79C5474.45,1784.54 5378.8,1783.59 5281.73,1800.75C5270.86,1802.71 5263.29,1809.4 5263.29,1817.04C5263.24,1893.79 5263.24,2289.51 5263.24,2289.51L5587.53,2289.51L5587.53,1817.15Z" style="fill:rgb(220,222,236);"/>
                        </g>
                        <g transform="matrix(0.400872,0,0,0.290625,4120.63,1413.73)">
                            <path d="M5587.53,1819.27C5587.53,1810.7 5582.79,1803.49 5576.51,1802.49C5540.1,1796.72 5425.98,1778.64 5425.98,1778.64C5425.98,1778.64 5310.88,1796.74 5274.27,1802.5C5267.98,1803.49 5263.24,1810.71 5263.24,1819.28C5263.24,1901.18 5263.24,2289.51 5263.24,2289.51L5587.53,2289.51C5587.53,2289.51 5587.53,1901.14 5587.53,1819.27Z" style="fill:rgb(204,206,219);"/>
                        </g>
                        <g transform="matrix(0.200837,0,0,3.51286,5187.14,-4840.74)">
                            <path d="M5528.78,1929.6C5528.78,1929.07 5528.57,1928.56 5528.2,1928.19C5527.82,1927.81 5527.31,1927.6 5526.78,1927.6C5522.95,1927.6 5514.61,1927.6 5510.78,1927.6C5510.25,1927.6 5509.74,1927.81 5509.37,1928.19C5508.99,1928.56 5508.78,1929.07 5508.78,1929.6L5508.78,1945.6C5508.78,1946.13 5508.99,1946.64 5509.37,1947.02C5509.74,1947.39 5510.25,1947.6 5510.78,1947.6L5526.78,1947.6C5527.31,1947.6 5527.82,1947.39 5528.2,1947.02C5528.57,1946.64 5528.78,1946.13 5528.78,1945.6L5528.78,1929.6Z" style="fill:rgb(139,24,88);fill-opacity:0.45;"/>
                        </g>
                    </g>
                    <g transform="matrix(1,0,0,1,-16.0025,-36.9446)">
                        <g transform="matrix(0.215854,0,0,0.259067,5021.21,1501.2)">
                            <path d="M5587.53,1814.03C5587.53,1807.88 5584.01,1802.09 5578.04,1798.45C5543.26,1777.26 5424.78,1705.07 5424.78,1705.07C5424.78,1705.07 5307.19,1777.25 5272.66,1798.45C5266.74,1802.09 5263.24,1807.86 5263.24,1813.99C5263.24,1882.56 5263.24,2289.51 5263.24,2289.51L5587.53,2289.51C5587.53,2289.51 5587.53,1882.73 5587.53,1814.03Z" style="fill:rgb(204,206,219);"/>
                        </g>
                        <g transform="matrix(2.51157,0,0,0.752733,-7428,556.45)">
                            <path d="M5433.01,1891.69C5433.01,1891.16 5432.8,1890.65 5432.42,1890.28C5432.05,1889.9 5431.54,1889.69 5431.01,1889.69C5427.18,1889.69 5418.84,1889.69 5415.01,1889.69C5414.48,1889.69 5413.97,1889.9 5413.6,1890.28C5413.22,1890.65 5413.01,1891.16 5413.01,1891.69L5413.01,1907.69C5413.01,1908.22 5413.22,1908.73 5413.6,1909.11C5413.97,1909.48 5414.48,1909.69 5415.01,1909.69L5431.01,1909.69C5431.54,1909.69 5432.05,1909.48 5432.42,1909.11C5432.8,1908.73 5433.01,1908.22 5433.01,1907.69L5433.01,1891.69Z" style="fill:rgb(139,24,88);fill-opacity:0.45;"/>
                        </g>
                        <g transform="matrix(2.51157,0,0,0.752733,-7428,581.505)">
                            <path d="M5433.01,1891.69C5433.01,1891.16 5432.8,1890.65 5432.42,1890.28C5432.05,1889.9 5431.54,1889.69 5431.01,1889.69C5427.18,1889.69 5418.84,1889.69 5415.01,1889.69C5414.48,1889.69 5413.97,1889.9 5413.6,1890.28C5413.22,1890.65 5413.01,1891.16 5413.01,1891.69L5413.01,1907.69C5413.01,1908.22 5413.22,1908.73 5413.6,1909.11C5413.97,1909.48 5414.48,1909.69 5415.01,1909.69L5431.01,1909.69C5431.54,1909.69 5432.05,1909.48 5432.42,1909.11C5432.8,1908.73 5433.01,1908.22 5433.01,1907.69L5433.01,1891.69Z" style="fill:rgb(139,24,88);fill-opacity:0.45;"/>
                        </g>
                        <g transform="matrix(2.51157,0,0,0.752733,-7428,606.56)">
                            <path d="M5433.01,1891.69C5433.01,1891.16 5432.8,1890.65 5432.42,1890.28C5432.05,1889.9 5431.54,1889.69 5431.01,1889.69C5427.18,1889.69 5418.84,1889.69 5415.01,1889.69C5414.48,1889.69 5413.97,1889.9 5413.6,1890.28C5413.22,1890.65 5413.01,1891.16 5413.01,1891.69L5413.01,1907.69C5413.01,1908.22 5413.22,1908.73 5413.6,1909.11C5413.97,1909.48 5414.48,1909.69 5415.01,1909.69L5431.01,1909.69C5431.54,1909.69 5432.05,1909.48 5432.42,1909.11C5432.8,1908.73 5433.01,1908.22 5433.01,1907.69L5433.01,1891.69Z" style="fill:rgb(45,54,96);fill-opacity:0.45;"/>
                        </g>
                    </g>
                </g>
                <g transform="matrix(1,0,0,1,18.492,0.241733)">
                    <g>
                        <g transform="matrix(0.269919,0,0,0.817213,4681.14,263.266)">
                            <path d="M6517.8,2116.24C6517.8,2112.86 6509.5,2110.12 6499.27,2110.12C6359.19,2110.12 5468.1,2110.12 5328.01,2110.12C5317.78,2110.12 5309.49,2112.86 5309.49,2116.24C5309.49,2146.71 5309.49,2281.88 5309.49,2312.35C5309.49,2315.73 5317.78,2318.47 5328.01,2318.47C5468.1,2318.47 6359.19,2318.47 6499.27,2318.47C6509.5,2318.47 6517.8,2315.73 6517.8,2312.35C6517.8,2281.88 6517.8,2146.71 6517.8,2116.24Z" style="fill:rgb(244,243,244);"/>
                        </g>
                        <g transform="matrix(0.705433,0,0,0.705433,1715.3,691.971)">
                            <text x="5132.58px" y="1983.61px" style="font-family:'OpenSans-Bold', 'Open Sans', sans-serif;font-weight:700;font-size:170.108px;fill:rgb(45,54,96);">Housecall</text>
                        </g>
                        <g transform="matrix(0.705433,0,0,0.705433,2298.87,691.971)">
                            <text x="5132.58px" y="1983.61px" style="font-family:'OpenSans-Bold', 'Open Sans', sans-serif;font-weight:700;font-size:170.108px;fill:rgb(45,54,96);">V<tspan x="5239.73px 5340.23px " y="1983.61px 1983.61px ">et</tspan></text>
                        </g>
                        <g transform="matrix(0.84553,0,0,0.84553,1785.19,435.447)">
                            <path d="M5217.16,1872.14C5217.91,1869.64 5219.14,1867.57 5220.83,1865.94C5222.52,1864.31 5224.37,1863.25 5226.37,1862.75C5228.38,1862.24 5230.41,1862.37 5232.48,1863.12C5234.55,1863.87 5236.33,1865.38 5237.84,1867.63C5238.34,1868.26 5238.81,1869.01 5239.25,1869.89C5239.69,1870.77 5239.9,1871.58 5239.9,1872.33C5240.16,1890.25 5240.06,1908.14 5239.62,1926C5239.19,1943.85 5238.46,1961.74 5237.46,1979.66C5237.46,1982.54 5236.55,1984.8 5234.74,1986.43C5232.92,1988.06 5230.85,1989.09 5228.53,1989.53C5226.22,1989.97 5223.87,1989.72 5221.48,1988.78C5219.1,1987.84 5217.35,1986.24 5216.22,1983.98C5216.1,1983.86 5216.03,1983.73 5216.03,1983.61L5216.03,1983.98C5207.89,1970.58 5199.31,1957.7 5190.28,1945.36C5181.26,1933.01 5171.86,1920.76 5162.09,1908.61L5162.09,1965.56C5162.09,1969.45 5162.03,1972.61 5161.9,1975.05C5161.77,1977.5 5161.62,1979.41 5161.43,1980.79C5161.24,1982.17 5160.96,1983.36 5160.58,1984.36C5159.46,1987.37 5157.73,1989.37 5155.41,1990.37C5153.1,1991.38 5150.75,1991.63 5148.37,1991.12C5145.98,1990.62 5143.92,1989.37 5142.16,1987.37C5140.41,1985.36 5139.53,1982.86 5139.53,1979.85L5139.53,1927.4C5139.53,1922.14 5139.5,1917.22 5139.44,1912.65C5139.38,1908.08 5139.34,1904.22 5139.34,1901.09C5139.34,1896.83 5139.28,1892.6 5139.16,1888.4C5139.03,1884.2 5139.03,1879.98 5139.16,1875.72C5139.16,1873.59 5139.69,1871.77 5140.75,1870.26C5141.82,1868.76 5143.17,1867.6 5144.8,1866.79C5146.42,1865.97 5148.18,1865.5 5150.06,1865.38C5151.94,1865.25 5153.76,1865.5 5155.51,1866.13C5157.01,1866.63 5158.55,1867.66 5160.11,1869.23C5161.68,1870.8 5163.22,1872.49 5164.72,1874.31C5166.22,1876.12 5167.63,1877.94 5168.95,1879.76C5170.26,1881.57 5171.36,1883.05 5172.24,1884.17C5175.5,1888.18 5179.26,1892.79 5183.52,1897.99C5187.78,1903.19 5191.72,1908.11 5195.36,1912.74C5198.99,1917.51 5202.53,1922.27 5205.98,1927.03C5209.42,1931.79 5212.78,1936.55 5216.03,1941.32C5216.41,1929.91 5216.66,1918.57 5216.79,1907.29C5216.91,1896.02 5216.97,1884.67 5216.97,1873.27L5217.16,1872.14Z" style="fill:rgb(45,54,96);fill-rule:nonzero;"/>
                            <path d="M5307.76,1977.4C5307.39,1980.54 5306.23,1983.11 5304.28,1985.11C5302.34,1987.12 5300.15,1988.37 5297.7,1988.87C5295.26,1989.37 5292.91,1989.06 5290.66,1987.93C5288.4,1986.8 5286.77,1984.61 5285.77,1981.35C5285.14,1979.22 5284.73,1976.9 5284.55,1974.4C5284.36,1971.89 5284.3,1969.41 5284.36,1966.97C5284.42,1964.53 5284.52,1962.18 5284.64,1959.92C5284.77,1957.67 5284.83,1955.79 5284.83,1954.28C5284.83,1950.65 5284.8,1947.08 5284.73,1943.57C5284.67,1940.06 5284.64,1936.49 5284.64,1932.86C5278.5,1926.97 5272.89,1920.73 5267.82,1914.15C5262.74,1907.58 5258.2,1900.53 5254.19,1893.01C5252.94,1890.75 5251.75,1888.28 5250.62,1885.58C5249.49,1882.89 5248.86,1880.23 5248.74,1877.6C5248.11,1875.21 5248.36,1873.05 5249.49,1871.11C5250.62,1869.17 5252.15,1867.66 5254.1,1866.6C5256.04,1865.53 5258.17,1865.03 5260.49,1865.1C5262.81,1865.16 5264.9,1865.94 5266.78,1867.44C5268.16,1868.57 5269.29,1869.89 5270.17,1871.39C5271.05,1872.89 5271.8,1874.49 5272.42,1876.18C5273.05,1877.88 5273.65,1879.6 5274.21,1881.35C5274.77,1883.11 5275.49,1884.74 5276.37,1886.24C5279,1891 5281.91,1895.42 5285.11,1899.49C5288.31,1903.57 5291.72,1907.61 5295.36,1911.62C5298.61,1907.23 5302.12,1903.13 5305.88,1899.3C5309.64,1895.48 5313.09,1891.38 5316.22,1886.99C5316.85,1885.99 5317.78,1884.45 5319.04,1882.39C5320.29,1880.32 5321.61,1878.16 5322.99,1875.9C5324.36,1873.65 5325.81,1871.55 5327.31,1869.61C5328.81,1867.66 5330.13,1866.38 5331.26,1865.75C5333.26,1864.5 5335.3,1863.94 5337.36,1864.06C5339.43,1864.19 5341.31,1864.81 5343,1865.94C5344.7,1867.07 5346.04,1868.6 5347.05,1870.55C5348.05,1872.49 5348.42,1874.59 5348.17,1876.84C5347.92,1879.22 5346.83,1882.11 5344.88,1885.49C5342.94,1888.87 5340.69,1892.32 5338.12,1895.83C5335.55,1899.34 5332.95,1902.66 5330.32,1905.79C5327.69,1908.92 5325.62,1911.43 5324.11,1913.31C5322.86,1914.81 5321.64,1916.28 5320.45,1917.73C5319.26,1919.17 5318.04,1920.58 5316.78,1921.95C5315.15,1923.83 5313.59,1925.71 5312.08,1927.59C5310.58,1929.47 5309.08,1931.35 5307.57,1933.23L5307.57,1954.66C5307.57,1961.8 5307.64,1968.95 5307.76,1976.09L5307.76,1977.4Z" style="fill:rgb(45,54,96);fill-rule:nonzero;"/>
                        </g>
                        <g transform="matrix(0.84553,0,0,0.84553,1959.6,432.205)">
                            <path d="M5210.96,1950.53C5212.96,1948.52 5215.25,1947.36 5217.82,1947.05C5220.39,1946.73 5222.74,1947.08 5224.87,1948.08C5227,1949.08 5228.66,1950.68 5229.85,1952.87C5231.04,1955.07 5231.32,1957.67 5230.69,1960.67C5229.94,1963.68 5228.5,1966.47 5226.37,1969.04C5224.24,1971.61 5222.11,1973.96 5219.98,1976.09C5215.09,1981.23 5209.67,1985.02 5203.72,1987.46C5197.77,1989.9 5191.76,1991.06 5185.68,1990.94C5179.6,1990.81 5173.65,1989.37 5167.82,1986.61C5161.99,1983.86 5156.76,1979.72 5152.13,1974.21C5149.37,1970.95 5147.05,1967.5 5145.17,1963.87C5143.29,1960.24 5141.85,1956.41 5140.85,1952.4C5139.34,1946.52 5138.65,1940.38 5138.78,1933.98C5138.9,1927.59 5139.91,1921.39 5141.79,1915.38C5143.67,1909.36 5146.33,1903.69 5149.78,1898.37C5153.22,1893.04 5157.45,1888.5 5162.46,1884.74C5166.1,1881.98 5169.76,1879.6 5173.46,1877.6C5177.16,1875.59 5181.07,1873.71 5185.21,1871.96C5187.59,1870.95 5190.03,1869.98 5192.54,1869.04C5195.04,1868.1 5197.61,1867.38 5200.24,1866.88C5202.88,1866.38 5205.51,1866.19 5208.14,1866.32C5210.77,1866.44 5213.34,1867.01 5215.85,1868.01C5217.6,1868.76 5219.35,1869.79 5221.11,1871.11C5222.86,1872.43 5224.49,1873.93 5226,1875.62C5227.5,1877.31 5228.82,1879.1 5229.94,1880.98C5231.07,1882.86 5231.89,1884.67 5232.39,1886.43C5232.76,1888.06 5232.86,1889.72 5232.67,1891.41C5232.48,1893.1 5231.98,1894.64 5231.16,1896.02C5230.35,1897.39 5229.25,1898.55 5227.88,1899.49C5226.5,1900.43 5224.93,1901.03 5223.18,1901.28C5220.29,1901.65 5218.07,1901.34 5216.5,1900.34C5214.94,1899.34 5213.68,1898.08 5212.74,1896.58C5211.8,1895.08 5210.9,1893.6 5210.02,1892.16C5209.14,1890.72 5207.89,1889.69 5206.26,1889.06C5205.26,1889.06 5204.51,1889.12 5204,1889.25C5199.74,1890.38 5195.45,1891.91 5191.13,1893.85C5186.81,1895.8 5182.8,1898.14 5179.1,1900.9C5175.4,1903.66 5172.18,1906.85 5169.42,1910.49C5166.66,1914.12 5164.66,1918.19 5163.4,1922.71C5161.9,1928.09 5161.34,1933.55 5161.71,1939.06C5162.09,1944.57 5163.59,1949.77 5166.22,1954.66C5167.73,1957.54 5169.73,1960.05 5172.24,1962.18C5174.74,1964.31 5177.5,1965.91 5180.51,1966.97C5183.52,1968.04 5186.59,1968.41 5189.72,1968.1C5192.85,1967.79 5195.86,1966.69 5198.74,1964.81C5201.25,1963.06 5203.5,1960.89 5205.51,1958.33C5207.51,1955.76 5209.33,1953.16 5210.96,1950.53Z" style="fill:rgb(45,54,96);fill-rule:nonzero;"/>
                        </g>
                    </g>
                </g>
                <g transform="matrix(6.12323e-17,-1,3.35911,2.05686e-16,-3140.24,7741.56)">
                    <g transform="matrix(1,-3.37757e-17,3.08651e-17,0.489956,0.754384,-135.387)">
                        <path d="M5628.69,5459.19L5615.8,5459.19C5615.8,5459.19 5620.21,5910.1 5622.36,5910.1C5624.51,5910.1 5628.69,5459.19 5628.69,5459.19Z" style="fill:rgb(204,206,219);"/>
                    </g>
                    <g transform="matrix(0.691346,0,0,0.205812,1840.75,1418.08)">
                        <circle cx="5471.01" cy="5436.27" r="22.917" style="fill:rgb(139,24,88);"/>
                    </g>
                    <g transform="matrix(1.16082,0,0,0.345574,-1715.26,666.578)">
                        <circle cx="6321.71" cy="5412.32" r="7.872" style="fill:rgb(244,243,244);"/>
                    </g>
                    <g transform="matrix(0.734915,0,0,0.312378,980.485,848.812)">
                        <rect x="6308.3" y="5416.91" width="17.54" height="36.448" style="fill:rgb(139,24,88);"/>
                    </g>
                </g>
                <g transform="matrix(0.395931,0,0,0.395931,4986.13,1838.17)">
                    <g transform="matrix(2.6731,0.94053,-1.1778,3.34746,-6481.19,-3176.13)">
                        <path d="M2715.46,316.456C2709.47,312.244 2706.32,309.087 2702.8,304.82C2697.65,298.601 2696.2,295.039 2693.01,289.96C2679.98,269.158 2657.74,249.998 2643.49,261.37C2634.85,268.273 2629.41,294.909 2626.64,313.283C2625.19,322.869 2625.78,333.782 2629.53,347.355C2631.87,355.82 2634.66,367.361 2645.83,381.192C2651.78,388.567 2660.67,395.013 2671.1,402.366C2677.97,407.213 2689.41,412.848 2696.39,416.049C2704.02,419.549 2717.79,423.438 2727.61,424.839C2739.78,426.574 2754.36,427.664 2766.26,427.288C2770.81,427.144 2786,425.837 2797.76,422.404C2807.81,419.47 2838.3,408.3 2836.76,405.098C2834.76,400.929 2811.59,351.076 2806.76,339.449C2803.45,331.489 2789.13,324.273 2779.69,322.369C2772.14,320.847 2760.37,322.768 2754.51,324.255C2748.92,325.673 2739.76,324.965 2736.89,324.778C2730.28,324.347 2723.04,321.79 2715.46,316.456Z" style="fill:rgb(45,54,96);"/>
                    </g>
                    <g transform="matrix(-2.6731,-0.94053,1.1778,-3.34746,7477.03,4174.5)">
                        <path d="M2715.46,316.456C2709.47,312.244 2706.32,309.087 2702.8,304.82C2697.65,298.601 2696.2,295.039 2693.01,289.96C2679.98,269.158 2657.74,249.998 2643.49,261.37C2634.85,268.273 2629.41,294.909 2626.64,313.283C2625.19,322.869 2625.78,333.782 2629.53,347.355C2631.87,355.82 2634.66,367.361 2645.83,381.192C2651.78,388.567 2660.67,395.013 2671.1,402.366C2677.97,407.213 2689.41,412.848 2696.39,416.049C2704.02,419.549 2717.79,423.438 2727.61,424.839C2739.78,426.574 2754.36,427.664 2766.26,427.288C2770.81,427.144 2786,425.837 2797.76,422.404C2807.81,419.47 2838.3,408.3 2836.76,405.098C2834.76,400.929 2811.59,351.076 2806.76,339.449C2803.45,331.489 2789.13,324.273 2779.69,322.369C2772.14,320.847 2763.38,321.614 2754.4,324.008C2745.75,326.315 2739.76,324.965 2736.89,324.778C2730.28,324.347 2723.04,321.79 2715.46,316.456Z" style="fill:rgb(244,243,244);"/>
                    </g>
                    <g transform="matrix(0.929443,0,0,0.929443,-3321.75,35.208)">
                        <path d="M4464.98,500.207C4464.73,511.544 4464.01,523.473 4462.29,538.379C4460.35,555.19 4458.73,569.07 4456.74,577.673C4449.59,608.601 4434.3,643.58 4409.73,685.789C4402.01,699.055 4388.65,718.894 4378.62,730.755C4333.73,783.882 4312.9,795.279 4229.08,830.771C4170.53,855.565 4101.56,868.199 4111.86,887.404C4127.48,916.497 4268.12,864.413 4305.32,844.738C4343.59,824.493 4382.56,785.792 4412.82,752.415C4440.22,722.202 4472.55,667.264 4486.42,629.297C4510.83,562.475 4510.92,520.997 4510.6,511.53C4510.52,509.281 4516.31,492.237 4510.95,479.94C4507.97,473.094 4502.76,464.29 4499.19,453.338C4495.21,441.092 4486.2,419.932 4477.15,410.494C4467.02,399.926 4453.43,390.854 4434.09,384.959C4410.03,377.626 4380.19,381.722 4361.13,388.75C4330.95,399.871 4316.1,421.953 4309.5,436.427C4300.61,455.944 4336.04,459.876 4341.61,450.148C4346.61,441.43 4352.39,435.081 4360.94,428.833C4372.02,420.741 4388.08,414.165 4407.58,415.983C4426.6,417.755 4442.56,427.235 4451.29,437.714C4460.57,448.832 4461.86,460.177 4463.78,470.355C4465.17,477.675 4465.19,490.251 4464.98,500.207Z" style="fill:rgb(45,54,96);"/>
                    </g>
                    <g transform="matrix(-0.929443,-1.13824e-16,1.13824e-16,-0.929443,4319.83,964.978)">
                        <path d="M4464.98,500.207C4464.73,511.544 4464.01,523.473 4462.29,538.379C4460.35,555.19 4458.73,569.07 4456.74,577.673C4449.59,608.601 4434.3,643.58 4409.73,685.789C4402.01,699.055 4388.65,718.894 4378.62,730.755C4333.73,783.882 4312.9,795.279 4229.08,830.771C4170.53,855.565 4101.56,868.199 4111.86,887.404C4127.48,916.497 4268.12,864.413 4305.32,844.738C4343.59,824.493 4382.56,785.792 4412.82,752.415C4440.22,722.202 4472.55,667.264 4486.42,629.297C4510.83,562.475 4510.92,520.997 4510.6,511.53C4510.52,509.281 4516.31,492.237 4510.95,479.94C4507.97,473.094 4502.76,464.29 4499.19,453.338C4495.21,441.092 4486.2,419.932 4477.15,410.494C4467.02,399.926 4453.43,390.854 4434.09,384.959C4410.03,377.626 4380.19,381.722 4361.13,388.75C4330.95,399.871 4316.1,421.953 4309.5,436.427C4300.61,455.944 4336.04,459.876 4341.61,450.148C4346.61,441.43 4352.39,435.081 4360.94,428.833C4372.02,420.741 4388.08,414.165 4407.58,415.983C4426.6,417.755 4442.56,427.235 4451.29,437.714C4460.57,448.832 4461.86,460.177 4463.78,470.355C4465.17,477.675 4465.19,490.251 4464.98,500.207Z" style="fill:rgb(244,243,244);"/>
                    </g>
                    <g transform="matrix(6.92033e-17,1.13018,-1.13018,6.92033e-17,1157.86,-230.176)">
                        <path d="M646.073,228.157C841.411,228.157 1000,386.746 1000,582.084C1000,777.422 841.411,936.011 646.073,936.011C450.735,936.011 292.146,777.422 292.146,582.084C292.146,386.746 450.735,228.157 646.073,228.157ZM646.073,263.55C821.877,263.55 964.607,406.28 964.607,582.084C964.607,757.888 821.877,900.618 646.073,900.618C470.269,900.618 327.538,757.888 327.538,582.084C327.538,406.28 470.269,263.55 646.073,263.55Z" style="fill:rgb(167,170,187);"/>
                    </g>
                    <g transform="matrix(-0.667667,-0.163046,0.163046,-0.667667,823.159,1018.16)">
                        <g transform="matrix(2.6731,0.94053,-0.94053,2.6731,-3829.73,-1900.13)">
                            <path d="M1767.41,225.249C1766.7,217.483 1732.54,221.525 1723.48,221.682C1719.17,221.757 1717.99,215.651 1715.63,211.406C1710.74,202.62 1707.55,196.869 1688.41,190.772C1671,185.225 1666.39,187.572 1656.57,187.045C1652.48,186.826 1652.29,182.131 1647.35,174.669C1641.61,166.001 1639.86,164.539 1635.42,164.775C1629.49,165.089 1623.88,198.397 1623.88,198.397C1623.88,198.397 1608.89,237.987 1617,264.023C1623.97,286.444 1632.97,305.04 1632.97,305.04L1662.87,306.207C1662.87,306.207 1683.36,277.866 1694.16,271.545C1703.86,265.872 1712.07,268.437 1727.72,268.281C1748.07,268.078 1768.12,233.015 1767.41,225.249Z" style="fill:rgb(244,243,244);"/>
                        </g>
                        <g transform="matrix(0.715954,-1.35994,9.56894,5.03767,-3887.98,2681.47)">
                            <path d="M2718.04,254.472C2720.6,254.33 2727.62,254.624 2728.86,256.827C2729.76,258.438 2715.17,258.886 2713.53,257.685C2709.93,255.038 2716.2,254.576 2718.04,254.472Z" style="fill:rgb(45,54,96);"/>
                        </g>
                        <g transform="matrix(0.514317,-1.23938,8.29948,3.4441,-3125.99,2683.01)">
                            <path d="M2743.98,248.254C2747.5,248.351 2790.6,249.132 2791.03,250.18C2791.26,250.731 2791.19,251.438 2777.8,252.913C2762.96,254.549 2750.54,255.391 2749.62,255.53C2747.23,255.89 2734.91,253.478 2733.57,251.241C2732.63,249.66 2741.69,248.191 2743.98,248.254Z" style="fill:rgb(226,228,235);"/>
                        </g>
                        <g transform="matrix(1.34055,0.0592926,-0.39705,8.97694,-2964.66,-2050.84)">
                            <path d="M2772.99,248.814C2786.11,249.553 2789.6,249.933 2790.13,250.414C2790.69,250.914 2789.15,251.251 2780.29,252.627C2777.74,253.023 2768.51,252.523 2766.23,251.315C2763.8,250.028 2770.05,248.648 2772.99,248.814Z" style="fill:rgb(45,54,96);"/>
                        </g>
                        <g transform="matrix(0.514317,-1.23938,8.29948,3.4441,-3043.71,2711.96)">
                            <path d="M2745.35,256.592C2745.03,256.608 2747.12,254.082 2747.72,251.645C2748.28,249.355 2747.33,247.142 2748.1,247.273C2749.13,247.449 2750.16,247.639 2752.83,247.874C2756.91,248.234 2764.43,248.325 2769.95,248.409C2781.57,248.586 2799.43,249.35 2795.91,250.631C2792.39,251.913 2765.84,255.527 2745.35,256.592Z" style="fill:rgb(226,228,235);"/>
                        </g>
                    </g>
                    <g transform="matrix(0.667667,0.163046,-0.163046,0.667667,172.813,-18.3998)">
                        <g transform="matrix(2.6731,0.94053,-0.94053,2.6731,-3829.73,-1900.13)">
                            <path d="M1738.75,247.717C1738.11,241.864 1727.85,237.265 1724.1,233.119C1721.21,229.922 1718.61,227.087 1716.25,222.843C1711.36,214.056 1707.55,196.869 1688.41,190.772C1671,185.225 1666.39,187.572 1656.57,187.045C1647.91,186.58 1637.05,164.458 1635.42,164.775C1633.65,165.117 1623.88,198.397 1623.88,198.397C1623.88,198.397 1608.89,237.987 1617,264.023C1623.97,286.444 1632.97,305.04 1632.97,305.04L1662.87,306.207C1662.87,306.207 1683.31,277.873 1694.16,271.545C1703.95,265.839 1720.55,272.206 1727.98,268.234C1734.79,264.594 1739.4,253.569 1738.75,247.717Z" style="fill:rgb(45,54,96);"/>
                        </g>
                        <g transform="matrix(0.993848,0.110751,-0.110751,0.993848,42.3839,-61.6941)">
                            <g transform="matrix(0.361466,-0.857341,1.24611,0.525377,-642.593,2464.77)">
                                <path d="M2540.23,122.705C2540.23,122.705 2542.73,198.126 2542.73,201.87C2542.73,205.614 2543.7,208.654 2539.95,208.654C2536.21,208.654 2537.17,205.614 2537.17,201.87C2537.17,198.126 2540.23,122.705 2540.23,122.705Z" style="fill:rgb(244,243,244);"/>
                            </g>
                            <g transform="matrix(0.505486,-0.781137,1.13535,0.734704,-980.311,2217.79)">
                                <path d="M2540.23,122.705C2540.23,122.705 2542.73,198.126 2542.73,201.87C2542.73,205.614 2543.7,208.654 2539.95,208.654C2536.21,208.654 2537.17,205.614 2537.17,201.87C2537.17,198.126 2540.23,122.705 2540.23,122.705Z" style="fill:rgb(244,243,244);"/>
                            </g>
                            <g transform="matrix(0.207475,-0.906998,1.31829,0.301556,-269.612,2648.14)">
                                <path d="M2540.23,122.705C2540.23,122.705 2542.73,198.126 2542.73,201.87C2542.73,205.614 2543.7,208.654 2539.95,208.654C2536.21,208.654 2537.17,205.614 2537.17,201.87C2537.17,198.126 2540.23,122.705 2540.23,122.705Z" style="fill:rgb(244,243,244);"/>
                            </g>
                        </g>
                        <g transform="matrix(1.05735,-2.00841,10.2321,5.38681,-4994.53,4380.34)">
                            <path d="M2718.27,254.665C2718.27,254.665 2724.36,256.553 2723.83,257.038C2723.3,257.523 2715.11,257.573 2715.11,257.573L2718.27,254.665Z" style="fill:rgb(244,243,244);"/>
                        </g>
                        <g transform="matrix(0.514317,-1.23938,8.29948,3.4441,-3125.99,2683.01)">
                            <path d="M2743.98,248.254C2747.5,248.351 2790.87,250.022 2790.97,250.139C2791.04,250.222 2768.41,252.387 2758.91,253.947C2753.69,254.804 2750.63,255.541 2749.71,255.68C2747.32,256.04 2734.91,253.478 2733.57,251.241C2732.63,249.66 2741.69,248.191 2743.98,248.254Z" style="fill:rgb(62,67,74);"/>
                        </g>
                        <g transform="matrix(0.514317,-1.23938,8.29948,3.4441,-3043.8,2711.62)">
                            <path d="M2746,256.169C2743.95,256.683 2746.51,247.002 2748.1,247.273C2749.13,247.449 2750.11,247.63 2752.75,247.921C2756.55,248.342 2759.87,248.491 2766.75,248.919C2775.81,249.483 2788.06,250.009 2797.23,250.399C2780.41,251.56 2752.17,254.625 2746,256.169Z" style="fill:rgb(62,67,74);"/>
                        </g>
                    </g>
                </g>
            </g>
        </g>
    </g>
</svg>
