<?xml version="1.0" encoding="UTF-8" standalone="no"?>
<!DOCTYPE svg PUBLIC "-//W3C//DTD SVG 1.1//EN" "http://www.w3.org/Graphics/SVG/1.1/DTD/svg11.dtd">
<svg width="100%" height="100%" viewBox="0 0 861 868" version="1.1" xmlns="http://www.w3.org/2000/svg" xmlns:xlink="http://www.w3.org/1999/xlink" xml:space="preserve" xmlns:serif="http://www.serif.com/" style="fill-rule:evenodd;clip-rule:evenodd;stroke-linejoin:round;stroke-miterlimit:2;">
    <g transform="matrix(1,0,0,1,-4832.87,-66.5395)">
        <g transform="matrix(1,0,0,1,4763.25,0.192067)">
            <g transform="matrix(1.07591,0,0,1.07591,-37.9642,-38.0879)">
                <g transform="matrix(2.6731,0.94053,-1.1778,3.34746,-6481.19,-3176.13)">
                    <path d="M2715.46,316.456C2709.47,312.244 2706.32,309.087 2702.8,304.82C2697.65,298.601 2696.2,295.039 2693.01,289.96C2679.98,269.158 2657.74,249.998 2643.49,261.37C2634.85,268.273 2629.41,294.909 2626.64,313.283C2625.19,322.869 2625.78,333.782 2629.53,347.355C2631.87,355.82 2634.66,367.361 2645.83,381.192C2651.78,388.567 2660.67,395.013 2671.1,402.366C2677.97,407.213 2689.41,412.848 2696.39,416.049C2704.02,419.549 2717.79,423.438 2727.61,424.839C2739.78,426.574 2754.36,427.664 2766.26,427.288C2770.81,427.144 2786,425.837 2797.76,422.404C2807.81,419.47 2838.3,408.3 2836.76,405.098C2834.76,400.929 2811.59,351.076 2806.76,339.449C2803.45,331.489 2789.13,324.273 2779.69,322.369C2772.14,320.847 2760.37,322.768 2754.51,324.255C2748.92,325.673 2739.76,324.965 2736.89,324.778C2730.28,324.347 2723.04,321.79 2715.46,316.456Z" style="fill:rgb(45,54,96);"/>
                </g>
                <g transform="matrix(-2.6731,-0.94053,1.1778,-3.34746,7477.03,4174.5)">
                    <path d="M2715.46,316.456C2709.47,312.244 2706.32,309.087 2702.8,304.82C2697.65,298.601 2696.2,295.039 2693.01,289.96C2679.98,269.158 2657.74,249.998 2643.49,261.37C2634.85,268.273 2629.41,294.909 2626.64,313.283C2625.19,322.869 2625.78,333.782 2629.53,347.355C2631.87,355.82 2634.66,367.361 2645.83,381.192C2651.78,388.567 2660.67,395.013 2671.1,402.366C2677.97,407.213 2689.41,412.848 2696.39,416.049C2704.02,419.549 2717.79,423.438 2727.61,424.839C2739.78,426.574 2754.36,427.664 2766.26,427.288C2770.81,427.144 2786,425.837 2797.76,422.404C2807.81,419.47 2838.3,408.3 2836.76,405.098C2834.76,400.929 2811.59,351.076 2806.76,339.449C2803.45,331.489 2789.13,324.273 2779.69,322.369C2772.14,320.847 2763.38,321.614 2754.4,324.008C2745.75,326.315 2739.76,324.965 2736.89,324.778C2730.28,324.347 2723.04,321.79 2715.46,316.456Z" style="fill:rgb(244,243,244);"/>
                </g>
                <g transform="matrix(0.929443,0,0,0.929443,-3321.75,35.208)">
                    <path d="M4464.98,500.207C4464.73,511.544 4464.01,523.473 4462.29,538.379C4460.35,555.19 4458.73,569.07 4456.74,577.673C4449.59,608.601 4434.3,643.58 4409.73,685.789C4402.01,699.055 4388.65,718.894 4378.62,730.755C4333.73,783.882 4312.9,795.279 4229.08,830.771C4170.53,855.565 4101.56,868.199 4111.86,887.404C4127.48,916.497 4268.12,864.413 4305.32,844.738C4343.59,824.493 4382.56,785.792 4412.82,752.415C4440.22,722.202 4472.55,667.264 4486.42,629.297C4510.83,562.475 4510.92,520.997 4510.6,511.53C4510.52,509.281 4516.31,492.237 4510.95,479.94C4507.97,473.094 4502.76,464.29 4499.19,453.338C4495.21,441.092 4486.2,419.932 4477.15,410.494C4467.02,399.926 4453.43,390.854 4434.09,384.959C4410.03,377.626 4380.19,381.722 4361.13,388.75C4330.95,399.871 4316.1,421.953 4309.5,436.427C4300.61,455.944 4336.04,459.876 4341.61,450.148C4346.61,441.43 4352.39,435.081 4360.94,428.833C4372.02,420.741 4388.08,414.165 4407.58,415.983C4426.6,417.755 4442.56,427.235 4451.29,437.714C4460.57,448.832 4461.86,460.177 4463.78,470.355C4465.17,477.675 4465.19,490.251 4464.98,500.207Z" style="fill:rgb(45,54,96);"/>
                </g>
                <g transform="matrix(-0.929443,-1.13824e-16,1.13824e-16,-0.929443,4319.83,964.978)">
                    <path d="M4464.98,500.207C4464.73,511.544 4464.01,523.473 4462.29,538.379C4460.35,555.19 4458.73,569.07 4456.74,577.673C4449.59,608.601 4434.3,643.58 4409.73,685.789C4402.01,699.055 4388.65,718.894 4378.62,730.755C4333.73,783.882 4312.9,795.279 4229.08,830.771C4170.53,855.565 4101.56,868.199 4111.86,887.404C4127.48,916.497 4268.12,864.413 4305.32,844.738C4343.59,824.493 4382.56,785.792 4412.82,752.415C4440.22,722.202 4472.55,667.264 4486.42,629.297C4510.83,562.475 4510.92,520.997 4510.6,511.53C4510.52,509.281 4516.31,492.237 4510.95,479.94C4507.97,473.094 4502.76,464.29 4499.19,453.338C4495.21,441.092 4486.2,419.932 4477.15,410.494C4467.02,399.926 4453.43,390.854 4434.09,384.959C4410.03,377.626 4380.19,381.722 4361.13,388.75C4330.95,399.871 4316.1,421.953 4309.5,436.427C4300.61,455.944 4336.04,459.876 4341.61,450.148C4346.61,441.43 4352.39,435.081 4360.94,428.833C4372.02,420.741 4388.08,414.165 4407.58,415.983C4426.6,417.755 4442.56,427.235 4451.29,437.714C4460.57,448.832 4461.86,460.177 4463.78,470.355C4465.17,477.675 4465.19,490.251 4464.98,500.207Z" style="fill:rgb(244,243,244);"/>
                </g>
                <g transform="matrix(6.92033e-17,1.13018,-1.13018,6.92033e-17,1157.86,-230.176)">
                    <path d="M646.073,228.157C841.411,228.157 1000,386.746 1000,582.084C1000,777.422 841.411,936.011 646.073,936.011C450.735,936.011 292.146,777.422 292.146,582.084C292.146,386.746 450.735,228.157 646.073,228.157ZM646.073,263.55C821.877,263.55 964.607,406.28 964.607,582.084C964.607,757.888 821.877,900.618 646.073,900.618C470.269,900.618 327.538,757.888 327.538,582.084C327.538,406.28 470.269,263.55 646.073,263.55Z" style="fill:rgb(167,170,187);"/>
                </g>
                <g transform="matrix(-0.667667,-0.163046,0.163046,-0.667667,823.159,1018.16)">
                    <g transform="matrix(2.6731,0.94053,-0.94053,2.6731,-3829.73,-1900.13)">
                        <path d="M1767.41,225.249C1766.7,217.483 1732.54,221.525 1723.48,221.682C1719.17,221.757 1717.99,215.651 1715.63,211.406C1710.74,202.62 1707.55,196.869 1688.41,190.772C1671,185.225 1666.39,187.572 1656.57,187.045C1652.48,186.826 1652.29,182.131 1647.35,174.669C1641.61,166.001 1639.86,164.539 1635.42,164.775C1629.49,165.089 1623.88,198.397 1623.88,198.397C1623.88,198.397 1608.89,237.987 1617,264.023C1623.97,286.444 1632.97,305.04 1632.97,305.04L1662.87,306.207C1662.87,306.207 1683.36,277.866 1694.16,271.545C1703.86,265.872 1712.07,268.437 1727.72,268.281C1748.07,268.078 1768.12,233.015 1767.41,225.249Z" style="fill:rgb(244,243,244);"/>
                    </g>
                    <g transform="matrix(0.715954,-1.35994,9.56894,5.03767,-3887.98,2681.47)">
                        <path d="M2718.04,254.472C2720.6,254.33 2727.62,254.624 2728.86,256.827C2729.76,258.438 2715.17,258.886 2713.53,257.685C2709.93,255.038 2716.2,254.576 2718.04,254.472Z" style="fill:rgb(45,54,96);"/>
                    </g>
                    <g transform="matrix(0.514317,-1.23938,8.29948,3.4441,-3125.99,2683.01)">
                        <path d="M2743.98,248.254C2747.5,248.351 2790.6,249.132 2791.03,250.18C2791.26,250.731 2791.19,251.438 2777.8,252.913C2762.96,254.549 2750.54,255.391 2749.62,255.53C2747.23,255.89 2734.91,253.478 2733.57,251.241C2732.63,249.66 2741.69,248.191 2743.98,248.254Z" style="fill:rgb(226,228,235);"/>
                    </g>
                    <g transform="matrix(1.34055,0.0592926,-0.39705,8.97694,-2964.66,-2050.84)">
                        <path d="M2772.99,248.814C2786.11,249.553 2789.6,249.933 2790.13,250.414C2790.69,250.914 2789.15,251.251 2780.29,252.627C2777.74,253.023 2768.51,252.523 2766.23,251.315C2763.8,250.028 2770.05,248.648 2772.99,248.814Z" style="fill:rgb(45,54,96);"/>
                    </g>
                    <g transform="matrix(0.514317,-1.23938,8.29948,3.4441,-3043.71,2711.96)">
                        <path d="M2745.35,256.592C2745.03,256.608 2747.12,254.082 2747.72,251.645C2748.28,249.355 2747.33,247.142 2748.1,247.273C2749.13,247.449 2750.16,247.639 2752.83,247.874C2756.91,248.234 2764.43,248.325 2769.95,248.409C2781.57,248.586 2799.43,249.35 2795.91,250.631C2792.39,251.913 2765.84,255.527 2745.35,256.592Z" style="fill:rgb(226,228,235);"/>
                    </g>
                </g>
                <g transform="matrix(0.667667,0.163046,-0.163046,0.667667,172.813,-18.3998)">
                    <g transform="matrix(2.6731,0.94053,-0.94053,2.6731,-3829.73,-1900.13)">
                        <path d="M1738.75,247.717C1738.11,241.864 1727.85,237.265 1724.1,233.119C1721.21,229.922 1718.61,227.087 1716.25,222.843C1711.36,214.056 1707.55,196.869 1688.41,190.772C1671,185.225 1666.39,187.572 1656.57,187.045C1647.91,186.58 1637.05,164.458 1635.42,164.775C1633.65,165.117 1623.88,198.397 1623.88,198.397C1623.88,198.397 1608.89,237.987 1617,264.023C1623.97,286.444 1632.97,305.04 1632.97,305.04L1662.87,306.207C1662.87,306.207 1683.31,277.873 1694.16,271.545C1703.95,265.839 1720.55,272.206 1727.98,268.234C1734.79,264.594 1739.4,253.569 1738.75,247.717Z" style="fill:rgb(45,54,96);"/>
                    </g>
                    <g transform="matrix(0.993848,0.110751,-0.110751,0.993848,42.3839,-61.6941)">
                        <g transform="matrix(0.361466,-0.857341,1.24611,0.525377,-642.593,2464.77)">
                            <path d="M2540.23,122.705C2540.23,122.705 2542.73,198.126 2542.73,201.87C2542.73,205.614 2543.7,208.654 2539.95,208.654C2536.21,208.654 2537.17,205.614 2537.17,201.87C2537.17,198.126 2540.23,122.705 2540.23,122.705Z" style="fill:rgb(244,243,244);"/>
                        </g>
                        <g transform="matrix(0.505486,-0.781137,1.13535,0.734704,-980.311,2217.79)">
                            <path d="M2540.23,122.705C2540.23,122.705 2542.73,198.126 2542.73,201.87C2542.73,205.614 2543.7,208.654 2539.95,208.654C2536.21,208.654 2537.17,205.614 2537.17,201.87C2537.17,198.126 2540.23,122.705 2540.23,122.705Z" style="fill:rgb(244,243,244);"/>
                        </g>
                        <g transform="matrix(0.207475,-0.906998,1.31829,0.301556,-269.612,2648.14)">
                            <path d="M2540.23,122.705C2540.23,122.705 2542.73,198.126 2542.73,201.87C2542.73,205.614 2543.7,208.654 2539.95,208.654C2536.21,208.654 2537.17,205.614 2537.17,201.87C2537.17,198.126 2540.23,122.705 2540.23,122.705Z" style="fill:rgb(244,243,244);"/>
                        </g>
                    </g>
                    <g transform="matrix(1.05735,-2.00841,10.2321,5.38681,-4994.53,4380.34)">
                        <path d="M2718.27,254.665C2718.27,254.665 2724.36,256.553 2723.83,257.038C2723.3,257.523 2715.11,257.573 2715.11,257.573L2718.27,254.665Z" style="fill:rgb(244,243,244);"/>
                    </g>
                    <g transform="matrix(0.514317,-1.23938,8.29948,3.4441,-3125.99,2683.01)">
                        <path d="M2743.98,248.254C2747.5,248.351 2790.87,250.022 2790.97,250.139C2791.04,250.222 2768.41,252.387 2758.91,253.947C2753.69,254.804 2750.63,255.541 2749.71,255.68C2747.32,256.04 2734.91,253.478 2733.57,251.241C2732.63,249.66 2741.69,248.191 2743.98,248.254Z" style="fill:rgb(62,67,74);"/>
                    </g>
                    <g transform="matrix(0.514317,-1.23938,8.29948,3.4441,-3043.8,2711.62)">
                        <path d="M2746,256.169C2743.95,256.683 2746.51,247.002 2748.1,247.273C2749.13,247.449 2750.11,247.63 2752.75,247.921C2756.55,248.342 2759.87,248.491 2766.75,248.919C2775.81,249.483 2788.06,250.009 2797.23,250.399C2780.41,251.56 2752.17,254.625 2746,256.169Z" style="fill:rgb(62,67,74);"/>
                    </g>
                </g>
            </g>
        </g>
    </g>
</svg>
