<?xml version="1.0" encoding="UTF-8" standalone="no"?>
<!DOCTYPE svg PUBLIC "-//W3C//DTD SVG 1.1//EN" "http://www.w3.org/Graphics/SVG/1.1/DTD/svg11.dtd">
<svg width="100%" height="100%" viewBox="0 0 1394 348" version="1.1" xmlns="http://www.w3.org/2000/svg" xmlns:xlink="http://www.w3.org/1999/xlink" xml:space="preserve" xmlns:serif="http://www.serif.com/" style="fill-rule:evenodd;clip-rule:evenodd;stroke-linejoin:round;stroke-miterlimit:2;">
    <g transform="matrix(1,0,0,1,-5097.07,-6791.18)">
        <g transform="matrix(1,0,0,4.24379,-0.754384,-4222.26)">
            <g transform="matrix(1,0,0,0.235638,72.102,2159.67)">
                <g transform="matrix(1,0,0,1.01823,43.3757,-37.9086)">
                    <g transform="matrix(0.0537245,8.78285e-21,2.37556e-20,0.379763,6004.04,1173.28)">
                        <path d="M5587.53,1808.48C5587.54,1805.45 5579.86,1802.51 5565.84,1800.18C5473.06,1784.68 5379.56,1783.82 5284.71,1800.23C5271.21,1802.52 5263.84,1805.39 5263.84,1808.36C5263.24,1855.41 5263.24,2289.51 5263.24,2289.51L5587.53,2289.51C5587.53,2289.51 5587.53,1856.16 5587.53,1808.48Z" style="fill:rgb(204,206,219);"/>
                    </g>
                    <g transform="matrix(0.201053,0,0,0.290625,5204.73,1395.84)">
                        <path d="M5587.53,1817.15C5587.53,1809.45 5579.88,1802.73 5568.91,1800.79C5474.45,1784.54 5378.8,1783.59 5281.73,1800.75C5270.86,1802.71 5263.29,1809.4 5263.29,1817.04C5263.24,1893.79 5263.24,2289.51 5263.24,2289.51L5587.53,2289.51L5587.53,1817.15Z" style="fill:rgb(220,222,236);"/>
                    </g>
                    <g transform="matrix(0.400872,0,0,0.290625,4120.63,1413.73)">
                        <path d="M5587.53,1819.27C5587.53,1810.7 5582.79,1803.49 5576.51,1802.49C5540.1,1796.72 5425.98,1778.64 5425.98,1778.64C5425.98,1778.64 5310.88,1796.74 5274.27,1802.5C5267.98,1803.49 5263.24,1810.71 5263.24,1819.28C5263.24,1901.18 5263.24,2289.51 5263.24,2289.51L5587.53,2289.51C5587.53,2289.51 5587.53,1901.14 5587.53,1819.27Z" style="fill:rgb(204,206,219);"/>
                    </g>
                    <g transform="matrix(0.200837,0,0,3.51286,5187.14,-4840.74)">
                        <path d="M5528.78,1929.6C5528.78,1929.07 5528.57,1928.56 5528.2,1928.19C5527.82,1927.81 5527.31,1927.6 5526.78,1927.6C5522.95,1927.6 5514.61,1927.6 5510.78,1927.6C5510.25,1927.6 5509.74,1927.81 5509.37,1928.19C5508.99,1928.56 5508.78,1929.07 5508.78,1929.6L5508.78,1945.6C5508.78,1946.13 5508.99,1946.64 5509.37,1947.02C5509.74,1947.39 5510.25,1947.6 5510.78,1947.6L5526.78,1947.6C5527.31,1947.6 5527.82,1947.39 5528.2,1947.02C5528.57,1946.64 5528.78,1946.13 5528.78,1945.6L5528.78,1929.6Z" style="fill:rgb(139,24,88);fill-opacity:0.45;"/>
                    </g>
                </g>
                <g transform="matrix(1,0,0,1,12.9067,-36.9446)">
                    <g transform="matrix(0.215854,0,0,0.259067,5021.21,1501.2)">
                        <path d="M5587.53,1814.03C5587.53,1807.88 5584.01,1802.09 5578.04,1798.45C5543.26,1777.26 5424.78,1705.07 5424.78,1705.07C5424.78,1705.07 5307.19,1777.25 5272.66,1798.45C5266.74,1802.09 5263.24,1807.86 5263.24,1813.99C5263.24,1882.56 5263.24,2289.51 5263.24,2289.51L5587.53,2289.51C5587.53,2289.51 5587.53,1882.73 5587.53,1814.03Z" style="fill:rgb(204,206,219);"/>
                    </g>
                    <g transform="matrix(2.51157,0,0,0.752733,-7428,556.45)">
                        <path d="M5433.01,1891.69C5433.01,1891.16 5432.8,1890.65 5432.42,1890.28C5432.05,1889.9 5431.54,1889.69 5431.01,1889.69C5427.18,1889.69 5418.84,1889.69 5415.01,1889.69C5414.48,1889.69 5413.97,1889.9 5413.6,1890.28C5413.22,1890.65 5413.01,1891.16 5413.01,1891.69L5413.01,1907.69C5413.01,1908.22 5413.22,1908.73 5413.6,1909.11C5413.97,1909.48 5414.48,1909.69 5415.01,1909.69L5431.01,1909.69C5431.54,1909.69 5432.05,1909.48 5432.42,1909.11C5432.8,1908.73 5433.01,1908.22 5433.01,1907.69L5433.01,1891.69Z" style="fill:rgb(139,24,88);fill-opacity:0.45;"/>
                    </g>
                    <g transform="matrix(2.51157,0,0,0.752733,-7428,581.505)">
                        <path d="M5433.01,1891.69C5433.01,1891.16 5432.8,1890.65 5432.42,1890.28C5432.05,1889.9 5431.54,1889.69 5431.01,1889.69C5427.18,1889.69 5418.84,1889.69 5415.01,1889.69C5414.48,1889.69 5413.97,1889.9 5413.6,1890.28C5413.22,1890.65 5413.01,1891.16 5413.01,1891.69L5413.01,1907.69C5413.01,1908.22 5413.22,1908.73 5413.6,1909.11C5413.97,1909.48 5414.48,1909.69 5415.01,1909.69L5431.01,1909.69C5431.54,1909.69 5432.05,1909.48 5432.42,1909.11C5432.8,1908.73 5433.01,1908.22 5433.01,1907.69L5433.01,1891.69Z" style="fill:rgb(139,24,88);fill-opacity:0.45;"/>
                    </g>
                </g>
                <g transform="matrix(1,0,0,1,541.192,57.2508)">
                    <g transform="matrix(-0.0175432,0,0,0.203228,5624.83,1431.32)">
                        <path d="M5587.53,1818.23C5587.53,1810.5 5514.95,1804.24 5425.42,1804.24C5425.4,1804.24 5425.37,1804.24 5425.35,1804.24C5335.82,1804.24 5263.24,1810.5 5263.24,1818.23C5263.24,1897.78 5263.24,2289.51 5263.24,2289.51L5587.53,2289.51C5587.53,2289.51 5587.53,1897.78 5587.53,1818.23Z" style="fill:rgb(204,206,219);"/>
                    </g>
                    <g transform="matrix(0.243409,0,0,0.41181,4209.73,1135.55)">
                        <path d="M5587.53,1808.01C5587.53,1805.55 5586.27,1803.15 5583.91,1801.13C5559.75,1780.38 5422.81,1662.78 5422.81,1662.78C5422.81,1662.78 5289.94,1780.57 5266.69,1801.18C5264.44,1803.17 5263.24,1805.52 5263.24,1807.91C5263.24,1852.59 5263.24,2289.51 5263.24,2289.51L5587.53,2289.51L5587.53,1808.01Z" style="fill:rgb(220,222,236);"/>
                    </g>
                    <g transform="matrix(0.400872,0,0,0.30467,3355.44,1327.65)">
                        <path d="M5587.53,1820.65C5587.53,1816.3 5586.22,1812.12 5583.88,1809.04C5581.54,1805.97 5578.37,1804.24 5575.06,1804.24C5523.5,1804.24 5327.27,1804.24 5275.71,1804.24C5272.4,1804.24 5269.23,1805.97 5266.89,1809.04C5264.55,1812.12 5263.24,1816.3 5263.24,1820.65C5263.24,1905.39 5263.24,2289.51 5263.24,2289.51L5587.53,2289.51L5587.53,1820.65Z" style="fill:rgb(204,206,219);"/>
                    </g>
                    <g transform="matrix(1,0,0,1,-3.46078,-21.9503)">
                        <path d="M5588.78,1959.6C5588.78,1959.07 5588.57,1958.56 5588.2,1958.19C5587.82,1957.81 5587.31,1957.6 5586.78,1957.6L5570.78,1957.6C5570.25,1957.6 5569.74,1957.81 5569.37,1958.19C5568.99,1958.56 5568.78,1959.07 5568.78,1959.6C5568.78,1963.43 5568.78,1971.77 5568.78,1975.6C5568.78,1976.13 5568.99,1976.64 5569.37,1977.02C5569.74,1977.39 5570.25,1977.6 5570.78,1977.6L5586.78,1977.6C5587.31,1977.6 5587.82,1977.39 5588.2,1977.02C5588.57,1976.64 5588.78,1976.13 5588.78,1975.6L5588.78,1959.6ZM5558.78,1959.6C5558.78,1959.07 5558.57,1958.56 5558.2,1958.19C5557.82,1957.81 5557.31,1957.6 5556.78,1957.6L5540.78,1957.6C5540.25,1957.6 5539.74,1957.81 5539.37,1958.19C5538.99,1958.56 5538.78,1959.07 5538.78,1959.6L5538.78,1975.6C5538.78,1976.13 5538.99,1976.64 5539.37,1977.02C5539.74,1977.39 5540.25,1977.6 5540.78,1977.6C5544.61,1977.6 5552.95,1977.6 5556.78,1977.6C5557.31,1977.6 5557.82,1977.39 5558.2,1977.02C5558.57,1976.64 5558.78,1976.13 5558.78,1975.6L5558.78,1959.6ZM5498.78,1959.6C5498.78,1959.07 5498.57,1958.56 5498.2,1958.19C5497.82,1957.81 5497.31,1957.6 5496.78,1957.6L5480.78,1957.6C5480.25,1957.6 5479.74,1957.81 5479.37,1958.19C5478.99,1958.56 5478.78,1959.07 5478.78,1959.6L5478.78,1975.6C5478.78,1976.13 5478.99,1976.64 5479.37,1977.02C5479.74,1977.39 5480.25,1977.6 5480.78,1977.6C5484.61,1977.6 5492.95,1977.6 5496.78,1977.6C5497.31,1977.6 5497.82,1977.39 5498.2,1977.02C5498.57,1976.64 5498.78,1976.13 5498.78,1975.6L5498.78,1959.6ZM5528.78,1959.6C5528.78,1959.07 5528.57,1958.56 5528.2,1958.19C5527.82,1957.81 5527.31,1957.6 5526.78,1957.6L5510.78,1957.6C5510.25,1957.6 5509.74,1957.81 5509.37,1958.19C5508.99,1958.56 5508.78,1959.07 5508.78,1959.6L5508.78,1975.6C5508.78,1976.13 5508.99,1976.64 5509.37,1977.02C5509.74,1977.39 5510.25,1977.6 5510.78,1977.6C5514.61,1977.6 5522.95,1977.6 5526.78,1977.6C5527.31,1977.6 5527.82,1977.39 5528.2,1977.02C5528.57,1976.64 5528.78,1976.13 5528.78,1975.6L5528.78,1959.6ZM5588.78,1929.6C5588.78,1929.07 5588.57,1928.56 5588.2,1928.19C5587.82,1927.81 5587.31,1927.6 5586.78,1927.6L5570.78,1927.6C5570.25,1927.6 5569.74,1927.81 5569.37,1928.19C5568.99,1928.56 5568.78,1929.07 5568.78,1929.6C5568.78,1933.43 5568.78,1941.77 5568.78,1945.6C5568.78,1946.13 5568.99,1946.64 5569.37,1947.02C5569.74,1947.39 5570.25,1947.6 5570.78,1947.6L5586.78,1947.6C5587.31,1947.6 5587.82,1947.39 5588.2,1947.02C5588.57,1946.64 5588.78,1946.13 5588.78,1945.6C5588.78,1941.77 5588.78,1933.43 5588.78,1929.6ZM5498.78,1929.6C5498.78,1929.07 5498.57,1928.56 5498.2,1928.19C5497.82,1927.81 5497.31,1927.6 5496.78,1927.6C5492.95,1927.6 5484.61,1927.6 5480.78,1927.6C5480.25,1927.6 5479.74,1927.81 5479.37,1928.19C5478.99,1928.56 5478.78,1929.07 5478.78,1929.6L5478.78,1945.6C5478.78,1946.13 5478.99,1946.64 5479.37,1947.02C5479.74,1947.39 5480.25,1947.6 5480.78,1947.6L5496.78,1947.6C5497.31,1947.6 5497.82,1947.39 5498.2,1947.02C5498.57,1946.64 5498.78,1946.13 5498.78,1945.6L5498.78,1929.6ZM5528.78,1929.6C5528.78,1929.07 5528.57,1928.56 5528.2,1928.19C5527.82,1927.81 5527.31,1927.6 5526.78,1927.6C5522.95,1927.6 5514.61,1927.6 5510.78,1927.6C5510.25,1927.6 5509.74,1927.81 5509.37,1928.19C5508.99,1928.56 5508.78,1929.07 5508.78,1929.6L5508.78,1945.6C5508.78,1946.13 5508.99,1946.64 5509.37,1947.02C5509.74,1947.39 5510.25,1947.6 5510.78,1947.6L5526.78,1947.6C5527.31,1947.6 5527.82,1947.39 5528.2,1947.02C5528.57,1946.64 5528.78,1946.13 5528.78,1945.6L5528.78,1929.6ZM5558.78,1929.6C5558.78,1929.07 5558.57,1928.56 5558.2,1928.19C5557.82,1927.81 5557.31,1927.6 5556.78,1927.6L5540.78,1927.6C5540.25,1927.6 5539.74,1927.81 5539.37,1928.19C5538.99,1928.56 5538.78,1929.07 5538.78,1929.6L5538.78,1945.6C5538.78,1946.13 5538.99,1946.64 5539.37,1947.02C5539.74,1947.39 5540.25,1947.6 5540.78,1947.6L5556.78,1947.6C5557.31,1947.6 5557.82,1947.39 5558.2,1947.02C5558.57,1946.64 5558.78,1946.13 5558.78,1945.6L5558.78,1929.6Z" style="fill:rgb(139,24,88);fill-opacity:0.45;"/>
                    </g>
                </g>
                <g transform="matrix(1,0,0,1,529.058,57.2508)">
                    <g transform="matrix(0.215854,0,0,0.259067,4237.67,1412.77)">
                        <path d="M5587.53,2289.51C5584.03,2160.88 5586.11,1887.87 5586.11,1887.87C5586.11,1887.87 5486.04,1684.08 5425.39,1584.21C5368.54,1677.64 5266.52,1886.12 5266.52,1886.12C5266.52,1886.12 5269.31,2154.97 5263.24,2289.51L5587.53,2289.51Z" style="fill:rgb(204,206,219);"/>
                    </g>
                    <g transform="matrix(1,0,0,1,0.754384,-13.6499)">
                        <path d="M5403.01,1951.69C5403.01,1951.16 5402.8,1950.65 5402.42,1950.28C5402.05,1949.9 5401.54,1949.69 5401.01,1949.69L5385.01,1949.69C5384.48,1949.69 5383.97,1949.9 5383.6,1950.28C5383.22,1950.65 5383.01,1951.16 5383.01,1951.69L5383.01,1967.69C5383.01,1968.22 5383.22,1968.73 5383.6,1969.11C5383.97,1969.48 5384.48,1969.69 5385.01,1969.69C5388.84,1969.69 5397.18,1969.69 5401.01,1969.69C5401.54,1969.69 5402.05,1969.48 5402.42,1969.11C5402.8,1968.73 5403.01,1968.22 5403.01,1967.69L5403.01,1951.69ZM5433.01,1951.69C5433.01,1951.16 5432.8,1950.65 5432.42,1950.28C5432.05,1949.9 5431.54,1949.69 5431.01,1949.69C5427.18,1949.69 5418.84,1949.69 5415.01,1949.69C5414.48,1949.69 5413.97,1949.9 5413.6,1950.28C5413.22,1950.65 5413.01,1951.16 5413.01,1951.69L5413.01,1967.69C5413.01,1968.22 5413.22,1968.73 5413.6,1969.11C5413.97,1969.48 5414.48,1969.69 5415.01,1969.69C5418.84,1969.69 5427.18,1969.69 5431.01,1969.69C5431.54,1969.69 5432.05,1969.48 5432.42,1969.11C5432.8,1968.73 5433.01,1968.22 5433.01,1967.69L5433.01,1951.69ZM5403.01,1921.69C5403.01,1921.16 5402.8,1920.65 5402.42,1920.28C5402.05,1919.9 5401.54,1919.69 5401.01,1919.69L5385.01,1919.69C5384.48,1919.69 5383.97,1919.9 5383.6,1920.28C5383.22,1920.65 5383.01,1921.16 5383.01,1921.69L5383.01,1937.69C5383.01,1938.22 5383.22,1938.73 5383.6,1939.11C5383.97,1939.48 5384.48,1939.69 5385.01,1939.69C5388.84,1939.69 5397.18,1939.69 5401.01,1939.69C5401.54,1939.69 5402.05,1939.48 5402.42,1939.11C5402.8,1938.73 5403.01,1938.22 5403.01,1937.69L5403.01,1921.69ZM5433.01,1921.69C5433.01,1921.16 5432.8,1920.65 5432.42,1920.28C5432.05,1919.9 5431.54,1919.69 5431.01,1919.69C5427.18,1919.69 5418.84,1919.69 5415.01,1919.69C5414.48,1919.69 5413.97,1919.9 5413.6,1920.28C5413.22,1920.65 5413.01,1921.16 5413.01,1921.69L5413.01,1937.69C5413.01,1938.22 5413.22,1938.73 5413.6,1939.11C5413.97,1939.48 5414.48,1939.69 5415.01,1939.69C5418.84,1939.69 5427.18,1939.69 5431.01,1939.69C5431.54,1939.69 5432.05,1939.48 5432.42,1939.11C5432.8,1938.73 5433.01,1938.22 5433.01,1937.69L5433.01,1921.69Z" style="fill:rgb(139,24,88);fill-opacity:0.45;"/>
                    </g>
                </g>
                <g transform="matrix(1,0,0,1,521.235,57.2508)">
                    <g transform="matrix(0.400872,0,0,0.406455,3107.8,1117.28)">
                        <path d="M5587.53,1758.25C5587.53,1753.86 5585.17,1749.81 5581.32,1747.61C5577.48,1745.41 5572.74,1745.39 5568.88,1747.56C5506.58,1782.62 5307.5,1894.66 5269.53,1916.03C5265.64,1918.22 5263.24,1922.3 5263.24,1926.72C5263.24,1978.12 5263.24,2289.51 5263.24,2289.51L5587.53,2289.51L5587.53,1758.25Z" style="fill:rgb(204,206,219);"/>
                    </g>
                    <g transform="matrix(4.44362,0,0,0.444718,-18311.3,1097.13)">
                        <path d="M5324.25,1845.55C5324.25,1845.02 5324.04,1844.51 5323.67,1844.13C5323.29,1843.76 5322.78,1843.55 5322.25,1843.55C5318.42,1843.55 5310.08,1843.55 5306.25,1843.55C5305.72,1843.55 5305.21,1843.76 5304.84,1844.13C5304.46,1844.51 5304.25,1845.02 5304.25,1845.55L5304.25,1861.55C5304.25,1862.08 5304.46,1862.59 5304.84,1862.97C5305.21,1863.34 5305.72,1863.55 5306.25,1863.55L5322.25,1863.55C5322.78,1863.55 5323.29,1863.34 5323.67,1862.97C5324.04,1862.59 5324.25,1862.08 5324.25,1861.55L5324.25,1845.55Z" style="fill:rgb(139,24,88);fill-opacity:0.45;"/>
                    </g>
                    <g transform="matrix(4.45696,0,0,0.444718,-18382.1,1082.13)">
                        <path d="M5324.25,1845.55C5324.25,1845.02 5324.04,1844.51 5323.67,1844.13C5323.29,1843.76 5322.78,1843.55 5322.25,1843.55C5318.42,1843.55 5310.08,1843.55 5306.25,1843.55C5305.72,1843.55 5305.21,1843.76 5304.84,1844.13C5304.46,1844.51 5304.25,1845.02 5304.25,1845.55L5304.25,1861.55C5304.25,1862.08 5304.46,1862.59 5304.84,1862.97C5305.21,1863.34 5305.72,1863.55 5306.25,1863.55L5322.25,1863.55C5322.78,1863.55 5323.29,1863.34 5323.67,1862.97C5324.04,1862.59 5324.25,1862.08 5324.25,1861.55L5324.25,1845.55Z" style="fill:rgb(139,24,88);fill-opacity:0.45;"/>
                    </g>
                </g>
                <g transform="matrix(-1,0,0,1,10922.7,67.3418)">
                    <g transform="matrix(-1.91055,1.10306,0.5,0.866025,14224.2,-7199.57)">
                        <rect x="5503.96" y="3484.13" width="36.378" height="4.961" style="fill:rgb(204,206,219);"/>
                    </g>
                    <g transform="matrix(-1.11022e-16,2.20611,1,-1.66533e-16,1898.28,-10250.2)">
                        <rect x="5503.96" y="3484.13" width="36.378" height="4.961" style="fill:rgb(204,206,219);"/>
                    </g>
                    <g transform="matrix(-1.11022e-16,2.20611,1,-1.66533e-16,1964.06,-10250.2)">
                        <rect x="5503.96" y="3484.13" width="36.378" height="4.961" style="fill:rgb(204,206,219);"/>
                    </g>
                    <g transform="matrix(-1.91055,-1.10306,-0.5,0.866025,17711.8,4982.92)">
                        <rect x="5503.96" y="3484.13" width="36.378" height="4.961" style="fill:rgb(204,206,219);"/>
                    </g>
                    <g transform="matrix(0.218145,0,0,0.133467,4234.26,1600.6)">
                        <path d="M5587.53,1822.9C5587.53,1811.03 5584.09,1799.85 5578.25,1792.79C5523.59,1732.04 5426.42,1701.7 5426.42,1701.7C5426.42,1701.7 5331.47,1734.91 5273.6,1793.07C5267.18,1799.97 5263.32,1811.69 5263.32,1824.25C5263.24,1907.51 5263.24,2222.07 5263.24,2222.07L5587.53,2222.07C5587.53,2222.07 5587.53,1904.04 5587.53,1822.9Z" style="fill:rgb(204,206,219);"/>
                        <clipPath id="_clip1">
                            <path d="M5587.53,1822.9C5587.53,1811.03 5584.09,1799.85 5578.25,1792.79C5523.59,1732.04 5426.42,1701.7 5426.42,1701.7C5426.42,1701.7 5331.47,1734.91 5273.6,1793.07C5267.18,1799.97 5263.32,1811.69 5263.32,1824.25C5263.24,1907.51 5263.24,2222.07 5263.24,2222.07L5587.53,2222.07C5587.53,2222.07 5587.53,1904.04 5587.53,1822.9Z"/>
                        </clipPath>
                        <g clip-path="url(#_clip1)">
                            <g transform="matrix(-9.60048,0,0,4.67322,58323.6,-14152.8)">
                                <rect x="5490.2" y="3423.57" width="38.93" height="5.676" style="fill:rgb(139,24,88);fill-opacity:0.4;"/>
                            </g>
                            <g transform="matrix(-9.60048,0,0,4.67322,58320.8,-13996.9)">
                                <rect x="5490.2" y="3423.57" width="38.93" height="5.676" style="fill:rgb(139,24,88);fill-opacity:0.4;"/>
                            </g>
                            <g transform="matrix(-9.60048,0,0,4.67322,58323.6,-13840.9)">
                                <rect x="5490.2" y="3423.57" width="38.93" height="5.676" style="fill:rgb(139,24,88);fill-opacity:0.4;"/>
                            </g>
                        </g>
                    </g>
                </g>
                <g transform="matrix(-1,0,0,1,10927.7,67.3418)">
                    <g transform="matrix(0.215854,0,0,0.259067,4356.73,1414.77)">
                        <path d="M5587.53,1812.83C5587.53,1807.36 5584.75,1802.15 5579.87,1798.49C5547.9,1774.5 5426.82,1683.67 5426.82,1683.67C5426.82,1683.67 5303.62,1774.47 5271.06,1798.48C5266.08,1802.14 5263.24,1807.4 5263.24,1812.93C5263.24,1878.25 5263.24,2289.51 5263.24,2289.51L5587.53,2289.51L5587.53,1812.83Z" style="fill:rgb(204,206,219);"/>
                    </g>
                    <g transform="matrix(1,0,0,1,119.814,2.49152)">
                        <path d="M5403.01,1951.69C5403.01,1951.16 5402.8,1950.65 5402.42,1950.28C5402.05,1949.9 5401.54,1949.69 5401.01,1949.69L5385.01,1949.69C5384.48,1949.69 5383.97,1949.9 5383.6,1950.28C5383.22,1950.65 5383.01,1951.16 5383.01,1951.69L5383.01,1967.69C5383.01,1968.22 5383.22,1968.73 5383.6,1969.11C5383.97,1969.48 5384.48,1969.69 5385.01,1969.69C5388.84,1969.69 5397.18,1969.69 5401.01,1969.69C5401.54,1969.69 5402.05,1969.48 5402.42,1969.11C5402.8,1968.73 5403.01,1968.22 5403.01,1967.69L5403.01,1951.69ZM5433.01,1951.69C5433.01,1951.16 5432.8,1950.65 5432.42,1950.28C5432.05,1949.9 5431.54,1949.69 5431.01,1949.69C5427.18,1949.69 5418.84,1949.69 5415.01,1949.69C5414.48,1949.69 5413.97,1949.9 5413.6,1950.28C5413.22,1950.65 5413.01,1951.16 5413.01,1951.69L5413.01,1967.69C5413.01,1968.22 5413.22,1968.73 5413.6,1969.11C5413.97,1969.48 5414.48,1969.69 5415.01,1969.69C5418.84,1969.69 5427.18,1969.69 5431.01,1969.69C5431.54,1969.69 5432.05,1969.48 5432.42,1969.11C5432.8,1968.73 5433.01,1968.22 5433.01,1967.69L5433.01,1951.69ZM5403.01,1921.69C5403.01,1921.16 5402.8,1920.65 5402.42,1920.28C5402.05,1919.9 5401.54,1919.69 5401.01,1919.69L5385.01,1919.69C5384.48,1919.69 5383.97,1919.9 5383.6,1920.28C5383.22,1920.65 5383.01,1921.16 5383.01,1921.69L5383.01,1937.69C5383.01,1938.22 5383.22,1938.73 5383.6,1939.11C5383.97,1939.48 5384.48,1939.69 5385.01,1939.69C5388.84,1939.69 5397.18,1939.69 5401.01,1939.69C5401.54,1939.69 5402.05,1939.48 5402.42,1939.11C5402.8,1938.73 5403.01,1938.22 5403.01,1937.69L5403.01,1921.69ZM5433.01,1921.69C5433.01,1921.16 5432.8,1920.65 5432.42,1920.28C5432.05,1919.9 5431.54,1919.69 5431.01,1919.69C5427.18,1919.69 5418.84,1919.69 5415.01,1919.69C5414.48,1919.69 5413.97,1919.9 5413.6,1920.28C5413.22,1920.65 5413.01,1921.16 5413.01,1921.69L5413.01,1937.69C5413.01,1938.22 5413.22,1938.73 5413.6,1939.11C5413.97,1939.48 5414.48,1939.69 5415.01,1939.69C5418.84,1939.69 5427.18,1939.69 5431.01,1939.69C5431.54,1939.69 5432.05,1939.48 5432.42,1939.11C5432.8,1938.73 5433.01,1938.22 5433.01,1937.69L5433.01,1921.69ZM5403.01,1891.69C5403.01,1891.16 5402.8,1890.65 5402.42,1890.28C5402.05,1889.9 5401.54,1889.69 5401.01,1889.69L5385.01,1889.69C5384.48,1889.69 5383.97,1889.9 5383.6,1890.28C5383.22,1890.65 5383.01,1891.16 5383.01,1891.69L5383.01,1907.69C5383.01,1908.22 5383.22,1908.73 5383.6,1909.11C5383.97,1909.48 5384.48,1909.69 5385.01,1909.69L5401.01,1909.69C5401.54,1909.69 5402.05,1909.48 5402.42,1909.11C5402.8,1908.73 5403.01,1908.22 5403.01,1907.69L5403.01,1891.69ZM5433.01,1891.69C5433.01,1891.16 5432.8,1890.65 5432.42,1890.28C5432.05,1889.9 5431.54,1889.69 5431.01,1889.69C5427.18,1889.69 5418.84,1889.69 5415.01,1889.69C5414.48,1889.69 5413.97,1889.9 5413.6,1890.28C5413.22,1890.65 5413.01,1891.16 5413.01,1891.69L5413.01,1907.69C5413.01,1908.22 5413.22,1908.73 5413.6,1909.11C5413.97,1909.48 5414.48,1909.69 5415.01,1909.69L5431.01,1909.69C5431.54,1909.69 5432.05,1909.48 5432.42,1909.11C5432.8,1908.73 5433.01,1908.22 5433.01,1907.69L5433.01,1891.69Z" style="fill:rgb(139,24,88);fill-opacity:0.45;"/>
                    </g>
                </g>
                <g transform="matrix(-1,0,0,1,10912.5,66.6752)">
                    <g transform="matrix(0.0154819,0,0,0.203228,5188.56,1437.9)">
                        <path d="M5587.53,1816.59C5587.53,1809.77 5514.95,1804.24 5425.41,1804.24C5425.39,1804.24 5425.38,1804.24 5425.36,1804.24C5335.82,1804.24 5263.24,1809.77 5263.24,1816.59C5263.24,1892.21 5263.24,2289.51 5263.24,2289.51L5587.53,2289.51C5587.53,2289.51 5587.53,1892.21 5587.53,1816.59Z" style="fill:rgb(204,206,219);"/>
                    </g>
                    <g transform="matrix(0.0946789,0,0,0.203228,4758.89,1458.55)">
                        <path d="M5587.53,1828.84C5587.53,1822.31 5581.97,1816.06 5572.06,1811.44C5562.16,1806.83 5548.73,1804.24 5534.72,1804.24C5474.42,1804.24 5376.35,1804.24 5316.05,1804.24C5302.04,1804.24 5288.61,1806.83 5278.71,1811.44C5268.8,1816.06 5263.24,1822.31 5263.24,1828.84C5263.24,1927.54 5263.24,2289.51 5263.24,2289.51L5587.53,2289.51C5587.53,2289.51 5587.53,1927.54 5587.53,1828.84Z" style="fill:rgb(204,206,219);"/>
                    </g>
                    <g transform="matrix(0.215854,0,0,0.203228,4101.46,1481.51)">
                        <path d="M5587.53,1828.84C5587.53,1822.31 5585.09,1816.06 5580.75,1811.44C5576.4,1806.83 5570.51,1804.24 5564.37,1804.24C5504.67,1804.24 5346.1,1804.24 5286.4,1804.24C5280.26,1804.24 5274.37,1806.83 5270.02,1811.44C5265.68,1816.06 5263.24,1822.31 5263.24,1828.84C5263.24,1927.54 5263.24,2289.51 5263.24,2289.51L5587.53,2289.51C5587.53,2289.51 5587.53,1927.54 5587.53,1828.84Z" style="fill:rgb(220,222,236);"/>
                    </g>
                    <g transform="matrix(0.400872,0,0,0.406455,3097.39,1135.75)">
                        <path d="M5587.53,1816.54C5587.53,1813.28 5586.22,1810.15 5583.88,1807.84C5581.54,1805.53 5578.37,1804.24 5575.06,1804.24L5275.71,1804.24C5272.4,1804.24 5269.23,1805.53 5266.89,1807.84C5264.55,1810.15 5263.24,1813.28 5263.24,1816.54C5263.24,1892.04 5263.24,2289.51 5263.24,2289.51L5587.53,2289.51C5587.53,2289.51 5587.53,1892.04 5587.53,1816.54Z" style="fill:rgb(204,206,219);"/>
                    </g>
                    <g transform="matrix(1,0,0,1,3.03858,35.546)">
                        <path d="M5264.24,1935.56C5264.24,1935.03 5264.03,1934.52 5263.66,1934.14C5263.28,1933.77 5262.77,1933.56 5262.24,1933.56C5258.41,1933.56 5250.07,1933.56 5246.24,1933.56C5245.71,1933.56 5245.2,1933.77 5244.83,1934.14C5244.45,1934.52 5244.24,1935.03 5244.24,1935.56C5244.24,1939.39 5244.24,1947.73 5244.24,1951.56C5244.24,1952.09 5244.45,1952.6 5244.83,1952.98C5245.2,1953.35 5245.71,1953.56 5246.24,1953.56C5250.07,1953.56 5258.41,1953.56 5262.24,1953.56C5262.77,1953.56 5263.28,1953.35 5263.66,1952.98C5264.03,1952.6 5264.24,1952.09 5264.24,1951.56L5264.24,1935.56ZM5294.25,1935.56C5294.25,1935.03 5294.04,1934.52 5293.66,1934.14C5293.29,1933.77 5292.78,1933.56 5292.25,1933.56L5276.24,1933.56C5275.72,1933.56 5275.21,1933.77 5274.83,1934.14C5274.46,1934.52 5274.24,1935.03 5274.24,1935.56L5274.24,1951.56C5274.24,1952.09 5274.46,1952.6 5274.83,1952.98C5275.21,1953.35 5275.72,1953.56 5276.24,1953.56C5280.08,1953.56 5288.42,1953.56 5292.25,1953.56C5292.78,1953.56 5293.29,1953.35 5293.66,1952.98C5294.04,1952.6 5294.25,1952.09 5294.25,1951.56L5294.25,1935.56ZM5234.24,1935.56C5234.24,1935.03 5234.03,1934.52 5233.65,1934.14C5233.28,1933.77 5232.77,1933.56 5232.24,1933.56L5216.23,1933.56C5215.7,1933.56 5215.2,1933.77 5214.82,1934.14C5214.45,1934.52 5214.23,1935.03 5214.23,1935.56L5214.23,1951.56C5214.23,1952.09 5214.45,1952.6 5214.82,1952.98C5215.2,1953.35 5215.7,1953.56 5216.23,1953.56L5232.24,1953.56C5232.77,1953.56 5233.28,1953.35 5233.65,1952.98C5234.03,1952.6 5234.24,1952.09 5234.24,1951.56L5234.24,1935.56ZM5324.25,1935.56C5324.25,1935.03 5324.04,1934.52 5323.67,1934.14C5323.29,1933.77 5322.78,1933.56 5322.25,1933.56L5306.25,1933.56C5305.72,1933.56 5305.21,1933.77 5304.84,1934.14C5304.46,1934.52 5304.25,1935.03 5304.25,1935.56L5304.25,1951.56C5304.25,1952.09 5304.46,1952.6 5304.84,1952.98C5305.21,1953.35 5305.72,1953.56 5306.25,1953.56L5322.25,1953.56C5322.78,1953.56 5323.29,1953.35 5323.67,1952.98C5324.04,1952.6 5324.25,1952.09 5324.25,1951.56L5324.25,1935.56ZM5264.24,1905.56C5264.24,1905.03 5264.03,1904.52 5263.66,1904.14C5263.28,1903.77 5262.77,1903.56 5262.24,1903.56L5246.24,1903.56C5245.71,1903.56 5245.2,1903.77 5244.83,1904.14C5244.45,1904.52 5244.24,1905.03 5244.24,1905.56C5244.24,1909.39 5244.24,1917.73 5244.24,1921.56C5244.24,1922.09 5244.45,1922.6 5244.83,1922.97C5245.2,1923.35 5245.71,1923.56 5246.24,1923.56L5262.24,1923.56C5262.77,1923.56 5263.28,1923.35 5263.66,1922.97C5264.03,1922.6 5264.24,1922.09 5264.24,1921.56L5264.24,1905.56ZM5294.25,1905.56C5294.25,1905.03 5294.04,1904.52 5293.66,1904.14C5293.29,1903.77 5292.78,1903.56 5292.25,1903.56L5276.24,1903.56C5275.72,1903.56 5275.21,1903.77 5274.83,1904.14C5274.46,1904.52 5274.24,1905.03 5274.24,1905.56L5274.24,1921.56C5274.24,1922.09 5274.46,1922.6 5274.83,1922.97C5275.21,1923.35 5275.72,1923.56 5276.24,1923.56L5292.25,1923.56C5292.78,1923.56 5293.29,1923.35 5293.66,1922.97C5294.04,1922.6 5294.25,1922.09 5294.25,1921.56L5294.25,1905.56ZM5234.24,1905.56C5234.24,1905.03 5234.03,1904.52 5233.65,1904.14C5233.28,1903.77 5232.77,1903.56 5232.24,1903.56L5216.23,1903.56C5215.7,1903.56 5215.2,1903.77 5214.82,1904.14C5214.45,1904.52 5214.23,1905.03 5214.23,1905.56L5214.23,1921.56C5214.23,1922.09 5214.45,1922.6 5214.82,1922.97C5215.2,1923.35 5215.7,1923.56 5216.23,1923.56L5232.24,1923.56C5232.77,1923.56 5233.28,1923.35 5233.65,1922.97C5234.03,1922.6 5234.24,1922.09 5234.24,1921.56L5234.24,1905.56ZM5324.25,1905.56C5324.25,1905.03 5324.04,1904.52 5323.67,1904.14C5323.29,1903.77 5322.78,1903.56 5322.25,1903.56C5318.42,1903.56 5310.08,1903.56 5306.25,1903.56C5305.72,1903.56 5305.21,1903.77 5304.84,1904.14C5304.46,1904.52 5304.25,1905.03 5304.25,1905.56L5304.25,1921.56C5304.25,1922.09 5304.46,1922.6 5304.84,1922.97C5305.21,1923.35 5305.72,1923.56 5306.25,1923.56L5322.25,1923.56C5322.78,1923.56 5323.29,1923.35 5323.67,1922.97C5324.04,1922.6 5324.25,1922.09 5324.25,1921.56L5324.25,1905.56ZM5324.24,1875.55C5324.24,1875.02 5324.03,1874.51 5323.66,1874.14C5323.28,1873.76 5322.77,1873.55 5322.24,1873.55L5306.24,1873.55C5305.71,1873.55 5305.2,1873.76 5304.82,1874.14C5304.45,1874.51 5304.24,1875.02 5304.24,1875.55L5304.24,1891.56C5304.24,1892.09 5304.45,1892.6 5304.82,1892.97C5305.2,1893.35 5305.71,1893.56 5306.24,1893.56L5322.24,1893.56C5322.77,1893.56 5323.28,1893.35 5323.66,1892.97C5324.03,1892.6 5324.24,1892.09 5324.24,1891.56L5324.24,1875.55ZM5234.23,1875.55C5234.23,1875.02 5234.02,1874.51 5233.64,1874.14C5233.27,1873.76 5232.76,1873.55 5232.23,1873.55L5216.22,1873.55C5215.69,1873.55 5215.18,1873.76 5214.81,1874.14C5214.43,1874.51 5214.22,1875.02 5214.22,1875.55L5214.22,1891.56C5214.22,1892.09 5214.43,1892.6 5214.81,1892.97C5215.18,1893.35 5215.69,1893.56 5216.22,1893.56L5232.23,1893.56C5232.76,1893.56 5233.27,1893.35 5233.64,1892.97C5234.02,1892.6 5234.23,1892.09 5234.23,1891.56L5234.23,1875.55ZM5264.23,1875.55C5264.23,1875.02 5264.02,1874.51 5263.65,1874.14C5263.27,1873.76 5262.76,1873.55 5262.23,1873.55L5246.23,1873.55C5245.7,1873.55 5245.19,1873.76 5244.82,1874.14C5244.44,1874.51 5244.23,1875.02 5244.23,1875.55C5244.23,1879.38 5244.23,1887.72 5244.23,1891.56C5244.23,1892.09 5244.44,1892.6 5244.82,1892.97C5245.19,1893.35 5245.7,1893.56 5246.23,1893.56L5262.23,1893.56C5262.76,1893.56 5263.27,1893.35 5263.65,1892.97C5264.02,1892.6 5264.23,1892.09 5264.23,1891.56L5264.23,1875.55ZM5294.24,1875.55C5294.24,1875.02 5294.03,1874.51 5293.65,1874.14C5293.28,1873.76 5292.77,1873.55 5292.24,1873.55L5276.23,1873.55C5275.7,1873.55 5275.19,1873.76 5274.82,1874.14C5274.44,1874.51 5274.23,1875.02 5274.23,1875.55L5274.23,1891.56C5274.23,1892.09 5274.44,1892.6 5274.82,1892.97C5275.19,1893.35 5275.7,1893.56 5276.23,1893.56L5292.24,1893.56C5292.77,1893.56 5293.28,1893.35 5293.65,1892.97C5294.03,1892.6 5294.24,1892.09 5294.24,1891.56C5294.24,1887.72 5294.24,1879.38 5294.24,1875.55ZM5264.24,1845.55C5264.24,1845.02 5264.03,1844.51 5263.66,1844.13C5263.28,1843.76 5262.77,1843.55 5262.24,1843.55L5246.24,1843.55C5245.71,1843.55 5245.2,1843.76 5244.83,1844.13C5244.45,1844.51 5244.24,1845.02 5244.24,1845.55C5244.24,1849.38 5244.24,1857.72 5244.24,1861.55C5244.24,1862.08 5244.45,1862.59 5244.83,1862.97C5245.2,1863.34 5245.71,1863.55 5246.24,1863.55L5262.24,1863.55C5262.77,1863.55 5263.28,1863.34 5263.66,1862.97C5264.03,1862.59 5264.24,1862.08 5264.24,1861.55L5264.24,1845.55ZM5294.25,1845.55C5294.25,1845.02 5294.04,1844.51 5293.66,1844.13C5293.29,1843.76 5292.78,1843.55 5292.25,1843.55L5276.24,1843.55C5275.72,1843.55 5275.21,1843.76 5274.83,1844.13C5274.46,1844.51 5274.24,1845.02 5274.24,1845.55L5274.24,1861.55C5274.24,1862.08 5274.46,1862.59 5274.83,1862.97C5275.21,1863.34 5275.72,1863.55 5276.24,1863.55C5280.08,1863.55 5288.42,1863.55 5292.25,1863.55C5292.78,1863.55 5293.29,1863.34 5293.66,1862.97C5294.04,1862.59 5294.25,1862.08 5294.25,1861.55L5294.25,1845.55ZM5234.24,1845.55C5234.24,1845.02 5234.03,1844.51 5233.65,1844.13C5233.28,1843.76 5232.77,1843.55 5232.24,1843.55L5216.23,1843.55C5215.7,1843.55 5215.2,1843.76 5214.82,1844.13C5214.45,1844.51 5214.23,1845.02 5214.23,1845.55L5214.23,1861.55C5214.23,1862.08 5214.45,1862.59 5214.82,1862.97C5215.2,1863.34 5215.7,1863.55 5216.23,1863.55L5232.24,1863.55C5232.77,1863.55 5233.28,1863.34 5233.65,1862.97C5234.03,1862.59 5234.24,1862.08 5234.24,1861.55L5234.24,1845.55ZM5324.25,1845.55C5324.25,1845.02 5324.04,1844.51 5323.67,1844.13C5323.29,1843.76 5322.78,1843.55 5322.25,1843.55C5318.42,1843.55 5310.08,1843.55 5306.25,1843.55C5305.72,1843.55 5305.21,1843.76 5304.84,1844.13C5304.46,1844.51 5304.25,1845.02 5304.25,1845.55L5304.25,1861.55C5304.25,1862.08 5304.46,1862.59 5304.84,1862.97C5305.21,1863.34 5305.72,1863.55 5306.25,1863.55L5322.25,1863.55C5322.78,1863.55 5323.29,1863.34 5323.67,1862.97C5324.04,1862.59 5324.25,1862.08 5324.25,1861.55L5324.25,1845.55Z" style="fill:rgb(139,24,88);fill-opacity:0.45;"/>
                    </g>
                </g>
                <g>
                    <g transform="matrix(1.00509,0,0,0.81637,-131.306,265.287)">
                        <rect x="5309.49" y="2110.12" width="1208.31" height="208.351" style="fill:rgb(244,243,244);"/>
                    </g>
                    <g transform="matrix(6.12323e-17,-1,3.35911,2.05686e-16,-3140.24,7741.56)">
                        <g transform="matrix(1,-3.37757e-17,3.08651e-17,0.489956,0.754384,-135.387)">
                            <path d="M5628.69,5459.19L5615.8,5459.19C5615.8,5459.19 5620.21,5910.1 5622.36,5910.1C5624.51,5910.1 5628.69,5459.19 5628.69,5459.19Z" style="fill:rgb(204,206,219);"/>
                        </g>
                        <g transform="matrix(0.691346,0,0,0.205812,1840.75,1418.08)">
                            <circle cx="5471.01" cy="5436.27" r="22.917" style="fill:rgb(139,24,88);"/>
                        </g>
                        <g transform="matrix(1.16082,0,0,0.345574,-1715.26,666.578)">
                            <circle cx="6321.71" cy="5412.32" r="7.872" style="fill:rgb(244,243,244);"/>
                        </g>
                        <g transform="matrix(0.734915,0,0,0.312378,980.485,848.812)">
                            <rect x="6308.3" y="5416.91" width="17.54" height="36.448" style="fill:rgb(139,24,88);"/>
                        </g>
                    </g>
                    <g transform="matrix(1,0,0,1,-71.3477,-4942.92)">
                        <path d="M6286.29,6961.57C6286.93,6959.45 6287.96,6957.7 6289.39,6956.32C6290.82,6954.94 6292.39,6954.04 6294.08,6953.62C6295.78,6953.19 6297.5,6953.3 6299.25,6953.94C6300.99,6954.57 6302.5,6955.84 6303.78,6957.75C6304.2,6958.28 6304.6,6958.92 6304.97,6959.66C6305.34,6960.4 6305.52,6961.09 6305.52,6961.72C6305.74,6976.88 6305.66,6992 6305.29,7007.1C6304.91,7022.2 6304.31,7037.32 6303.46,7052.47C6303.46,7054.91 6302.69,7056.82 6301.15,7058.19C6299.62,7059.57 6297.87,7060.45 6295.91,7060.82C6293.95,7061.19 6291.96,7060.98 6289.95,7060.18C6287.94,7059.39 6286.45,7058.03 6285.5,7056.13C6285.39,7056.02 6285.34,7055.92 6285.34,7055.81L6285.34,7056.13C6278.45,7044.79 6271.19,7033.9 6263.57,7023.47C6255.94,7013.03 6247.99,7002.68 6239.73,6992.4L6239.73,7040.55C6239.73,7043.84 6239.67,7046.51 6239.57,7048.58C6239.46,7050.65 6239.33,7052.26 6239.17,7053.43C6239.01,7054.59 6238.77,7055.6 6238.45,7056.45C6237.5,7058.99 6236.05,7060.68 6234.09,7061.53C6232.12,7062.38 6230.14,7062.59 6228.12,7062.17C6226.11,7061.74 6224.36,7060.68 6222.88,7058.99C6221.4,7057.29 6220.65,7055.18 6220.65,7052.63L6220.65,7008.29C6220.65,7003.84 6220.63,6999.68 6220.58,6995.81C6220.52,6991.95 6220.5,6988.69 6220.5,6986.04C6220.5,6982.44 6220.44,6978.86 6220.34,6975.31C6220.23,6971.76 6220.23,6968.19 6220.34,6964.59C6220.34,6962.78 6220.79,6961.25 6221.69,6959.98C6222.59,6958.7 6223.73,6957.72 6225.11,6957.03C6226.48,6956.35 6227.97,6955.95 6229.56,6955.84C6231.15,6955.74 6232.68,6955.95 6234.16,6956.48C6235.44,6956.9 6236.73,6957.78 6238.06,6959.1C6239.38,6960.43 6240.68,6961.86 6241.95,6963.39C6243.22,6964.93 6244.41,6966.47 6245.53,6968C6246.64,6969.54 6247.57,6970.78 6248.31,6971.74C6251.06,6975.13 6254.24,6979.02 6257.85,6983.42C6261.45,6987.82 6264.78,6991.97 6267.86,6995.89C6270.93,6999.92 6273.92,7003.95 6276.84,7007.97C6279.75,7012 6282.59,7016.03 6285.34,7020.05C6285.66,7010.41 6285.87,7000.82 6285.98,6991.28C6286.08,6981.75 6286.13,6972.16 6286.13,6962.52L6286.29,6961.57ZM6362.9,7050.57C6362.58,7053.22 6361.6,7055.39 6359.96,7057.08C6358.32,7058.78 6356.46,7059.84 6354.4,7060.26C6352.33,7060.68 6350.34,7060.42 6348.44,7059.47C6346.53,7058.51 6345.15,7056.66 6344.3,7053.9C6343.77,7052.1 6343.43,7050.14 6343.27,7048.02C6343.11,7045.9 6343.06,7043.81 6343.11,7041.74C6343.16,7039.68 6343.24,7037.69 6343.35,7035.78C6343.45,7033.88 6343.51,7032.29 6343.51,7031.02C6343.51,7027.94 6343.48,7024.93 6343.43,7021.96C6343.38,7018.99 6343.35,7015.97 6343.35,7012.9C6338.16,7007.92 6333.42,7002.65 6329.12,6997.09C6324.83,6991.52 6320.99,6985.56 6317.6,6979.21C6316.54,6977.3 6315.54,6975.21 6314.58,6972.93C6313.63,6970.65 6313.1,6968.4 6312.99,6966.17C6312.46,6964.16 6312.68,6962.33 6313.63,6960.69C6314.58,6959.05 6315.88,6957.78 6317.52,6956.88C6319.16,6955.98 6320.97,6955.55 6322.93,6955.61C6324.89,6955.66 6326.66,6956.32 6328.25,6957.59C6329.42,6958.55 6330.37,6959.66 6331.11,6960.93C6331.85,6962.2 6332.49,6963.55 6333.02,6964.98C6333.55,6966.41 6334.05,6967.87 6334.53,6969.35C6335.01,6970.84 6335.61,6972.21 6336.36,6973.49C6338.58,6977.51 6341.05,6981.25 6343.75,6984.69C6346.45,6988.13 6349.34,6991.55 6352.41,6994.94C6355.16,6991.23 6358.13,6987.76 6361.31,6984.53C6364.49,6981.3 6367.4,6977.83 6370.05,6974.12C6370.58,6973.27 6371.37,6971.98 6372.43,6970.23C6373.49,6968.48 6374.61,6966.65 6375.77,6964.74C6376.94,6962.84 6378.15,6961.06 6379.43,6959.42C6380.7,6957.78 6381.81,6956.69 6382.76,6956.16C6384.46,6955.1 6386.18,6954.62 6387.93,6954.73C6389.68,6954.84 6391.27,6955.37 6392.7,6956.32C6394.13,6957.27 6395.27,6958.57 6396.11,6960.21C6396.96,6961.86 6397.28,6963.63 6397.07,6965.54C6396.86,6967.55 6395.93,6969.99 6394.29,6972.85C6392.64,6975.71 6390.74,6978.62 6388.57,6981.59C6386.39,6984.56 6384.19,6987.36 6381.97,6990.01C6379.74,6992.66 6378,6994.78 6376.73,6996.37C6375.66,6997.64 6374.63,6998.89 6373.62,7000.11C6372.62,7001.32 6371.59,7002.52 6370.53,7003.68C6369.15,7005.27 6367.82,7006.86 6366.55,7008.45C6365.28,7010.04 6364.01,7011.63 6362.74,7013.22L6362.74,7031.34C6362.74,7037.38 6362.79,7043.41 6362.9,7049.45L6362.9,7050.57ZM6455.46,7024.6C6457.16,7022.9 6459.09,7021.92 6461.26,7021.66C6463.44,7021.39 6465.42,7021.68 6467.22,7022.53C6469.03,7023.38 6470.43,7024.73 6471.44,7026.58C6472.44,7028.44 6472.68,7030.64 6472.15,7033.18C6471.51,7035.72 6470.3,7038.08 6468.49,7040.25C6466.69,7042.42 6464.89,7044.41 6463.09,7046.21C6458.96,7050.56 6454.38,7053.76 6449.34,7055.83C6444.31,7057.89 6439.23,7058.87 6434.09,7058.77C6428.95,7058.66 6423.91,7057.44 6418.99,7055.11C6414.06,7052.78 6409.64,7049.28 6405.72,7044.62C6403.39,7041.87 6401.43,7038.95 6399.84,7035.88C6398.25,7032.81 6397.03,7029.58 6396.18,7026.19C6394.91,7021.21 6394.33,7016.01 6394.43,7010.61C6394.54,7005.21 6395.39,6999.96 6396.98,6994.88C6398.57,6989.79 6400.82,6985 6403.73,6980.49C6406.65,6975.99 6410.22,6972.15 6414.46,6968.97C6417.53,6966.64 6420.63,6964.63 6423.76,6962.93C6426.88,6961.24 6430.19,6959.65 6433.69,6958.16C6435.7,6957.32 6437.77,6956.49 6439.89,6955.7C6442.01,6954.91 6444.18,6954.3 6446.4,6953.87C6448.63,6953.45 6450.85,6953.29 6453.08,6953.4C6455.3,6953.5 6457.48,6953.98 6459.6,6954.83C6461.08,6955.46 6462.56,6956.34 6464.05,6957.45C6465.53,6958.56 6466.9,6959.83 6468.18,6961.26C6469.45,6962.69 6470.56,6964.2 6471.51,6965.79C6472.47,6967.38 6473.16,6968.92 6473.58,6970.4C6473.9,6971.78 6473.98,6973.18 6473.82,6974.61C6473.66,6976.04 6473.24,6977.34 6472.55,6978.51C6471.86,6979.67 6470.93,6980.65 6469.77,6981.45C6468.6,6982.24 6467.28,6982.74 6465.79,6982.96C6463.36,6983.28 6461.48,6983.01 6460.15,6982.16C6458.83,6981.32 6457.77,6980.26 6456.97,6978.98C6456.18,6977.71 6455.41,6976.47 6454.67,6975.25C6453.93,6974.03 6452.87,6973.16 6451.49,6972.63C6450.64,6972.63 6450.01,6972.68 6449.58,6972.78C6445.98,6973.74 6442.35,6975.04 6438.69,6976.68C6435.04,6978.32 6431.65,6980.31 6428.52,6982.64C6425.4,6984.97 6422.67,6987.67 6420.34,6990.74C6418.01,6993.82 6416.31,6997.26 6415.25,7001.07C6413.98,7005.63 6413.51,7010.24 6413.82,7014.9C6414.14,7019.56 6415.41,7023.96 6417.64,7028.09C6418.91,7030.53 6420.6,7032.65 6422.72,7034.45C6424.84,7036.25 6427.17,7037.6 6429.72,7038.5C6432.26,7039.4 6434.86,7039.72 6437.5,7039.46C6440.15,7039.19 6442.69,7038.27 6445.13,7036.68C6447.25,7035.19 6449.16,7033.36 6450.85,7031.19C6452.55,7029.02 6454.09,7026.82 6455.46,7024.6ZM5725.89,7014.98C5725.89,7021.7 5723.55,7026.82 5718.88,7030.34C5714.22,7033.85 5707.23,7035.61 5697.94,7035.61C5693.17,7035.61 5689.11,7035.29 5685.75,7034.64C5682.39,7034 5679.24,7033.05 5676.32,7031.8L5676.32,7017.03C5679.64,7018.6 5683.38,7019.91 5687.54,7020.96C5691.7,7022.02 5695.36,7022.54 5698.52,7022.54C5705.01,7022.54 5708.25,7020.67 5708.25,7016.92C5708.25,7015.51 5707.82,7014.37 5706.96,7013.49C5706.1,7012.61 5704.62,7011.61 5702.51,7010.5C5700.4,7009.39 5697.59,7008.09 5694.07,7006.61C5689.03,7004.5 5685.33,7002.54 5682.97,7000.75C5680.6,6998.95 5678.88,6996.89 5677.81,6994.57C5676.74,6992.24 5676.2,6989.38 5676.2,6985.98C5676.2,6980.16 5678.45,6975.66 5682.97,6972.48C5687.48,6969.29 5693.87,6967.7 5702.15,6967.7C5710.05,6967.7 5717.72,6969.42 5725.18,6972.86L5719.79,6985.75C5716.51,6984.34 5713.44,6983.19 5710.59,6982.29C5707.74,6981.39 5704.83,6980.94 5701.86,6980.94C5696.59,6980.94 5693.95,6982.37 5693.95,6985.22C5693.95,6986.82 5694.8,6988.21 5696.5,6989.38C5698.2,6990.55 5701.92,6992.29 5707.66,6994.59C5712.78,6996.66 5716.53,6998.6 5718.91,7000.4C5721.3,7002.19 5723.05,7004.26 5724.19,7006.61C5725.32,7008.95 5725.89,7011.74 5725.89,7014.98ZM5837.33,7035.61C5816.94,7035.61 5806.74,7024.42 5806.74,7002.03C5806.74,6990.9 5809.52,6982.4 5815.07,6976.52C5820.61,6970.64 5828.56,6967.7 5838.91,6967.7C5846.49,6967.7 5853.29,6969.18 5859.3,6972.15L5854.03,6985.98C5851.22,6984.85 5848.6,6983.92 5846.18,6983.2C5843.76,6982.48 5841.34,6982.11 5838.91,6982.11C5829.62,6982.11 5824.97,6988.72 5824.97,7001.92C5824.97,7014.73 5829.62,7021.14 5838.91,7021.14C5842.35,7021.14 5845.53,7020.68 5848.46,7019.76C5851.39,7018.84 5854.32,7017.41 5857.25,7015.45L5857.25,7030.75C5854.36,7032.58 5851.44,7033.85 5848.49,7034.56C5845.54,7035.26 5841.82,7035.61 5837.33,7035.61ZM5914.03,7034.44L5910.57,7025.53L5910.11,7025.53C5907.1,7029.32 5904,7031.95 5900.82,7033.41C5897.63,7034.88 5893.48,7035.61 5888.37,7035.61C5882.08,7035.61 5877.13,7033.81 5873.51,7030.22C5869.9,7026.62 5868.09,7021.51 5868.09,7014.87C5868.09,7007.91 5870.53,7002.79 5875.39,6999.49C5880.25,6996.19 5887.59,6994.36 5897.39,6994.01L5908.76,6993.66L5908.76,6990.78C5908.76,6984.15 5905.36,6980.82 5898.56,6980.82C5893.33,6980.82 5887.18,6982.41 5880.11,6985.57L5874.19,6973.5C5881.73,6969.56 5890.09,6967.58 5899.27,6967.58C5908.05,6967.58 5914.79,6969.5 5919.48,6973.32C5924.17,6977.15 5926.51,6982.97 5926.51,6990.78L5926.51,7034.44L5914.03,7034.44ZM5647.72,7034.44L5645.32,7026.06L5644.38,7026.06C5642.47,7029.11 5639.75,7031.46 5636.24,7033.12C5632.72,7034.78 5628.72,7035.61 5624.23,7035.61C5616.53,7035.61 5610.73,7033.55 5606.82,7029.43C5602.92,7025.31 5600.96,7019.38 5600.96,7011.65L5600.96,6968.93L5618.84,6968.93L5618.84,7007.19C5618.84,7011.92 5619.68,7015.46 5621.36,7017.83C5623.03,7020.19 5625.71,7021.37 5629.38,7021.37C5634.38,7021.37 5637.99,7019.7 5640.22,7016.36C5642.45,7013.02 5643.56,7007.48 5643.56,6999.75L5643.56,6968.93L5661.43,6968.93L5661.43,7034.44L5647.72,7034.44ZM5769.48,7035.61C5758.93,7035.61 5750.69,7032.7 5744.75,7026.88C5738.82,7021.06 5735.85,7012.82 5735.85,7002.15C5735.85,6991.18 5738.59,6982.69 5744.08,6976.69C5749.57,6970.7 5757.15,6967.7 5766.84,6967.7C5776.1,6967.7 5783.31,6970.34 5788.46,6975.61C5793.62,6980.88 5796.2,6988.17 5796.2,6997.47L5796.2,7006.14L5753.95,7006.14C5754.15,7011.22 5755.65,7015.18 5758.46,7018.03C5761.28,7020.88 5765.22,7022.31 5770.3,7022.31C5774.24,7022.31 5777.98,7021.9 5781.49,7021.08C5785.01,7020.26 5788.68,7018.95 5792.51,7017.15L5792.51,7030.98C5789.38,7032.54 5786.04,7033.7 5782.49,7034.47C5778.93,7035.23 5774.6,7035.61 5769.48,7035.61ZM5586.55,7001.57C5586.55,7012.23 5583.74,7020.57 5578.11,7026.59C5572.49,7032.6 5564.65,7035.61 5554.62,7035.61C5548.33,7035.61 5542.78,7034.23 5537.98,7031.48C5533.17,7028.73 5529.48,7024.77 5526.9,7019.61C5524.32,7014.46 5523.03,7008.44 5523.03,7001.57C5523.03,6990.86 5525.83,6982.54 5531.41,6976.61C5537,6970.67 5544.85,6967.7 5554.97,6967.7C5561.26,6967.7 5566.8,6969.07 5571.61,6971.8C5576.41,6974.53 5580.11,6978.46 5582.68,6983.58C5585.26,6988.69 5586.55,6994.69 5586.55,7001.57ZM6124.01,7035.61C6113.46,7035.61 6105.22,7032.7 6099.28,7026.88C6093.35,7021.06 6090.38,7012.82 6090.38,7002.15C6090.38,6991.18 6093.12,6982.69 6098.61,6976.69C6104.1,6970.7 6111.69,6967.7 6121.37,6967.7C6130.63,6967.7 6137.84,6970.34 6142.99,6975.61C6148.15,6980.88 6150.73,6988.17 6150.73,6997.47L6150.73,7006.14L6108.48,7006.14C6108.68,7011.22 6110.18,7015.18 6112.99,7018.03C6115.81,7020.88 6119.75,7022.31 6124.83,7022.31C6128.78,7022.31 6132.51,7021.9 6136.02,7021.08C6139.54,7020.26 6143.21,7018.95 6147.04,7017.15L6147.04,7030.98C6143.91,7032.54 6140.57,7033.7 6137.02,7034.47C6133.46,7035.23 6129.13,7035.61 6124.01,7035.61ZM6192.86,7021.37C6195.98,7021.37 6199.73,7020.69 6204.11,7019.32L6204.11,7032.62C6199.65,7034.61 6194.19,7035.61 6187.7,7035.61C6180.55,7035.61 6175.35,7033.8 6172.09,7030.19C6168.82,7026.58 6167.19,7021.16 6167.19,7013.93L6167.19,6982.35L6158.64,6982.35L6158.64,6974.79L6168.48,6968.81L6173.64,6954.98L6185.07,6954.98L6185.07,6968.93L6203.4,6968.93L6203.4,6982.35L6185.07,6982.35L6185.07,7013.93C6185.07,7016.47 6185.78,7018.34 6187.2,7019.56C6188.63,7020.77 6190.52,7021.37 6192.86,7021.37ZM5506.8,7034.44L5488.7,7034.44L5488.7,6997.47L5454.77,6997.47L5454.77,7034.44L5436.61,7034.44L5436.61,6948.77L5454.77,6948.77L5454.77,6982.35L5488.7,6982.35L5488.7,6948.77L5506.8,6948.77L5506.8,7034.44ZM5999.4,7034.44L5981.53,7034.44L5981.53,6943.27L5999.4,6943.27L5999.4,7034.44ZM5962.78,7034.44L5944.91,7034.44L5944.91,6943.27L5962.78,6943.27L5962.78,7034.44ZM6069.05,6948.77L6087.39,6948.77L6058.27,7034.44L6038.46,7034.44L6009.4,6948.77L6027.74,6948.77L6043.86,6999.75C6044.75,7002.76 6045.68,7006.26 6046.64,7010.27C6047.6,7014.27 6048.19,7017.06 6048.43,7018.62C6048.86,7015.02 6050.32,7008.73 6052.82,6999.75L6069.05,6948.77ZM5908.76,7004.09L5901.84,7004.32C5896.65,7004.48 5892.78,7005.41 5890.24,7007.13C5887.7,7008.85 5886.43,7011.47 5886.43,7014.98C5886.43,7020.02 5889.32,7022.54 5895.11,7022.54C5899.24,7022.54 5902.56,7021.35 5905.04,7018.97C5907.52,7016.59 5908.76,7013.42 5908.76,7009.48L5908.76,7004.09ZM5541.26,7001.57C5541.26,7008.05 5542.32,7012.95 5544.45,7016.27C5546.58,7019.59 5550.05,7021.25 5554.85,7021.25C5559.62,7021.25 5563.04,7019.6 5565.13,7016.3C5567.22,7013 5568.27,7008.09 5568.27,7001.57C5568.27,6995.08 5567.21,6990.22 5565.11,6986.98C5562.99,6983.73 5559.54,6982.11 5554.73,6982.11C5549.97,6982.11 5546.53,6983.73 5544.42,6986.95C5542.31,6990.17 5541.26,6995.04 5541.26,7001.57ZM5766.96,6980.41C5763.17,6980.41 5760.2,6981.61 5758.05,6984.02C5755.9,6986.42 5754.68,6989.83 5754.36,6994.24L5779.44,6994.24C5779.36,6989.83 5778.21,6986.42 5775.98,6984.02C5773.76,6981.61 5770.75,6980.41 5766.96,6980.41ZM6121.49,6980.41C6117.7,6980.41 6114.73,6981.61 6112.59,6984.02C6110.44,6986.42 6109.21,6989.83 6108.89,6994.24L6133.97,6994.24C6133.89,6989.83 6132.74,6986.42 6130.52,6984.02C6128.29,6981.61 6125.28,6980.41 6121.49,6980.41Z" style="fill:rgb(45,54,96);fill-rule:nonzero;"/>
                    </g>
                </g>
                <g transform="matrix(0.395931,0,0,0.395931,4986.13,1838.17)">
                    <g transform="matrix(2.6731,0.94053,-1.1778,3.34746,-6481.19,-3176.13)">
                        <path d="M2715.46,316.456C2709.47,312.244 2706.32,309.087 2702.8,304.82C2697.65,298.601 2696.2,295.039 2693.01,289.96C2679.98,269.158 2657.74,249.998 2643.49,261.37C2634.85,268.273 2629.41,294.909 2626.64,313.283C2625.19,322.869 2625.78,333.782 2629.53,347.355C2631.87,355.82 2634.66,367.361 2645.83,381.192C2651.78,388.567 2660.67,395.013 2671.1,402.366C2677.97,407.213 2689.41,412.848 2696.39,416.049C2704.02,419.549 2717.79,423.438 2727.61,424.839C2739.78,426.574 2754.36,427.664 2766.26,427.288C2770.81,427.144 2786,425.837 2797.76,422.404C2807.81,419.47 2838.3,408.3 2836.76,405.098C2834.76,400.929 2811.59,351.076 2806.76,339.449C2803.45,331.489 2789.13,324.273 2779.69,322.369C2772.14,320.847 2760.37,322.768 2754.51,324.255C2748.92,325.673 2739.76,324.965 2736.89,324.778C2730.28,324.347 2723.04,321.79 2715.46,316.456Z" style="fill:rgb(45,54,96);"/>
                    </g>
                    <g transform="matrix(-2.6731,-0.94053,1.1778,-3.34746,7477.03,4174.5)">
                        <path d="M2715.46,316.456C2709.47,312.244 2706.32,309.087 2702.8,304.82C2697.65,298.601 2696.2,295.039 2693.01,289.96C2679.98,269.158 2657.74,249.998 2643.49,261.37C2634.85,268.273 2629.41,294.909 2626.64,313.283C2625.19,322.869 2625.78,333.782 2629.53,347.355C2631.87,355.82 2634.66,367.361 2645.83,381.192C2651.78,388.567 2660.67,395.013 2671.1,402.366C2677.97,407.213 2689.41,412.848 2696.39,416.049C2704.02,419.549 2717.79,423.438 2727.61,424.839C2739.78,426.574 2754.36,427.664 2766.26,427.288C2770.81,427.144 2786,425.837 2797.76,422.404C2807.81,419.47 2838.3,408.3 2836.76,405.098C2834.76,400.929 2811.59,351.076 2806.76,339.449C2803.45,331.489 2789.13,324.273 2779.69,322.369C2772.14,320.847 2763.38,321.614 2754.4,324.008C2745.75,326.315 2739.76,324.965 2736.89,324.778C2730.28,324.347 2723.04,321.79 2715.46,316.456Z" style="fill:rgb(244,243,244);"/>
                    </g>
                    <g transform="matrix(0.929443,0,0,0.929443,-3321.75,35.208)">
                        <path d="M4464.98,500.207C4464.73,511.544 4464.01,523.473 4462.29,538.379C4460.35,555.19 4458.73,569.07 4456.74,577.673C4449.59,608.601 4434.3,643.58 4409.73,685.789C4402.01,699.055 4388.65,718.894 4378.62,730.755C4333.73,783.882 4312.9,795.279 4229.08,830.771C4170.53,855.565 4101.56,868.199 4111.86,887.404C4127.48,916.497 4268.12,864.413 4305.32,844.738C4343.59,824.493 4382.56,785.792 4412.82,752.415C4440.22,722.202 4472.55,667.264 4486.42,629.297C4510.83,562.475 4510.92,520.997 4510.6,511.53C4510.52,509.281 4516.31,492.237 4510.95,479.94C4507.97,473.094 4502.76,464.29 4499.19,453.338C4495.21,441.092 4486.2,419.932 4477.15,410.494C4467.02,399.926 4453.43,390.854 4434.09,384.959C4410.03,377.626 4380.19,381.722 4361.13,388.75C4330.95,399.871 4316.1,421.953 4309.5,436.427C4300.61,455.944 4336.04,459.876 4341.61,450.148C4346.61,441.43 4352.39,435.081 4360.94,428.833C4372.02,420.741 4388.08,414.165 4407.58,415.983C4426.6,417.755 4442.56,427.235 4451.29,437.714C4460.57,448.832 4461.86,460.177 4463.78,470.355C4465.17,477.675 4465.19,490.251 4464.98,500.207Z" style="fill:rgb(45,54,96);"/>
                    </g>
                    <g transform="matrix(-0.929443,-1.13824e-16,1.13824e-16,-0.929443,4319.83,964.978)">
                        <path d="M4464.98,500.207C4464.73,511.544 4464.01,523.473 4462.29,538.379C4460.35,555.19 4458.73,569.07 4456.74,577.673C4449.59,608.601 4434.3,643.58 4409.73,685.789C4402.01,699.055 4388.65,718.894 4378.62,730.755C4333.73,783.882 4312.9,795.279 4229.08,830.771C4170.53,855.565 4101.56,868.199 4111.86,887.404C4127.48,916.497 4268.12,864.413 4305.32,844.738C4343.59,824.493 4382.56,785.792 4412.82,752.415C4440.22,722.202 4472.55,667.264 4486.42,629.297C4510.83,562.475 4510.92,520.997 4510.6,511.53C4510.52,509.281 4516.31,492.237 4510.95,479.94C4507.97,473.094 4502.76,464.29 4499.19,453.338C4495.21,441.092 4486.2,419.932 4477.15,410.494C4467.02,399.926 4453.43,390.854 4434.09,384.959C4410.03,377.626 4380.19,381.722 4361.13,388.75C4330.95,399.871 4316.1,421.953 4309.5,436.427C4300.61,455.944 4336.04,459.876 4341.61,450.148C4346.61,441.43 4352.39,435.081 4360.94,428.833C4372.02,420.741 4388.08,414.165 4407.58,415.983C4426.6,417.755 4442.56,427.235 4451.29,437.714C4460.57,448.832 4461.86,460.177 4463.78,470.355C4465.17,477.675 4465.19,490.251 4464.98,500.207Z" style="fill:rgb(244,243,244);"/>
                    </g>
                    <g transform="matrix(6.92033e-17,1.13018,-1.13018,6.92033e-17,1157.86,-230.176)">
                        <path d="M646.073,228.157C841.411,228.157 1000,386.746 1000,582.084C1000,777.422 841.411,936.011 646.073,936.011C450.735,936.011 292.146,777.422 292.146,582.084C292.146,386.746 450.735,228.157 646.073,228.157ZM646.073,263.55C821.877,263.55 964.607,406.28 964.607,582.084C964.607,757.888 821.877,900.618 646.073,900.618C470.269,900.618 327.538,757.888 327.538,582.084C327.538,406.28 470.269,263.55 646.073,263.55Z" style="fill:rgb(167,170,187);"/>
                    </g>
                    <g transform="matrix(-0.667667,-0.163046,0.163046,-0.667667,823.159,1018.16)">
                        <g transform="matrix(2.6731,0.94053,-0.94053,2.6731,-3829.73,-1900.13)">
                            <path d="M1767.41,225.249C1766.7,217.483 1732.54,221.525 1723.48,221.682C1719.17,221.757 1717.99,215.651 1715.63,211.406C1710.74,202.62 1707.55,196.869 1688.41,190.772C1671,185.225 1666.39,187.572 1656.57,187.045C1652.48,186.826 1652.29,182.131 1647.35,174.669C1641.61,166.001 1639.86,164.539 1635.42,164.775C1629.49,165.089 1623.88,198.397 1623.88,198.397C1623.88,198.397 1608.89,237.987 1617,264.023C1623.97,286.444 1632.97,305.04 1632.97,305.04L1662.87,306.207C1662.87,306.207 1683.36,277.866 1694.16,271.545C1703.86,265.872 1712.07,268.437 1727.72,268.281C1748.07,268.078 1768.12,233.015 1767.41,225.249Z" style="fill:rgb(244,243,244);"/>
                        </g>
                        <g transform="matrix(0.715954,-1.35994,9.56894,5.03767,-3887.98,2681.47)">
                            <path d="M2718.04,254.472C2720.6,254.33 2727.62,254.624 2728.86,256.827C2729.76,258.438 2715.17,258.886 2713.53,257.685C2709.93,255.038 2716.2,254.576 2718.04,254.472Z" style="fill:rgb(45,54,96);"/>
                        </g>
                        <g transform="matrix(0.514317,-1.23938,8.29948,3.4441,-3125.99,2683.01)">
                            <path d="M2743.98,248.254C2747.5,248.351 2790.6,249.132 2791.03,250.18C2791.26,250.731 2791.19,251.438 2777.8,252.913C2762.96,254.549 2750.54,255.391 2749.62,255.53C2747.23,255.89 2734.91,253.478 2733.57,251.241C2732.63,249.66 2741.69,248.191 2743.98,248.254Z" style="fill:rgb(226,228,235);"/>
                        </g>
                        <g transform="matrix(1.34055,0.0592926,-0.39705,8.97694,-2964.66,-2050.84)">
                            <path d="M2772.99,248.814C2786.11,249.553 2789.6,249.933 2790.13,250.414C2790.69,250.914 2789.15,251.251 2780.29,252.627C2777.74,253.023 2768.51,252.523 2766.23,251.315C2763.8,250.028 2770.05,248.648 2772.99,248.814Z" style="fill:rgb(45,54,96);"/>
                        </g>
                        <g transform="matrix(0.514317,-1.23938,8.29948,3.4441,-3043.71,2711.96)">
                            <path d="M2745.35,256.592C2745.03,256.608 2747.12,254.082 2747.72,251.645C2748.28,249.355 2747.33,247.142 2748.1,247.273C2749.13,247.449 2750.16,247.639 2752.83,247.874C2756.91,248.234 2764.43,248.325 2769.95,248.409C2781.57,248.586 2799.43,249.35 2795.91,250.631C2792.39,251.913 2765.84,255.527 2745.35,256.592Z" style="fill:rgb(226,228,235);"/>
                        </g>
                    </g>
                    <g transform="matrix(0.667667,0.163046,-0.163046,0.667667,172.813,-18.3998)">
                        <g transform="matrix(2.6731,0.94053,-0.94053,2.6731,-3829.73,-1900.13)">
                            <path d="M1738.75,247.717C1738.11,241.864 1727.85,237.265 1724.1,233.119C1721.21,229.922 1718.61,227.087 1716.25,222.843C1711.36,214.056 1707.55,196.869 1688.41,190.772C1671,185.225 1666.39,187.572 1656.57,187.045C1647.91,186.58 1637.05,164.458 1635.42,164.775C1633.65,165.117 1623.88,198.397 1623.88,198.397C1623.88,198.397 1608.89,237.987 1617,264.023C1623.97,286.444 1632.97,305.04 1632.97,305.04L1662.87,306.207C1662.87,306.207 1683.31,277.873 1694.16,271.545C1703.95,265.839 1720.55,272.206 1727.98,268.234C1734.79,264.594 1739.4,253.569 1738.75,247.717Z" style="fill:rgb(45,54,96);"/>
                        </g>
                        <g transform="matrix(0.993848,0.110751,-0.110751,0.993848,42.3839,-61.6941)">
                            <g transform="matrix(0.361466,-0.857341,1.24611,0.525377,-642.593,2464.77)">
                                <path d="M2540.23,122.705C2540.23,122.705 2542.73,198.126 2542.73,201.87C2542.73,205.614 2543.7,208.654 2539.95,208.654C2536.21,208.654 2537.17,205.614 2537.17,201.87C2537.17,198.126 2540.23,122.705 2540.23,122.705Z" style="fill:rgb(244,243,244);"/>
                            </g>
                            <g transform="matrix(0.505486,-0.781137,1.13535,0.734704,-980.311,2217.79)">
                                <path d="M2540.23,122.705C2540.23,122.705 2542.73,198.126 2542.73,201.87C2542.73,205.614 2543.7,208.654 2539.95,208.654C2536.21,208.654 2537.17,205.614 2537.17,201.87C2537.17,198.126 2540.23,122.705 2540.23,122.705Z" style="fill:rgb(244,243,244);"/>
                            </g>
                            <g transform="matrix(0.207475,-0.906998,1.31829,0.301556,-269.612,2648.14)">
                                <path d="M2540.23,122.705C2540.23,122.705 2542.73,198.126 2542.73,201.87C2542.73,205.614 2543.7,208.654 2539.95,208.654C2536.21,208.654 2537.17,205.614 2537.17,201.87C2537.17,198.126 2540.23,122.705 2540.23,122.705Z" style="fill:rgb(244,243,244);"/>
                            </g>
                        </g>
                        <g transform="matrix(1.05735,-2.00841,10.2321,5.38681,-4994.53,4380.34)">
                            <path d="M2718.27,254.665C2718.27,254.665 2724.36,256.553 2723.83,257.038C2723.3,257.523 2715.11,257.573 2715.11,257.573L2718.27,254.665Z" style="fill:rgb(244,243,244);"/>
                        </g>
                        <g transform="matrix(0.514317,-1.23938,8.29948,3.4441,-3125.99,2683.01)">
                            <path d="M2743.98,248.254C2747.5,248.351 2790.87,250.022 2790.97,250.139C2791.04,250.222 2768.41,252.387 2758.91,253.947C2753.69,254.804 2750.63,255.541 2749.71,255.68C2747.32,256.04 2734.91,253.478 2733.57,251.241C2732.63,249.66 2741.69,248.191 2743.98,248.254Z" style="fill:rgb(62,67,74);"/>
                        </g>
                        <g transform="matrix(0.514317,-1.23938,8.29948,3.4441,-3043.8,2711.62)">
                            <path d="M2746,256.169C2743.95,256.683 2746.51,247.002 2748.1,247.273C2749.13,247.449 2750.11,247.63 2752.75,247.921C2756.55,248.342 2759.87,248.491 2766.75,248.919C2775.81,249.483 2788.06,250.009 2797.23,250.399C2780.41,251.56 2752.17,254.625 2746,256.169Z" style="fill:rgb(62,67,74);"/>
                        </g>
                    </g>
                </g>
            </g>
        </g>
    </g>
</svg>
