<?xml version="1.0" encoding="UTF-8" standalone="no"?>
<!DOCTYPE svg PUBLIC "-//W3C//DTD SVG 1.1//EN" "http://www.w3.org/Graphics/SVG/1.1/DTD/svg11.dtd">
<svg width="100%" height="100%" viewBox="0 0 810 137" version="1.1" xmlns="http://www.w3.org/2000/svg" xmlns:xlink="http://www.w3.org/1999/xlink" xml:space="preserve" xmlns:serif="http://www.serif.com/" style="fill-rule:evenodd;clip-rule:evenodd;stroke-linejoin:round;stroke-miterlimit:2;">
    <g transform="matrix(1,0,0,1,-5570.94,-2355.14)">
        <g transform="matrix(1,0,0,1,-0.754384,-0.491517)">
            <g id="The_New_York_Times_Logo.svg" transform="matrix(2.13463,0,0,2.13463,5976.2,2423.94)">
                <g transform="matrix(1,0,0,1,-189.5,-32)">
                    <path d="M30.8,15.7C30.8,11.6 26.9,10.3 23.6,10.4L23.6,10.8C25.6,11 27.1,11.8 27.1,13.1C27.1,14 26.4,15.2 24.5,15.2C22.9,15.2 20.4,14.3 17.9,13.5C15.2,12.6 12.7,11.7 10.6,11.7C6.5,11.7 3.3,14.8 3.3,18.6C3.3,21.7 5.7,22.7 6.6,23.1L6.7,22.9C6.1,22.5 5.7,22 5.7,20.7C5.7,19.6 6.5,18.1 8.6,18.1C10.5,18.1 13,19 16.4,19.9C19.3,20.7 22.4,21.5 24.1,21.7L24.1,28.4L20.9,31.1L24.1,33.9L24.1,43.1C22.4,44.1 20.5,44.4 18.8,44.4C15.7,44.4 12.9,43.5 10.6,41L19.3,36.8L19.3,22.1L8.7,26.9C9.8,24.1 11.9,22 14.2,20.6L14.1,20.4C7.8,22.1 2,27.9 2,35.1C2,43.7 8.9,50 16.8,50C25.4,50 30.4,43.3 30.3,36.2L30.1,36.2C28.8,38.9 26.8,41.5 24.4,42.9L24.4,33.9L27.8,31.2L24.4,28.5L24.4,21.8C27.6,21.7 30.8,19.6 30.8,15.7ZM12.9,39.3L10.4,40.6C8.9,38.6 7.9,35.9 7.9,32.3C7.9,30.8 8.1,28.8 8.6,27.4L13,25.4L12.9,39.3ZM52.8,27.5L51.1,28.8L46.1,24.3L40.2,28.8L40.2,11.4L32.2,16.9C33.1,17.2 34.2,17.7 34.2,19.8L34.2,44L31.5,46.1L31.8,46.4L33.2,45.4L37.9,49.7L44.3,45.5L44,45.1L42.4,46.2L40.2,44L40.2,29.4L41.7,28.3L45.2,31.3L45.2,44C45.2,52 43.4,53.7 39.8,55L39.8,55.2C45.8,55.5 51.2,53.4 51.2,43.1L51.2,29.3L53,27.8L52.8,27.5ZM63.5,49.6L72.7,42.2L72.4,41.8L67.6,45.6L62,41.3L62,38.6L71.6,31.8L66.8,24.3L56.1,30.2L56.1,44.1L54,45.7L54.3,46L56.3,44.4L63.5,49.6ZM62,38L62,27.5L66.6,34.8L62,38ZM110.9,13.7C110.9,13 110.7,12.5 110.5,11.7L110.3,11.7C109.6,13.5 108.9,14.4 106.9,14.4C105.1,14.4 103.7,13.3 102.9,12.5C102.9,12.6 96.8,19.5 96.8,19.5L97.1,19.8L98.8,17.8C100.1,18.8 101.3,20 104.2,20L104.2,37.7L91.9,16.2C90.9,14.6 89.3,12.2 86.4,12.2C83.1,12.2 80.5,15.1 80.9,19.9L81.1,19.9C81.4,18.7 82.1,17.2 83.5,17.2C84.7,17.2 85.6,18.3 86.2,19.3L86.2,26.2C82.4,26.2 80.2,28 80.2,31C80.2,32.3 81.1,35 83.7,35.4L83.7,35.2C83.3,34.8 83,34.5 83,33.8C83,32.6 83.9,32 85.4,32C85.7,32 86,32.1 86.2,32.1L86.2,41.1C81.7,41.2 78.2,43.6 78.2,47.9C78.2,51.9 81.7,53.8 85.3,53.6L85.3,53.4C83,53.1 81.9,52 81.9,50.3C81.9,48.5 83.2,47.5 84.9,47.5C86.6,47.5 87.8,48.6 88.9,49.8L95,43L94.7,42.7L93.1,44.5C90.8,42.4 89.3,41.5 86.6,41.1L86.6,19.9L103.7,49.7L104.6,49.7L104.6,20C108,19.8 110.9,17.4 110.9,13.7ZM116.7,49.6L125.9,42.2L125.6,41.8L120.8,45.6L115.2,41.2L115.2,38.5L124.8,31.7L120,24.2L109.3,30.1L109.3,44L107.2,45.6L107.5,45.9L109.5,44.3L116.7,49.6ZM115.3,38L115.3,27.5L119.9,34.8L115.3,38ZM158.7,26.7L157.3,27.8L153.3,24.4L148.6,28.6L150.5,30.4L150.5,46.2L145.7,42.9L145.7,30.1L147.4,28.9L142.5,24.3L137.9,28.5L139.8,30.3L139.8,45.6L139.5,45.8L135,42.5L135,30C135,27.1 133.5,26.2 131.7,25.1C130.1,24.1 129.3,23.2 129.3,21.8C129.3,20.2 130.7,19.5 131.2,19.3C129.6,19.2 125.1,20.9 125,25C124.9,27.1 126,28 127,29C128.1,30 129.1,31 129.1,32.7L129.1,45L126.9,46.7L127.2,47L129.3,45.4L134.7,49.8L139.9,46.2L145.6,49.8L156.7,43.2L156.7,28.9L159.2,27L158.7,26.7ZM195.9,14.7L193.8,16.6L189.1,12.5L182.7,17.7L182.7,12.9L182.3,12.9L182.3,47.6C181.6,47.5 180.1,47.1 178.5,46.8L178.5,17.8C178.5,15.7 177,12.8 173.2,12.8C169.3,12.8 167,16 167,18.8L167.2,18.8C167.4,17.5 168.3,16.4 169.5,16.4C170.8,16.4 171.9,17.2 171.9,20L171.9,28.3C168.3,28.5 166.1,30.7 166.1,33.1C166.1,34.5 167,37 169.7,37.1L169.7,36.9C168.8,36.5 168.6,36 168.6,35.5C168.6,34.3 169.8,33.9 171.4,33.9L171.8,33.9L171.8,47.2C168.7,48.3 167.3,50.3 167.3,52.9C167.3,56.4 170.1,59.2 174.3,59.2C177.2,59.2 179.3,58.7 182,58.1C184.2,57.6 186.5,57.1 187.8,57.1C189.4,57.1 190.1,57.8 190.1,59C190.1,60.5 189.5,61.2 188.7,61.5L188.7,61.7C192.2,61 194.2,59 194.2,55.9C194.2,52.7 191.1,50.7 187.7,50.7C185.9,50.7 182.7,51.3 180.1,51.9C177.2,52.6 174.6,52.9 173.7,52.9C172.2,52.9 170.4,52.2 170.4,50.3C170.4,48.5 171.9,47.1 175.5,47.1C177.5,47.1 179.4,47.4 181.8,48C184.4,48.6 186.1,49.3 188.4,49.3C191.5,49.3 194,48.2 194,43.7L194,17.1L196.3,15L195.9,14.7ZM187.2,28.6C186.6,29.2 186,29.7 184.9,29.7C183.7,29.7 183.1,29.1 182.6,28.6L182.6,18.2L184.1,17L187.2,19.6L187.2,28.6ZM187.2,33.6C186.7,33.1 186,32.6 184.9,32.6C183.8,32.6 183,33.2 182.6,33.6L182.6,29.2C183.1,29.6 183.8,30.2 184.9,30.2C186,30.2 186.7,29.7 187.2,29.2L187.2,33.6ZM187.2,44C187.2,45.7 186.3,47.6 184.1,47.6C183.7,47.6 182.9,47.5 182.6,47.5L182.6,34.1C183.1,33.6 183.8,33 184.9,33C186,33 186.6,33.5 187.2,34.1L187.2,44ZM205.2,49.6L215.5,43.2L215.5,29.2L208.8,24.3L198.5,30.2L198.5,44.1L196.5,45.7L196.7,46L198.4,44.6L205.2,49.6ZM204.5,42.4L204.5,27.4L209.7,31.2L209.7,46.1L204.5,42.4ZM235.2,24.6C234.4,25.2 233.7,25.5 232.9,25.5C232.1,25.5 231.1,25 230.6,24.3C230.6,24.4 226.8,28.4 226.8,28.4L223,24.3L216.7,28.6L216.9,29L218.6,27.9L220.9,30.4L220.9,44L218.2,46.1L218.5,46.4L219.9,45.4L225,49.7L231.5,45.4L231.3,45.1L229.6,46.1L227,43.7L227,28.8C228.1,30 229.3,31 230.7,31C233.1,31 234.9,27.9 235.2,24.6ZM259.6,44.7L257.7,45.9L247,30L247.6,29.2C248.8,29.9 249.8,30.9 252,30.9C254.2,30.9 257,28.6 257.3,24.3C256.7,25.1 255.6,26 253.8,26C252.5,26 251.2,25.1 250.4,24.3L243.1,35L252.7,49.7L259.7,45.1L259.6,44.7ZM246.6,45.1L245,46.2L242.8,44L242.8,11.4L234.8,16.9C235.7,17.2 236.8,17.7 236.8,19.8L236.8,44L234.1,46.1L234.4,46.4L235.8,45.4L240.5,49.7L246.9,45.5L246.6,45.1ZM293.5,15.7C293.5,11.6 289.6,10.3 286.3,10.4L286.3,10.8C288.3,11 289.8,11.8 289.8,13.1C289.8,14 289.1,15.2 287.2,15.2C285.6,15.2 283.1,14.3 280.6,13.5C277.9,12.6 275.4,11.7 273.3,11.7C269.2,11.7 266,14.8 266,18.6C266,21.7 268.4,22.7 269.3,23.1L269.4,22.9C268.8,22.5 268.4,22 268.4,20.7C268.4,19.6 269.2,18.1 271.3,18.1C273.2,18.1 275.7,19 279.1,19.9C282,20.7 285.1,21.5 286.8,21.7L286.8,28.4L283.6,31.1L286.8,33.9L286.8,43.1C285.1,44.1 283.2,44.4 281.5,44.4C278.4,44.4 275.6,43.5 273.3,41L282,36.8L282,22.1L271.3,26.8C272.4,24 274.5,21.9 276.8,20.5L276.7,20.3C270.4,22 264.6,27.8 264.6,35C264.6,43.6 271.5,49.9 279.4,49.9C288,49.9 293,43.2 292.9,36.1L292.7,36.1C291.4,38.8 289.4,41.4 287,42.8L287,33.8L290.4,31.1L287,28.4L287,21.7C290.3,21.7 293.5,19.6 293.5,15.7ZM275.5,39.3L273,40.6C271.5,38.6 270.5,35.9 270.5,32.3C270.5,30.8 270.7,28.8 271.2,27.4L275.6,25.4L275.5,39.3ZM300,14.1L295.6,17.8L299.4,22.1L303.8,18.4L300,14.1ZM306.8,45.1L305.2,46.2L303,44L303,29.3L304.9,27.8L304.6,27.5L303,28.7L299.3,24.3L293.2,28.5L293.4,28.9L294.9,27.9L296.9,30.4L296.9,44L294.2,46.1L294.5,46.4L295.9,45.4L300.6,49.7L307,45.5L306.8,45.1ZM340.8,44.9L339.3,45.9L336.9,43.6L336.9,29.3L338.8,27.8L338.5,27.5L336.8,28.8L331.8,24.3L326.1,28.7L321.1,24.3L315.5,28.7L311.7,24.3L305.6,28.5L305.8,28.9L307.3,27.9L309.5,30.4L309.5,43.9L307.8,45.6L312.6,49.7L317.3,45.5L315.4,43.7L315.4,29.2L316.7,28.3L320.2,31.3L320.2,43.9L318.6,45.6L323.5,49.7L328.1,45.5L326.2,43.7L326.2,29.2L327.4,28.2L330.9,31.3L330.9,43.7L329.5,45.2L334.4,49.7L340.9,45.3L340.8,44.9ZM358.5,41.9L353.7,45.7L348.1,41.3L348.1,38.6L357.7,31.8L352.9,24.3L342.2,30.2L342.2,44.4L349.5,49.7L358.7,42.3L358.5,41.9ZM348.1,38L348.1,27.5L352.7,34.8L348.1,38ZM377,36L372.9,32.9C375.6,30.5 376.6,27.5 376.6,25.3C376.6,25 376.5,24.4 376.5,23.9L376.3,23.9C375.9,25 374.8,26 373.2,26C371.6,26 370.6,25.1 369.6,24L360.2,29.2L360.2,36.8L363.8,39.6C360.2,42.8 359.5,44.8 359.5,46.6C359.5,48.5 360.6,50 362.4,50.7L362.6,50.4C362.1,50 361.7,49.7 361.7,48.8C361.7,48.1 362.4,47 364,47C366.1,47 367.3,48.4 368,49.2C368,49.1 377,43.7 377,43.7L377,36ZM374.9,29.8C373.5,32.3 370.4,34.8 368.5,36.2L366.2,34.3L366.2,26.9C367.1,28.9 369,30.6 371.4,30.6C372.9,30.6 373.8,30.3 374.9,29.8ZM371,46.4C369.9,44 367.7,42.3 365.1,42.3C364.5,42.3 362.6,42.2 361,43.3C362,41.7 364.8,38.8 368.5,36.6L371,38.7L371,46.4Z" style="fill:white;fill-rule:nonzero;"/>
                </g>
            </g>
        </g>
    </g>
</svg>
